<svg width="22" height="22" viewBox="0 0 22 22" fill="none" xmlns="http://www.w3.org/2000/svg">
<path d="M9.60343 17.7515C9.05114 17.7515 8.60343 18.1992 8.60343 18.7515C8.60343 19.3037 9.05114 19.7515 9.60343 19.7515V18.7515V17.7515ZM9.60343 18.7515V19.7515H14.6427V18.7515V17.7515H9.60343V18.7515ZM14.6427 18.7515V19.7515C15.806 19.7515 16.8802 19.5667 17.6562 18.9098C18.4754 18.2161 18.7314 17.2028 18.7314 16.1131H17.7314H16.7314C16.7314 16.9281 16.5403 17.234 16.3638 17.3834C16.1441 17.5694 15.674 17.7515 14.6427 17.7515V18.7515ZM17.7314 16.1131H18.7314C18.7314 15.2187 18.7086 14.1024 18.031 13.2819C17.3116 12.4108 16.1252 12.1529 14.6427 12.1529V13.1529V14.1529C16.0213 14.1529 16.3792 14.4227 16.4889 14.5555C16.6403 14.7389 16.7314 15.1027 16.7314 16.1131H17.7314ZM14.6427 13.1529V12.1529H9.60343V13.1529V14.1529H14.6427V13.1529Z" fill="white"/>
<path d="M12.1439 8.06104L6.47469 8.06104C4.00583 8.06104 3 8.72795 3 10.4596C3 12.1912 3.25603 13.1506 6.47469 13.1506L12.1439 13.1506" stroke="white" stroke-width="1.5" stroke-linecap="round" stroke-dasharray="1 1"/>
<ellipse cx="10.0972" cy="18.7744" rx="2.21819" ry="2.22211" fill="white"/>
<path d="M13.4626 4.96605V8.93211H12.1432V7.61002V1H18.081L16.7614 2.98303L18.081 4.96605H13.4626Z" fill="white"/>
</svg>
