<svg width="30" height="30" viewBox="0 0 30 30" fill="none" xmlns="http://www.w3.org/2000/svg">
<path d="M7.22168 18.0947H21.7783C22.3481 18.0947 22.8328 18.2993 23.2402 18.7139C23.6476 19.1287 23.8496 19.6239 23.8496 20.207V25.8496H5.15039V20.2041C5.15039 19.6209 5.35249 19.1268 5.75977 18.7129C6.16724 18.2992 6.65164 18.0947 7.22168 18.0947ZM7.22168 19.6494C7.06735 19.6494 6.93089 19.703 6.8252 19.8135C6.72199 19.9217 6.6709 20.0561 6.6709 20.207V24.2959H22.3291V20.207C22.3291 20.0561 22.278 19.9217 22.1748 19.8135C22.0691 19.703 21.9327 19.6494 21.7783 19.6494H7.22168ZM10.875 4.15039H18.1182C19.7064 4.15039 21.0557 4.71676 22.1738 5.85449C23.2921 6.9926 23.8496 8.36547 23.8496 9.98145C23.8496 11.6022 23.2912 12.9785 22.1719 14.1182C21.0528 15.2574 19.704 15.8251 18.1172 15.8252H10.876C9.28716 15.8251 7.93903 15.2571 6.82324 14.1172C5.70712 12.9771 5.15039 11.6012 5.15039 9.98145C5.15041 8.3621 5.70782 6.98875 6.8252 5.85254C7.94268 4.71627 9.29002 4.15039 10.875 4.15039ZM10.8799 5.7041C9.70491 5.70418 8.70625 6.12048 7.89258 6.94922C7.07889 7.77807 6.67101 8.79282 6.6709 9.98438C6.6709 11.1761 7.0787 12.192 7.89258 13.0225C8.70668 13.8533 9.7049 14.2705 10.8779 14.2705H18.1123C19.288 14.2705 20.2884 13.8538 21.1045 13.0234C21.9204 12.1932 22.3291 11.1769 22.3291 9.9834C22.3291 8.7896 21.9207 7.77376 21.1045 6.94629C20.2884 6.1191 19.2878 5.7041 18.1123 5.7041H10.8799ZM10.8633 9.05176C11.1138 9.05183 11.3253 9.14117 11.5059 9.32422C11.6862 9.50711 11.7753 9.72378 11.7754 9.98242C11.7754 10.2409 11.6862 10.4578 11.5049 10.6406C11.3229 10.8238 11.1106 10.9121 10.8613 10.9121C10.6435 10.912 10.4551 10.8446 10.291 10.7051L10.2217 10.6406C10.0422 10.4582 9.9541 10.24 9.9541 9.97852C9.95419 9.72276 10.0419 9.50733 10.2217 9.32422C10.4014 9.14121 10.6129 9.05176 10.8633 9.05176ZM18.1143 9.05176C18.3647 9.05184 18.5763 9.14116 18.7568 9.32422C18.9372 9.50711 19.0263 9.72378 19.0264 9.98242C19.0264 10.2409 18.9371 10.4579 18.7559 10.6406C18.5737 10.8239 18.3613 10.9121 18.1123 10.9121C17.8633 10.912 17.6526 10.8237 17.4727 10.6406C17.2933 10.4581 17.2051 10.2401 17.2051 9.97852C17.2052 9.72275 17.2929 9.50734 17.4727 9.32422C17.6524 9.14121 17.8639 9.05176 18.1143 9.05176Z" fill="#04C2C3" stroke="#011C2F" stroke-width="0.3"/>
</svg>
