<svg width="32" height="32" viewBox="0 0 32 32" fill="none" xmlns="http://www.w3.org/2000/svg">
<path fill-rule="evenodd" clip-rule="evenodd" d="M8.15531 13.9111L16.2421 1.15527L24.3288 13.9111L24.3289 24.3935L21.9465 30.8448L16.2421 28.1922L10.5376 30.8448L8.15527 24.3935L8.15531 13.9111Z" fill="#FFBEC5"/>
<path d="M9.49658 27.167L21.9912 10.5067L24.2752 13.8661V24.5477L21.9912 30.3915L16.0125 28.309L10.9071 30.3915L9.49658 27.167Z" fill="#FF5A6D"/>
<path fill-rule="evenodd" clip-rule="evenodd" d="M16.2422 0C16.6379 0 17.006 0.202507 17.2179 0.536692L25.3046 13.2925C25.4219 13.4775 25.4842 13.692 25.4842 13.911L25.4842 24.3934C25.4842 24.53 25.46 24.6655 25.4127 24.7936L23.0304 31.2449C22.9186 31.5477 22.6852 31.7899 22.3868 31.9129C22.0884 32.0358 21.7522 32.0284 21.4596 31.8923L16.2422 29.4662L11.0248 31.8923C10.7321 32.0284 10.3959 32.0358 10.0975 31.9129C9.79913 31.7899 9.56577 31.5477 9.45397 31.2449L7.07165 24.7936C7.02434 24.6655 7.00012 24.53 7.00012 24.3934L7.00016 13.911C7.00016 13.692 7.06243 13.4775 7.17971 13.2925L15.2665 0.536692C15.4783 0.202507 15.8465 0 16.2422 0ZM9.31067 14.2464L9.31064 24.187L11.1872 29.2687L15.7551 27.1447C16.0639 27.001 16.4204 27.001 16.7293 27.1447L21.2971 29.2687L23.1737 24.187L23.1737 14.2464L16.2422 3.31286L9.31067 14.2464Z" fill="black"/>
</svg>
