<svg width="26" height="26" viewBox="0 0 26 26" fill="none" xmlns="http://www.w3.org/2000/svg">
<path d="M25 24.6436C25 24.9972 24.8595 25.3364 24.6095 25.5864C24.3594 25.8365 24.0203 25.9769 23.6667 25.9769H2.33333C1.97971 25.9769 1.64057 25.8365 1.39052 25.5864C1.14048 25.3364 1 24.9972 1 24.6436V10.6303C0.999859 10.4271 1.04616 10.2265 1.13535 10.044C1.22455 9.86143 1.35429 9.70168 1.51467 9.57692L12.1813 1.28093C12.4154 1.09885 12.7035 1 13 1C13.2965 1 13.5846 1.09885 13.8187 1.28093L24.4853 9.57692C24.6457 9.70168 24.7754 9.86143 24.8646 10.044C24.9538 10.2265 25.0001 10.4271 25 10.6303V24.6436Z" fill="#0049B6"/>
<path d="M19.8571 9C19.5541 9.00034 19.2637 9.11875 19.0494 9.32924C18.8352 9.53973 18.7146 9.82512 18.7143 10.1228V11.2456H17.5714C17.1823 11.2233 16.8086 11.0877 16.4982 10.8561C16.1877 10.6246 15.9543 10.3075 15.8278 9.94518C15.7894 9.83373 15.7165 9.73686 15.6193 9.66807C15.5221 9.59927 15.4055 9.56198 15.2857 9.5614C15.1661 9.56052 15.0493 9.59693 14.9521 9.6654C14.8549 9.73386 14.7822 9.83086 14.7447 9.94243C14.6184 10.3053 14.3851 10.623 14.0744 10.8551C13.7636 11.0872 13.3896 11.2231 13 11.2456C12.6108 11.2233 12.2372 11.0877 11.9267 10.8561C11.6162 10.6246 11.3829 10.3075 11.2564 9.94518C11.2179 9.83373 11.145 9.73686 11.0479 9.66807C10.9507 9.59927 10.8341 9.56198 10.7143 9.5614C10.5943 9.55888 10.4767 9.59465 10.3792 9.66335C10.2816 9.73205 10.2094 9.82997 10.1733 9.94243C10.047 10.3053 9.81365 10.623 9.50293 10.8551C9.19222 11.0872 8.81822 11.2231 8.42857 11.2456H7.28571V10.1228C7.28537 9.82512 7.16485 9.53973 6.9506 9.32924C6.73634 9.11875 6.44586 9.00034 6.14286 9H5V10.1228H6.14286V21.3509C6.14321 21.6486 6.26372 21.934 6.47798 22.1444C6.69223 22.3549 6.98272 22.4733 7.28571 22.4737H18.7143C19.0173 22.4733 19.3078 22.3549 19.522 22.1444C19.7363 21.934 19.8568 21.6486 19.8571 21.3509V10.1228H21V9H19.8571ZM7.28571 21.3509V19.1053H9.57143V17.9825H7.28571V15.7368H9.57143V14.614H7.28571V12.3684H8.42857C8.87205 12.3723 9.31018 12.2732 9.70736 12.0794C10.1045 11.8855 10.4495 11.6023 10.7143 11.2527C10.9818 11.5994 11.3273 11.8806 11.7239 12.0741C12.1204 12.2677 12.5572 12.3684 13 12.3684C13.4428 12.3684 13.8796 12.2677 14.2761 12.0741C14.6727 11.8806 15.0182 11.5994 15.2857 11.2527C15.5505 11.6023 15.8955 11.8855 16.2926 12.0794C16.6898 12.2732 17.128 12.3723 17.5714 12.3684H18.7143V21.3509H7.28571Z" fill="white"/>
</svg>
