<svg width="22" height="22" viewBox="0 0 22 22" fill="none" xmlns="http://www.w3.org/2000/svg">
<path d="M1.41889 15.0625H2.54739C3.30708 18.8749 7.30536 21 11 21C14.7007 21 18.6938 18.8707 19.4526 15.0625H20.5811C20.9536 15.0625 21.1401 14.5828 20.8767 14.3023L18.5416 11.8149C18.3784 11.641 18.1137 11.641 17.9504 11.8149L15.6154 14.3023C15.352 14.5829 15.5385 15.0625 15.9109 15.0625H17.1353C16.4285 17.0782 14.1755 18.2757 12.1147 18.5513V11.5H13.9263C14.1571 11.5 14.3443 11.3006 14.3443 11.0547V9.5703C14.3443 9.32438 14.1571 9.12499 13.9263 9.12499H12.1147V8.922C13.4135 8.43297 14.3441 7.11385 14.3443 5.56293C14.3445 3.62434 12.8674 2.02737 11.0477 2.00036C9.17884 1.97256 7.65568 3.57806 7.65568 5.56249C7.65568 7.11359 8.58638 8.4329 9.88523 8.922V9.12499H8.07372C7.84286 9.12499 7.65568 9.32438 7.65568 9.5703V11.0547C7.65568 11.3006 7.84286 11.5 8.07372 11.5H9.88523V18.5513C7.83209 18.2768 5.57174 17.0789 4.86466 15.0625H6.08903C6.46147 15.0625 6.64799 14.5828 6.38462 14.3023L4.04955 11.8149C3.88631 11.641 3.62162 11.641 3.45834 11.8149L1.12327 14.3023C0.859934 14.5828 1.04645 15.0625 1.41889 15.0625ZM11 4.37499C11.6147 4.37499 12.1148 4.90769 12.1148 5.56249C12.1148 6.21728 11.6147 6.74999 11 6.74999C10.3853 6.74999 9.88523 6.21728 9.88523 5.56249C9.88523 4.90769 10.3853 4.37499 11 4.37499Z" fill="white"/>
</svg>
