<svg width="32" height="33" viewBox="0 0 32 33" fill="none" xmlns="http://www.w3.org/2000/svg">
<path d="M8.28546 21.119L16.2266 1.28552L23.714 21.119V30.857L16.2266 28.4361L8.28546 30.857V21.119Z" fill="#FF9A23"/>
<path fill-rule="evenodd" clip-rule="evenodd" d="M16.2397 6.39362e-05C16.7699 0.00533248 17.2425 0.335555 17.4297 0.831622L24.9171 20.6651C24.9719 20.8103 25 20.9641 25 21.1192V30.8571C25 31.2684 24.8033 31.6548 24.4708 31.8968C24.1382 32.1387 23.71 32.207 23.3187 32.0805L16.2156 29.7838L8.66063 32.087C8.27091 32.2058 7.84794 32.1328 7.52053 31.8904C7.19311 31.6479 7 31.2646 7 30.8571V21.1192C7 20.9555 7.03127 20.7933 7.09212 20.6413L15.0333 0.807809C15.2304 0.315562 15.7095 -0.00520469 16.2397 6.39362e-05ZM9.57143 21.3671V29.1211L15.852 27.2064C16.1034 27.1298 16.3723 27.132 16.6224 27.2129L22.4286 29.0902V21.3538L16.1916 4.83271L9.57143 21.3671Z" fill="black"/>
</svg>
