<svg width="30" height="31" viewBox="0 0 30 31" fill="none" xmlns="http://www.w3.org/2000/svg">
<path d="M7 7.10817C6.71067 7.10817 6.4332 7.25588 6.22861 7.51879C6.02403 7.78171 5.90909 8.1383 5.90909 8.51012C5.90909 8.88194 6.02403 9.23853 6.22861 9.50145C6.4332 9.76437 6.71067 9.91207 7 9.91207C7.28933 9.91207 7.5668 9.76437 7.77139 9.50145C7.97597 9.23853 8.09091 8.88194 8.09091 8.51012C8.09091 8.1383 7.97597 7.78171 7.77139 7.51879C7.5668 7.25588 7.28933 7.10817 7 7.10817ZM7 10.8467C6.51779 10.8467 6.05533 10.6005 5.71435 10.1623C5.37338 9.72414 5.18182 9.12982 5.18182 8.51012C5.18182 7.89042 5.37338 7.2961 5.71435 6.85791C6.05533 6.41971 6.51779 6.17354 7 6.17354C7.48221 6.17354 7.94467 6.41971 8.28565 6.85791C8.62662 7.2961 8.81818 7.89042 8.81818 8.51012C8.81818 9.12982 8.62662 9.72414 8.28565 10.1623C7.94467 10.6005 7.48221 10.8467 7 10.8467ZM7 5.00525C5.23273 5.00525 3.64727 6.4072 3 8.51012C3.86909 11.3514 6.36364 12.744 8.57455 11.6271C9.68364 11.0663 10.5636 9.94011 11 8.51012C10.3527 6.4072 8.76727 5.00525 7 5.00525Z" fill="white"/>
<path d="M12.5957 15.1484V9.43958H24.9229V14.9258" stroke="white"/>
<path d="M18.7617 3.00317V6.40148" stroke="white"/>
<path d="M14.4043 9.43954V6.40515H23.1177V9.43954" stroke="white"/>
<path d="M24.925 22.9421L26.6474 16.0932L18.762 12.5679L10.9473 16.2869L12.5977 22.9421H24.925Z" stroke="white"/>
<path d="M18.7988 12.5287V22.9422" stroke="white"/>
<mask id="path-7-inside-1_34_2569" fill="white">
<path d="M26.2 25.2245C24.949 25.2245 23.698 24.8006 22.6 24.025C20.404 25.5672 17.596 25.5672 15.4 24.025C14.302 24.8006 13.051 25.2245 11.8 25.2245H10V27.0281H11.8C13.033 27.0281 14.266 26.7125 15.4 26.1263C17.65 27.2987 20.35 27.2987 22.6 26.1263C23.734 26.7125 24.958 27.0281 26.2 27.0281H28V25.2245"/>
</mask>
<path d="M26.2 25.2245C24.949 25.2245 23.698 24.8006 22.6 24.025C20.404 25.5672 17.596 25.5672 15.4 24.025C14.302 24.8006 13.051 25.2245 11.8 25.2245H10V27.0281H11.8C13.033 27.0281 14.266 26.7125 15.4 26.1263C17.65 27.2987 20.35 27.2987 22.6 26.1263C23.734 26.7125 24.958 27.0281 26.2 27.0281H28V25.2245" fill="#011C2F" stroke="white" stroke-width="2" mask="url(#path-7-inside-1_34_2569)"/>
</svg>
