<svg width="30" height="30" viewBox="0 0 30 30" fill="none" xmlns="http://www.w3.org/2000/svg">
<path d="M10.8653 5.02248C11.2514 4.85362 11.7017 5.02978 11.8703 5.41659C12.0388 5.80337 11.8621 6.2538 11.4762 6.42277C9.99156 7.07208 8.68799 8.07649 7.67988 9.34727C6.67181 10.618 5.98963 12.1171 5.69308 13.7131C5.39656 15.3091 5.49429 16.9537 5.9784 18.5029C6.46251 20.0522 7.31841 21.4587 8.47029 22.6001C9.62224 23.7414 11.0357 24.5831 12.5869 25.0506C14.1381 25.518 15.7799 25.5974 17.3688 25.282C18.9578 24.9666 20.4459 24.266 21.7023 23.2412C22.9586 22.2165 23.9454 20.8984 24.5763 19.4031C24.7405 19.0146 25.1875 18.833 25.5753 18.9971C25.9634 19.1614 26.1454 19.61 25.9813 19.9988C25.2534 21.7239 24.115 23.2442 22.6655 24.4266C21.2159 25.609 19.4988 26.4176 17.6653 26.7815C15.8319 27.1455 13.9373 27.0537 12.1474 26.5143C10.3575 25.975 8.72667 25.0045 7.39754 23.6876C6.06841 22.3707 5.08133 20.7473 4.52274 18.9597C3.96416 17.1722 3.85131 15.2747 4.19347 13.4332C4.53563 11.5917 5.32254 9.86182 6.48571 8.39558C7.64876 6.9296 9.15254 5.77165 10.8653 5.02248Z" fill="white"/>
<path d="M15.3203 4C16.8541 4 18.3729 4.30179 19.7899 4.88874C21.207 5.47573 22.4944 6.33656 23.579 7.42116C24.6635 8.50576 25.5241 9.7932 26.1111 11.2103C26.698 12.6273 27 14.1461 27 15.6798C27 16.1097 26.6513 16.4583 26.2213 16.4583H15.3203C14.8903 16.4583 14.5417 16.1098 14.5417 15.6798V4.7785C14.5417 4.57203 14.6238 4.37407 14.7698 4.22808C14.9158 4.08208 15.1138 4 15.3203 4ZM16.0989 14.9013H25.4123C25.3303 13.8387 25.0814 12.794 24.6724 11.8063C24.1637 10.5782 23.4178 9.46199 22.4779 8.52201C21.538 7.58201 20.4218 6.83662 19.1938 6.32791C18.2061 5.91878 17.1616 5.66864 16.0989 5.58666V14.9013Z" fill="white"/>
</svg>
