<svg width="30" height="30" viewBox="0 0 30 30" fill="none" xmlns="http://www.w3.org/2000/svg">
<path d="M9.57061 23.0819C10.1487 23.0819 10.7268 23.0819 11.305 23.0819C12.6552 23.0819 14.0054 23.0819 15.3556 23.0819C16.9017 23.0819 18.4479 23.0819 19.994 23.0819C21.1598 23.0819 22.3257 23.0819 23.4915 23.0819C23.773 23.0819 24.0546 23.0819 24.3361 23.0819C24.6973 23.0819 24.9986 22.7816 24.9986 22.4217C24.9986 22.0618 24.6973 21.7615 24.3361 21.7615C23.758 21.7615 23.1799 21.7615 22.6017 21.7615C21.2515 21.7615 19.9013 21.7615 18.5511 21.7615C17.0049 21.7615 15.4588 21.7615 13.9127 21.7615C12.7468 21.7615 11.581 21.7615 10.4152 21.7615C10.1337 21.7615 9.85212 21.7615 9.57059 21.7615C9.20942 21.7615 8.90803 22.0618 8.90803 22.4217C8.90803 22.7816 9.20945 23.0819 9.57061 23.0819Z" fill="white"/>
<path d="M7.59159 21.1532C7.67933 21.1539 7.7662 21.1597 7.85323 21.1708C7.79452 21.1629 7.73582 21.155 7.67711 21.1472C7.77242 21.1609 7.86589 21.1807 7.95855 21.2069C8.00912 21.2212 8.05867 21.2388 8.10787 21.2572C8.17083 21.2822 8.147 21.272 8.03645 21.2264C8.06511 21.2388 8.09312 21.2525 8.12112 21.2662C8.20469 21.3072 8.28408 21.3561 8.36075 21.4086C8.50081 21.5046 8.24317 21.3096 8.37324 21.4183C8.41264 21.4512 8.44989 21.4866 8.48652 21.5226C8.51583 21.5513 8.54352 21.5817 8.57092 21.6122C8.58453 21.6276 8.59787 21.6432 8.61096 21.659C8.6898 21.7527 8.51018 21.5242 8.58292 21.6228C8.6442 21.7058 8.69666 21.795 8.74375 21.8867C8.76734 21.9325 8.8288 22.0817 8.74129 21.8708C8.76133 21.9191 8.77818 21.9687 8.79415 22.0185C8.82667 22.1196 8.84803 22.2241 8.86322 22.3291C8.85535 22.2706 8.84744 22.2121 8.83956 22.1536C8.86173 22.3275 8.86173 22.5011 8.83956 22.675C8.84744 22.6165 8.85535 22.558 8.86322 22.4995C8.84948 22.5945 8.8296 22.6876 8.80329 22.78C8.78892 22.8304 8.77125 22.8797 8.75277 22.9287C8.72769 22.9915 8.73798 22.9678 8.78367 22.8576C8.77127 22.8861 8.7575 22.914 8.74373 22.9419C8.70263 23.0252 8.6535 23.1043 8.60081 23.1807C8.50455 23.3203 8.70021 23.0636 8.5911 23.1932C8.55805 23.2324 8.52255 23.2696 8.48649 23.3061C8.45765 23.3353 8.42719 23.3629 8.39655 23.3902C8.3811 23.4037 8.36546 23.417 8.34958 23.43C8.25559 23.5086 8.48481 23.3296 8.38593 23.4021C8.30259 23.4632 8.21307 23.5154 8.12109 23.5624C8.07505 23.5859 7.92538 23.6471 8.13702 23.5599C8.08853 23.5799 8.03877 23.5967 7.98882 23.6126C7.88726 23.645 7.78248 23.6663 7.67709 23.6814C7.73579 23.6736 7.7945 23.6657 7.85321 23.6578C7.6787 23.6799 7.50444 23.6799 7.32993 23.6578C7.38864 23.6657 7.44735 23.6736 7.50608 23.6814C7.41074 23.6677 7.31727 23.6479 7.22463 23.6217C7.17407 23.6074 7.12452 23.5898 7.07532 23.5714C7.01238 23.5464 7.03618 23.5566 7.14674 23.6022C7.1181 23.5898 7.09006 23.5761 7.06207 23.5624C6.97852 23.5214 6.89911 23.4724 6.82244 23.4199C6.68238 23.324 6.94002 23.519 6.80995 23.4103C6.77055 23.3774 6.7333 23.342 6.69665 23.306C6.66733 23.2773 6.63965 23.2469 6.61224 23.2164C6.59864 23.201 6.58529 23.1854 6.57221 23.1696C6.49336 23.0759 6.67299 23.3044 6.60025 23.2058C6.53896 23.1228 6.4865 23.0335 6.43941 22.9419C6.41582 22.8961 6.35437 22.7469 6.44187 22.9578C6.42183 22.9095 6.40498 22.8599 6.38901 22.8101C6.3565 22.7089 6.33513 22.6045 6.31994 22.4995C6.32782 22.558 6.33572 22.6165 6.3436 22.675C6.32141 22.5011 6.32141 22.3275 6.3436 22.1536C6.33572 22.2121 6.32782 22.2706 6.31994 22.3291C6.33369 22.2341 6.35356 22.1409 6.37988 22.0486C6.39424 21.9982 6.41192 21.9489 6.4304 21.8998C6.45548 21.8371 6.44519 21.8608 6.39949 21.971C6.41189 21.9425 6.42566 21.9145 6.43944 21.8866C6.48054 21.8034 6.52966 21.7243 6.58236 21.6479C6.67862 21.5083 6.48295 21.765 6.59206 21.6354C6.62509 21.5961 6.66061 21.559 6.69667 21.5225C6.72554 21.4933 6.75599 21.4657 6.78664 21.4384C6.80209 21.4249 6.81773 21.4116 6.83361 21.3986C6.9276 21.32 6.69838 21.499 6.79726 21.4265C6.8806 21.3654 6.97012 21.3132 7.06209 21.2662C7.10814 21.2427 7.25781 21.1815 7.04617 21.2687C7.09468 21.2487 7.14442 21.2319 7.19437 21.216C7.29593 21.1836 7.40071 21.1623 7.5061 21.1472C7.44739 21.155 7.38869 21.1629 7.32996 21.1708C7.41701 21.1597 7.50388 21.1539 7.59159 21.1532C7.95271 21.1502 8.25415 20.8552 8.25415 20.493C8.25415 20.1354 7.95278 19.8297 7.59159 19.8328C6.91319 19.8385 6.272 20.1015 5.78169 20.5673C5.29414 21.0305 5.03018 21.6841 5.00202 22.3482C4.97344 23.0231 5.2497 23.676 5.69586 24.173C6.146 24.6745 6.79665 24.9412 7.45958 24.9914C8.14007 25.043 8.79695 24.773 9.31021 24.344C9.82951 23.91 10.0997 23.2679 10.1723 22.6108C10.2068 22.299 10.1625 21.9663 10.0719 21.6674C9.9668 21.3206 9.78959 21.031 9.5674 20.7492C9.15137 20.2217 8.50682 19.9331 7.85323 19.8503C7.7662 19.8393 7.67931 19.8335 7.59159 19.8328C7.23041 19.8297 6.92904 20.1354 6.92904 20.493C6.92904 20.8552 7.23048 21.1502 7.59159 21.1532Z" fill="white"/>
<path d="M20.7714 15.649C21.916 15.649 23.0606 15.649 24.2052 15.649C24.2488 15.649 24.2923 15.649 24.3359 15.649C24.6971 15.649 24.9984 15.3487 24.9984 14.9888C24.9984 14.6289 24.6971 14.3286 24.3359 14.3286C23.1913 14.3286 22.0467 14.3286 20.9021 14.3286C20.8585 14.3286 20.8149 14.3286 20.7714 14.3286C20.4102 14.3286 20.1088 14.6289 20.1088 14.9888C20.1088 15.3487 20.4102 15.649 20.7714 15.649Z" fill="white"/>
<path d="M5.66482 15.649C6.39212 15.649 7.11944 15.649 7.84673 15.649C9.34654 15.649 10.8464 15.649 12.3461 15.649C13.5953 15.649 14.8444 15.649 16.0935 15.649C16.3044 15.649 16.5153 15.649 16.7262 15.649C17.0874 15.649 17.3888 15.3487 17.3888 14.9888C17.3888 14.6289 17.0874 14.3286 16.7262 14.3286C15.9989 14.3286 15.2716 14.3286 14.5443 14.3286C13.0445 14.3286 11.5447 14.3286 10.0449 14.3286C8.7958 14.3286 7.54667 14.3286 6.29754 14.3286C6.08663 14.3286 5.87573 14.3286 5.66482 14.3286C5.30366 14.3286 5.00227 14.6289 5.00227 14.9888C5.00227 15.3487 5.30366 15.649 5.66482 15.649Z" fill="white"/>
<path d="M18.7553 13.7448C18.843 13.7455 18.9299 13.7513 19.0169 13.7623C18.9583 13.7545 18.8995 13.7466 18.8408 13.7387C18.9362 13.7524 19.0296 13.7722 19.1223 13.7985C19.1729 13.8128 19.2224 13.8304 19.2716 13.8488C19.3345 13.8738 19.3107 13.8635 19.2002 13.818C19.2288 13.8304 19.2568 13.8441 19.2848 13.8578C19.3684 13.8988 19.4478 13.9477 19.5245 14.0002C19.6645 14.0961 19.4069 13.9012 19.537 14.0099C19.5764 14.0428 19.6136 14.0782 19.6502 14.1141C19.6795 14.1429 19.7072 14.1732 19.7346 14.2038C19.7482 14.2192 19.7616 14.2348 19.7746 14.2506C19.8535 14.3442 19.6739 14.1158 19.7466 14.2144C19.8079 14.2974 19.8603 14.3866 19.9074 14.4783C19.931 14.5241 19.9925 14.6733 19.905 14.4624C19.925 14.5107 19.9419 14.5603 19.9578 14.6101C19.9904 14.7113 20.0117 14.8157 20.0269 14.9207C20.019 14.8622 20.0112 14.8037 20.0033 14.7452C20.0254 14.9191 20.0254 15.0927 20.0033 15.2666C20.0112 15.2081 20.019 15.1496 20.0269 15.0911C20.0132 15.1861 19.9933 15.2792 19.967 15.3716C19.9526 15.422 19.935 15.4713 19.9165 15.5203C19.8914 15.5831 19.9017 15.5594 19.9474 15.4492C19.935 15.4777 19.9212 15.5056 19.9074 15.5335C19.8663 15.6168 19.8172 15.6959 19.7645 15.7723C19.6683 15.9119 19.8639 15.6552 19.7548 15.7848C19.7218 15.824 19.6863 15.8612 19.6502 15.8977C19.6213 15.9269 19.5909 15.9545 19.5602 15.9818C19.5448 15.9953 19.5291 16.0086 19.5133 16.0216C19.4193 16.1002 19.6485 15.9212 19.5496 15.9937C19.4663 16.0548 19.3768 16.107 19.2848 16.154C19.2388 16.1775 19.0891 16.2387 19.3008 16.1515C19.2522 16.1715 19.2025 16.1883 19.1525 16.2042C19.051 16.2366 18.9462 16.2579 18.8408 16.273C18.8995 16.2652 18.9582 16.2573 19.0169 16.2494C18.8424 16.2715 18.6682 16.2715 18.4937 16.2494C18.5524 16.2573 18.6111 16.2652 18.6698 16.273C18.5745 16.2593 18.481 16.2395 18.3883 16.2133C18.3378 16.199 18.2882 16.1814 18.239 16.163C18.1761 16.138 18.1999 16.1482 18.3105 16.1938C18.2818 16.1814 18.2538 16.1677 18.2258 16.154C18.1422 16.113 18.0628 16.064 17.9862 16.0115C17.8461 15.9156 18.1037 16.1106 17.9737 16.0019C17.9343 15.969 17.897 15.9336 17.8604 15.8976C17.8311 15.8689 17.8034 15.8385 17.776 15.808C17.7624 15.7926 17.749 15.777 17.736 15.7612C17.6571 15.6675 17.8367 15.896 17.764 15.7974C17.7027 15.7144 17.6503 15.6251 17.6032 15.5335C17.5796 15.4877 17.5181 15.3385 17.6056 15.5494C17.5856 15.5011 17.5687 15.4515 17.5528 15.4017C17.5203 15.3005 17.4989 15.1961 17.4837 15.0911C17.4916 15.1496 17.4995 15.2081 17.5074 15.2666C17.4852 15.0927 17.4852 14.9191 17.5074 14.7452C17.4995 14.8037 17.4916 14.8622 17.4837 14.9207C17.4974 14.8257 17.5173 14.7325 17.5436 14.6402C17.558 14.5898 17.5757 14.5405 17.5941 14.4914C17.6192 14.4287 17.6089 14.4524 17.5632 14.5626C17.5756 14.5341 17.5894 14.5061 17.6032 14.4782C17.6443 14.395 17.6934 14.3158 17.7461 14.2395C17.8424 14.0999 17.6467 14.3566 17.7558 14.227C17.7888 14.1877 17.8243 14.1506 17.8604 14.1141C17.8893 14.0849 17.9197 14.0573 17.9504 14.03C17.9658 14.0164 17.9815 14.0031 17.9973 13.9901C18.0913 13.9115 17.8621 14.0905 17.961 14.018C18.0443 13.957 18.1339 13.9047 18.2258 13.8578C18.2718 13.8343 18.4215 13.773 18.2099 13.8602C18.2584 13.8403 18.3081 13.8235 18.3581 13.8076C18.4596 13.7752 18.5644 13.7539 18.6698 13.7387C18.6111 13.7466 18.5524 13.7545 18.4937 13.7623C18.5807 13.7513 18.6676 13.7455 18.7553 13.7448C19.1164 13.7417 19.4179 13.4468 19.4179 13.0846C19.4179 12.727 19.1165 12.4213 18.7553 12.4243C18.0769 12.43 17.4357 12.6931 16.9454 13.1589C16.4579 13.6221 16.1939 14.2757 16.1657 14.9398C16.1372 15.6146 16.4134 16.2675 16.8596 16.7646C17.3097 17.2661 17.9604 17.5327 18.6233 17.583C19.3038 17.6346 19.9607 17.3645 20.4739 16.9355C20.9932 16.5015 21.2635 15.8595 21.3361 15.2023C21.3705 14.8906 21.3262 14.5579 21.2357 14.259C21.1305 13.9121 20.9533 13.6225 20.7311 13.3408C20.3151 12.8133 19.6706 12.5247 19.017 12.4419C18.9299 12.4309 18.843 12.4251 18.7553 12.4243C18.3941 12.4213 18.0928 12.727 18.0928 13.0846C18.0928 13.4468 18.3942 13.7417 18.7553 13.7448Z" fill="white"/>
<path d="M13.6673 8.24084C14.415 8.24084 15.1627 8.24084 15.9103 8.24084C17.4199 8.24084 18.9295 8.24084 20.4391 8.24084C21.6103 8.24084 22.7816 8.24084 23.9529 8.24084C24.0804 8.24084 24.2079 8.24084 24.3355 8.24084C24.6967 8.24084 24.998 7.94051 24.998 7.58062C24.998 7.22074 24.6967 6.92041 24.3355 6.92041C23.5878 6.92041 22.8401 6.92041 22.0924 6.92041C20.5829 6.92041 19.0733 6.92041 17.5637 6.92041C16.3924 6.92041 15.2212 6.92041 14.0499 6.92041C13.9224 6.92041 13.7948 6.92041 13.6673 6.92041C13.3061 6.92041 13.0047 7.22074 13.0047 7.58062C13.0047 7.94051 13.3061 8.24084 13.6673 8.24084Z" fill="white"/>
<path d="M5.66482 8.24084C6.84282 8.24084 8.0208 8.24084 9.19879 8.24084C9.34006 8.24084 9.48133 8.24084 9.62259 8.24084C9.98376 8.24084 10.2851 7.94051 10.2851 7.58062C10.2851 7.22074 9.98376 6.92041 9.62259 6.92041C8.44459 6.92041 7.26662 6.92041 6.08862 6.92041C5.94736 6.92041 5.80609 6.92041 5.66482 6.92041C5.30366 6.92041 5.00227 7.22074 5.00227 7.58062C5.00227 7.94051 5.30366 8.24084 5.66482 8.24084Z" fill="white"/>
<path d="M11.6491 6.32045C11.7369 6.32118 11.8237 6.32696 11.9108 6.33799C11.8521 6.33014 11.7934 6.32226 11.7346 6.31441C11.83 6.32811 11.9234 6.34792 12.0161 6.37414C12.0666 6.38845 12.1162 6.40606 12.1654 6.42448C12.2283 6.44947 12.2045 6.43922 12.094 6.39369C12.1226 6.40604 12.1506 6.41976 12.1786 6.43349C12.2622 6.47444 12.3416 6.52339 12.4183 6.5759C12.5583 6.67182 12.3007 6.47685 12.4308 6.58557C12.4702 6.61849 12.5074 6.65388 12.544 6.68981C12.5734 6.71858 12.601 6.74893 12.6284 6.77946C12.642 6.79486 12.6554 6.81045 12.6685 6.82627C12.7473 6.91992 12.5677 6.69151 12.6404 6.79005C12.7017 6.87309 12.7542 6.96229 12.8013 7.05395C12.8249 7.09983 12.8863 7.24897 12.7988 7.03808C12.8189 7.08639 12.8357 7.13598 12.8517 7.18575C12.8842 7.28695 12.9056 7.39136 12.9207 7.49638C12.9129 7.43788 12.905 7.37938 12.8971 7.32086C12.9193 7.49476 12.9193 7.66839 12.8971 7.84229C12.905 7.78379 12.9129 7.72529 12.9207 7.66677C12.907 7.76177 12.8871 7.8549 12.8608 7.94721C12.8465 7.9976 12.8288 8.04698 12.8103 8.096C12.7852 8.15874 12.7955 8.135 12.8412 8.02484C12.8288 8.05339 12.815 8.08131 12.8013 8.1092C12.7602 8.19248 12.711 8.27159 12.6583 8.34799C12.5621 8.48755 12.7578 8.23082 12.6486 8.36044C12.6156 8.3997 12.5801 8.43681 12.544 8.47331C12.5152 8.50252 12.4847 8.53011 12.4541 8.55742C12.4386 8.57097 12.423 8.58427 12.4071 8.59731C12.3131 8.67588 12.5424 8.49689 12.4435 8.56937C12.3601 8.63044 12.2706 8.68272 12.1786 8.72964C12.1326 8.75315 11.9829 8.81438 12.1946 8.72719C12.1461 8.74716 12.0963 8.76395 12.0464 8.77986C11.9448 8.81226 11.84 8.83355 11.7346 8.84869C11.7933 8.84084 11.852 8.83296 11.9108 8.82511C11.7363 8.84723 11.562 8.84723 11.3875 8.82511C11.4462 8.83296 11.5049 8.84084 11.5636 8.84869C11.4683 8.83499 11.3748 8.81518 11.2822 8.78896C11.2316 8.77465 11.1821 8.75704 11.1329 8.73862C11.0699 8.71363 11.0937 8.72388 11.2043 8.76942C11.1757 8.75706 11.1476 8.74334 11.1196 8.72961C11.0361 8.68866 10.9567 8.63971 10.88 8.5872C10.7399 8.49128 10.9976 8.68625 10.8675 8.57753C10.8281 8.54459 10.7909 8.50922 10.7542 8.47329C10.7249 8.44454 10.6972 8.4142 10.6698 8.38366C10.6562 8.36827 10.6429 8.35268 10.6298 8.33686C10.5509 8.2432 10.7306 8.47161 10.6578 8.37308C10.5965 8.29003 10.5441 8.20083 10.497 8.10918C10.4734 8.06332 10.4119 7.91416 10.4994 8.12505C10.4794 8.07673 10.4625 8.02715 10.4466 7.97737C10.4141 7.87617 10.3927 7.77176 10.3775 7.66674C10.3854 7.72524 10.3933 7.78374 10.4012 7.84226C10.379 7.66837 10.379 7.49473 10.4012 7.32084C10.3933 7.37934 10.3854 7.43784 10.3775 7.49636C10.3913 7.40136 10.4111 7.30822 10.4374 7.21591C10.4518 7.16552 10.4695 7.11615 10.488 7.06713C10.513 7.00441 10.5028 7.02813 10.4571 7.13829C10.4695 7.10976 10.4832 7.08182 10.497 7.05392C10.5381 6.97066 10.5872 6.89153 10.6399 6.81514C10.7362 6.67557 10.5405 6.9323 10.6496 6.80269C10.6827 6.76343 10.7182 6.72632 10.7542 6.68979C10.7831 6.66058 10.8136 6.63299 10.8442 6.60568C10.8597 6.59213 10.8753 6.57883 10.8912 6.56579C10.9852 6.48722 10.7559 6.66621 10.8548 6.59373C10.9382 6.53266 11.0277 6.48039 11.1197 6.43346C11.1657 6.40996 11.3154 6.34872 11.1037 6.43592C11.1522 6.41594 11.202 6.39916 11.2519 6.38324C11.3535 6.35084 11.4583 6.32955 11.5637 6.31441C11.505 6.32226 11.4463 6.33014 11.3875 6.33799C11.4745 6.32696 11.5614 6.32118 11.6491 6.32045C12.0103 6.31741 12.3117 6.02243 12.3117 5.66024C12.3117 5.30264 12.0103 4.99698 11.6491 5.00002C10.9707 5.00573 10.3295 5.26875 9.83923 5.73458C9.35168 6.19777 9.08772 6.85138 9.05957 7.51551C9.03098 8.19031 9.30724 8.84322 9.7534 9.34026C10.2035 9.84174 10.8542 10.1084 11.5171 10.1587C12.1976 10.2103 12.8545 9.94023 13.3678 9.51124C13.8871 9.07722 14.1573 8.43518 14.2299 7.77801C14.2643 7.46627 14.2201 7.13357 14.1295 6.83471C14.0243 6.48781 13.8471 6.19819 13.6249 5.91647C13.2089 5.38894 12.5644 5.10035 11.9108 5.01757C11.8237 5.00655 11.7369 5.00078 11.6491 5.00002C11.2879 4.99698 10.9866 5.30264 10.9866 5.66024C10.9866 6.02241 11.288 6.31741 11.6491 6.32045Z" fill="white"/>
</svg>
