<svg width="16" height="16" viewBox="0 0 16 16" fill="none" xmlns="http://www.w3.org/2000/svg">
<path d="M14.6667 16L10.625 11.9688C9.45833 12.8554 8.13889 13.2987 6.66667 13.2987C5.47222 13.2987 4.36111 13.0078 3.33333 12.426C2.30556 11.8164 1.5 10.9991 0.916667 9.97403C0.305556 8.94892 0 7.84069 0 6.64935C0 5.45801 0.305556 4.34978 0.916667 3.32468C1.5 2.29957 2.30556 1.4961 3.33333 0.914286C4.36111 0.304762 5.47222 0 6.66667 0C7.86111 0 8.97222 0.304762 10 0.914286C11.0278 1.4961 11.8472 2.29957 12.4583 3.32468C13.0417 4.34978 13.3333 5.45801 13.3333 6.64935C13.3333 8.14545 12.875 9.47532 11.9583 10.639L16 14.6701L14.6667 16ZM6.625 11.3455C7.93056 11.3455 9.04167 10.8883 9.95833 9.97403C10.8472 9.05974 11.2917 7.96537 11.2917 6.69091C11.2917 5.38874 10.8472 4.29437 9.95833 3.40779C9.04167 2.49351 7.93056 2.03636 6.625 2.03636C5.34722 2.03636 4.25 2.49351 3.33333 3.40779C2.41667 4.29437 1.95833 5.38874 1.95833 6.69091C1.95833 7.96537 2.41667 9.05974 3.33333 9.97403C4.25 10.8883 5.34722 11.3455 6.625 11.3455Z" fill="white"/>
</svg>
