<svg width="20" height="20" viewBox="0 0 20 20" fill="none" xmlns="http://www.w3.org/2000/svg">
<path d="M12.75 4.70898C12.7506 4.60542 12.7311 4.50228 12.6924 4.40625C12.6536 4.31016 12.5961 4.22231 12.5234 4.14844C12.4508 4.07457 12.3642 4.0155 12.2686 3.97559C12.173 3.93573 12.0703 3.9154 11.9668 3.91602C11.8631 3.91669 11.7602 3.93835 11.665 3.97949C11.5709 4.02021 11.4865 4.08033 11.415 4.1543L11.4141 4.15332L6.95215 8.68945C6.60906 9.03919 6.41699 9.5127 6.41699 10.0049C6.41708 10.4354 6.5636 10.8512 6.83008 11.1826L6.95215 11.3193L11.4141 15.8555L11.417 15.8584C11.5633 16.0032 11.7609 16.0843 11.9668 16.083C12.1729 16.0817 12.3692 15.9974 12.5137 15.8506C12.6579 15.7039 12.7389 15.5065 12.7402 15.3008C12.7412 15.1463 12.6975 14.9955 12.6152 14.8672L12.5205 14.7471L12.5186 14.7451L8.05566 10.209C8.0032 10.1555 7.97276 10.0821 7.97266 10.0049C7.97266 9.92745 8.00306 9.85338 8.05566 9.7998L12.5186 5.26367C12.5911 5.19121 12.6489 5.10533 12.6885 5.01074C12.7284 4.91523 12.7493 4.81253 12.75 4.70898Z" fill="#02908B" stroke="#02908B" stroke-width="0.5"/>
<circle cx="10" cy="10" r="9.25" transform="matrix(-1 0 0 1 20 0)" stroke="#02908B" stroke-width="1.5"/>
</svg>
