<svg width="30" height="30" viewBox="0 0 30 30" fill="none" xmlns="http://www.w3.org/2000/svg">
<path d="M3.21777 23.9941H25.7822C26.0491 23.9942 26.2777 24.0826 26.4639 24.2588C26.6474 24.4325 26.7354 24.6481 26.7354 24.916C26.7353 25.1794 26.6384 25.3976 26.4492 25.5879C26.2606 25.7776 26.0318 25.8749 25.7822 25.875H3.23047C2.96925 25.875 2.75267 25.7781 2.56348 25.5879C2.37154 25.3948 2.26473 25.1759 2.26465 24.916C2.26465 24.6661 2.36019 24.4453 2.55273 24.2402C2.72215 24.0714 2.94731 23.9942 3.21777 23.9941ZM14.5059 12.0547C15.6733 12.0547 16.7543 12.3478 17.751 12.9346C18.7485 13.5219 19.539 14.3168 20.123 15.3203C20.7064 16.3228 20.998 17.4105 20.998 18.585C20.998 19.625 20.779 20.5632 20.3193 21.4277C20.2729 21.5118 20.2229 21.5381 20.1689 21.5381H18.0625C18.0517 21.5381 18.0421 21.5357 18.0342 21.5342C18.0435 21.516 18.0573 21.49 18.0791 21.457C18.7491 20.6388 19.0917 19.6805 19.0918 18.585C19.0918 17.3192 18.6583 16.2269 17.7539 15.3301C16.851 14.4348 15.7659 13.9854 14.5059 13.9854C13.2461 13.9854 12.1616 14.435 11.2588 15.3301C10.3557 16.2257 9.89551 17.3174 9.89551 18.585C9.89559 19.6725 10.2398 20.6347 10.9141 21.4668V21.4678L10.9229 21.4766C10.9435 21.4973 10.9554 21.5177 10.9648 21.5322C10.9547 21.534 10.9415 21.5381 10.9248 21.5381H8.85547C8.79037 21.538 8.74926 21.5255 8.72461 21.5107C8.70213 21.4973 8.6864 21.4783 8.67676 21.4492L8.67383 21.4404L8.66992 21.4316L8.52051 21.1152C8.19475 20.3639 8.02641 19.5183 8.02637 18.585C8.02637 17.4095 8.3067 16.3221 8.88965 15.3203C9.47359 14.317 10.2634 13.5219 11.2607 12.9346C12.2573 12.3478 13.3385 12.0547 14.5059 12.0547ZM2.10254 17.6504H4.67969C4.94829 17.6504 5.17365 17.7394 5.33203 17.9092L5.33496 17.9121C5.50834 18.0865 5.5957 18.3039 5.5957 18.5723C5.59567 18.8399 5.50836 19.0586 5.33203 19.2471C5.1594 19.4315 4.94534 19.5186 4.67969 19.5186H2.10254C1.83676 19.5185 1.60744 19.4314 1.4082 19.2422V19.2412L1.40527 19.2393L1.33789 19.1719C1.19169 19.0114 1.12507 18.8187 1.125 18.585C1.125 18.2923 1.22436 18.067 1.41504 17.9072L1.4209 17.9023L1.42578 17.8965C1.56951 17.7416 1.79288 17.6504 2.10254 17.6504ZM24.3203 17.6504H26.9092C27.1762 17.6504 27.4055 17.7388 27.5918 17.915C27.778 18.0913 27.875 18.3082 27.875 18.5723C27.875 18.8357 27.7781 19.0538 27.5889 19.2441C27.3892 19.4327 27.1725 19.5186 26.9092 19.5186H24.3203C24.0678 19.5186 23.8529 19.4322 23.6797 19.2471L23.6777 19.2441L23.6162 19.1768C23.4834 19.0149 23.4161 18.8196 23.416 18.585C23.416 18.2759 23.5054 18.0612 23.6738 17.9023L23.6748 17.9033L23.6807 17.8965C23.8263 17.7398 24.0388 17.6504 24.3203 17.6504ZM5.7334 8.80176C5.96156 8.80177 6.15505 8.87534 6.32617 9.02832L6.39844 9.09863L6.40039 9.10059L8.18359 10.9199L8.19043 10.9258C8.38402 11.0989 8.47063 11.3129 8.4707 11.5801C8.4707 11.8617 8.38282 12.0791 8.20996 12.2529C8.03664 12.4272 7.8209 12.5146 7.55469 12.5146C7.31598 12.5146 7.09703 12.4281 6.89453 12.2471L5.05273 10.4199L5.05078 10.417L4.99512 10.3594C4.87413 10.2169 4.80469 10.0195 4.80469 9.74805C4.80474 9.48966 4.8733 9.30315 4.99512 9.16211L5.05078 9.10449L5.05664 9.09863C5.24399 8.8992 5.47115 8.80176 5.7334 8.80176ZM23.2539 8.80176C23.5345 8.80176 23.7605 8.89033 23.9316 9.07324L23.9336 9.07617C24.1201 9.26373 24.207 9.48095 24.207 9.74805C24.207 10.0072 24.1384 10.2048 24.0146 10.3574L23.96 10.4189L22.0889 12.251C21.9172 12.4122 21.7021 12.4902 21.4453 12.4902V12.4893L21.4404 12.4902C21.1985 12.5 21.0031 12.434 20.8418 12.3076L20.7754 12.25C20.6183 12.0905 20.5293 11.863 20.5293 11.5801C20.5294 11.3119 20.6169 11.0952 20.79 10.9209L20.791 10.9199L22.5752 9.10059L22.5771 9.09863C22.7645 8.89916 22.9917 8.80184 23.2539 8.80176ZM14.5059 5.125C14.7341 5.125 14.9299 5.19889 15.1113 5.34668L15.1885 5.41504C15.3748 5.60369 15.4717 5.83295 15.4717 6.09668V8.70117C15.4717 8.96312 15.3759 9.18206 15.1855 9.38574C14.9858 9.5866 14.7698 9.67285 14.5059 9.67285C14.2447 9.67277 14.028 9.576 13.8389 9.38574C13.6514 9.18489 13.5654 8.96659 13.5654 8.70117V6.09668C13.5654 5.83004 13.6525 5.6108 13.8418 5.40918C14.0276 5.21154 14.2417 5.12507 14.5059 5.125Z" fill="#04C2C3" stroke="#011C2F" stroke-width="0.25"/>
</svg>
