<svg width="30" height="30" viewBox="0 0 30 30" fill="none" xmlns="http://www.w3.org/2000/svg">
<path d="M16.8438 7.2959L12.8623 11.3086L11.5176 9.95312L12.8652 8.59668L13.2041 8.25586H9.1748C7.47515 8.25597 6.09961 9.64432 6.09961 11.3535C6.09978 13.0626 7.47525 14.4511 9.1748 14.4512H21.8252C24.5713 14.4513 26.7998 16.6953 26.7998 19.4668C26.7996 22.238 24.5711 24.4823 21.8252 24.4824H11.7119L11.665 24.6162C11.2183 25.8896 10.0132 26.7998 8.59961 26.7998C6.80633 26.7996 5.34961 25.3337 5.34961 23.5225C5.34986 21.7115 6.80649 20.2463 8.59961 20.2461C10.0133 20.2461 11.2183 21.1562 11.665 22.4297L11.7119 22.5635H21.8252C23.5247 22.5634 24.9002 21.1758 24.9004 19.4668C24.9004 17.7576 23.5249 16.3692 21.8252 16.3691H9.1748C6.42885 16.369 4.20037 14.1248 4.2002 11.3535C4.2002 8.58207 6.42875 6.338 9.1748 6.33789H13.2041L12.8652 5.99707L11.5186 4.63867L12.8633 3.2832L16.8438 7.2959ZM8.59961 22.1641C7.85289 22.1643 7.25025 22.7737 7.25 23.5225C7.25 24.2714 7.85273 24.8816 8.59961 24.8818C9.34666 24.8818 9.9502 24.2716 9.9502 23.5225C9.94994 22.7736 9.34651 22.1641 8.59961 22.1641ZM22.4004 4.01953C24.1937 4.01974 25.6504 5.48566 25.6504 7.29688C25.6503 9.10798 24.1936 10.573 22.4004 10.5732C20.607 10.5732 19.1505 9.10811 19.1504 7.29688C19.1504 5.48552 20.6069 4.01953 22.4004 4.01953ZM22.4004 5.9375C21.6533 5.9375 21.0498 6.54778 21.0498 7.29688C21.0499 8.04585 21.6534 8.65527 22.4004 8.65527C23.1472 8.65506 23.7499 8.04572 23.75 7.29688C23.75 6.54791 23.1473 5.93771 22.4004 5.9375Z" fill="#04C2C3" stroke="#011C2F" stroke-width="0.4"/>
</svg>
