<svg width="32" height="32" viewBox="0 0 32 32" fill="none" xmlns="http://www.w3.org/2000/svg">
<circle cx="16" cy="16" r="16" fill="#FFAA46"/>
<path d="M7.95672 24.653L22.8139 13.3877L24.2669 30.2649L15.9265 25.8981L7.18408 30.2649L7.95672 24.653Z" fill="#965912"/>
<path fill-rule="evenodd" clip-rule="evenodd" d="M16.1492 0.979598C16.5726 0.985161 16.9628 1.20983 17.1802 1.57318L23.8124 12.6573C23.9044 12.8112 23.9615 12.9834 23.9794 13.1617L25.6877 30.1423C25.7326 30.5888 25.5288 31.024 25.1569 31.2753C24.7851 31.5267 24.3053 31.5536 23.9076 31.3454L16.1201 27.268L7.93601 31.356C7.53823 31.5547 7.06385 31.5213 6.69785 31.2688C6.33184 31.0163 6.13217 30.5847 6.17668 30.1423L7.88496 13.1617C7.90399 12.9726 7.96694 12.7905 8.06878 12.63L15.1029 1.54589C15.3298 1.18837 15.7258 0.974035 16.1492 0.979598ZM10.2842 13.6936L8.82648 28.1833L15.5879 24.806C15.9385 24.6308 16.3519 24.6348 16.6991 24.8166L23.0328 28.1327L21.5785 13.6768L16.1026 4.5251L10.2842 13.6936Z" fill="black"/>
</svg>
