<svg width="32" height="32" viewBox="0 0 32 32" fill="none" xmlns="http://www.w3.org/2000/svg">
<path d="M24.3334 14.4095L16.0981 1.33398L8.33337 14.4095V30.6673L16.0981 23.6112L24.3334 30.6673V14.4095Z" fill="white"/>
<path fill-rule="evenodd" clip-rule="evenodd" d="M16.0805 0.000114727C15.6163 0.00619385 15.1886 0.253337 14.9516 0.652544L7.18685 13.7281C7.06451 13.9341 6.99995 14.1693 6.99995 14.4089V30.6667C6.99995 31.1944 7.31118 31.6724 7.79376 31.886C8.27634 32.0995 8.83945 32.0083 9.22999 31.6534L16.1239 25.3886L23.4658 31.6792C23.8611 32.0179 24.4175 32.0956 24.8905 31.878C25.3636 31.6604 25.6666 31.1873 25.6666 30.6667V14.4089C25.6666 14.1574 25.5955 13.9111 25.4615 13.6983L17.2262 0.622759C16.9788 0.229896 16.5448 -0.00596431 16.0805 0.000114727ZM23 14.7938V27.7684L16.9655 22.598C16.455 22.1607 15.6988 22.1717 15.2013 22.6238L9.66662 27.6534V14.7749L16.1314 3.88834L23 14.7938Z" fill="black"/>
<path d="M12.3621 15.9709C12.3621 18.1642 14.1402 19.9422 16.3335 19.9422C18.5268 19.9422 20.3048 18.1642 20.3048 15.9709C20.3048 13.7775 18.5268 11.9995 16.3335 11.9995C14.1402 11.9995 12.3621 13.7775 12.3621 15.9709Z" fill="#FF1616"/>
</svg>
