<svg width="26" height="26" viewBox="0 0 26 26" fill="none" xmlns="http://www.w3.org/2000/svg">
<path d="M25 24.6436C25 24.9972 24.8595 25.3364 24.6095 25.5864C24.3594 25.8365 24.0203 25.9769 23.6667 25.9769H2.33333C1.97971 25.9769 1.64057 25.8365 1.39052 25.5864C1.14048 25.3364 1 24.9972 1 24.6436V10.6303C0.999859 10.4271 1.04616 10.2265 1.13535 10.044C1.22455 9.86143 1.35429 9.70168 1.51467 9.57692L12.1813 1.28093C12.4154 1.09885 12.7035 1 13 1C13.2965 1 13.5846 1.09885 13.8187 1.28093L24.4853 9.57692C24.6457 9.70168 24.7754 9.86143 24.8646 10.044C24.9538 10.2265 25.0001 10.4271 25 10.6303V24.6436Z" fill="#FFC700"/>
<path d="M19.8571 17.4285C19.468 17.4058 19.0944 17.2678 18.7839 17.0321C18.4734 16.7964 18.24 16.4736 18.1135 16.1049C18.0757 15.9914 18.0031 15.8926 17.9061 15.8226C17.8092 15.7525 17.6926 15.7146 17.573 15.7143C17.4533 15.714 17.3366 15.7513 17.2393 15.8208C17.1419 15.8904 17.0689 15.9888 17.0304 16.1021C16.9041 16.4714 16.6708 16.7948 16.3601 17.031C16.0494 17.2672 15.6754 17.4056 15.2857 17.4285C14.8965 17.4058 14.5229 17.2678 14.2124 17.0321C13.9019 16.7964 13.6686 16.4736 13.5421 16.1049C13.5036 15.9914 13.4307 15.8928 13.3336 15.8228C13.2364 15.7528 13.1198 15.7148 13 15.7142C12.8804 15.7133 12.7636 15.7504 12.6664 15.8201C12.5691 15.8898 12.4965 15.9885 12.459 16.1021C12.3327 16.4714 12.0994 16.7948 11.7886 17.031C11.4779 17.2672 11.1039 17.4056 10.7143 17.4285C10.3251 17.4058 9.95151 17.2678 9.64101 17.0321C9.33051 16.7964 9.09717 16.4736 8.97069 16.1049C8.93222 15.9914 8.85931 15.8928 8.76214 15.8228C8.66496 15.7528 8.54835 15.7148 8.42857 15.7142C8.30858 15.7117 8.19099 15.7481 8.09344 15.818C7.99589 15.8879 7.92365 15.9876 7.88754 16.1021C7.76128 16.4714 7.52793 16.7948 7.21722 17.031C6.90651 17.2672 6.5325 17.4056 6.14286 17.4285H5V18.5714H6.14286C6.58633 18.5753 7.02447 18.4745 7.42164 18.2772C7.81882 18.0799 8.16381 17.7916 8.42857 17.4358C8.59444 17.6479 8.78644 17.8382 9 18.0022C9 19.063 9.42143 20.0805 10.1716 20.8306C10.9217 21.5808 11.9391 22.0022 13 22.0022C14.0609 22.0022 15.0783 21.5808 15.8284 20.8306C16.5786 20.0805 17 19.063 17 18.0022C17.2136 17.8382 17.4056 17.6479 17.5714 17.4358C17.8362 17.7916 18.1812 18.0799 18.5784 18.2772C18.9755 18.4745 19.4137 18.5753 19.8571 18.5714H21V17.4285H19.8571ZM13 20.8571C12.3338 20.8558 11.6889 20.6218 11.1769 20.1955C10.6649 19.7693 10.3178 19.1775 10.1957 18.5226C10.3668 18.5539 10.5403 18.5703 10.7143 18.5714C11.1578 18.5753 11.5959 18.4745 11.9931 18.2772C12.3902 18.0799 12.7352 17.7916 13 17.4358C13.2648 17.7916 13.6098 18.0799 14.0069 18.2772C14.4041 18.4745 14.8422 18.5753 15.2857 18.5714C15.4597 18.5703 15.6332 18.5539 15.8043 18.5226C15.6822 19.1775 15.3351 19.7693 14.8231 20.1955C14.3111 20.6218 13.6662 20.8558 13 20.8571Z" fill="black"/>
<path d="M15.3257 9.334C15.3005 9.04884 15.1698 8.78334 14.9592 8.58946C14.7485 8.39558 14.4732 8.28726 14.1869 8.28571H13.5714V6H12.4285V8.28571H11.81C11.5294 8.28522 11.2585 8.38821 11.0491 8.57498C10.8397 8.76176 10.7066 9.01919 10.6752 9.298L9.73169 15.7143H10.8865L11.3063 12.8571H14.6899L15.1099 15.7143H16.2648L15.3257 9.334ZM11.4743 11.7143L11.8101 9.42857L14.1912 9.46429L14.5219 11.7143H11.4743Z" fill="black"/>
</svg>
