<svg width="30" height="30" viewBox="0 0 30 30" fill="none" xmlns="http://www.w3.org/2000/svg">
<path d="M26 6.14183C26.0014 5.32434 25.6981 4.53858 25.1546 3.95195C24.6111 3.36532 23.8704 3.02419 23.0904 3.00124C22.3103 2.97828 21.5525 3.27532 20.9785 3.82906C20.4044 4.3828 20.0594 5.14948 20.017 5.96576L10.6898 7.91958C10.4717 7.44478 10.1428 7.03524 9.73365 6.7288C9.32447 6.42236 8.84815 6.22891 8.34873 6.16633C7.8493 6.10375 7.34286 6.17405 6.87623 6.37075C6.4096 6.56744 5.99783 6.88417 5.67896 7.29168C5.36009 7.69919 5.14442 8.18432 5.05188 8.70224C4.95934 9.22016 4.99292 9.75417 5.1495 10.2549C5.30609 10.7556 5.58063 11.2069 5.94776 11.5671C6.31489 11.9273 6.76277 12.1847 7.24999 12.3156V18.8243C6.73833 18.9618 6.27049 19.2386 5.89397 19.6267C5.51746 20.0148 5.24568 20.5004 5.10622 21.0341C4.96676 21.5678 4.96459 22.1307 5.09993 22.6656C5.23527 23.2004 5.5033 23.6883 5.87681 24.0796C6.25032 24.4708 6.71601 24.7516 7.2266 24.8934C7.73719 25.0352 8.27451 25.0329 8.78399 24.8868C9.29347 24.7407 9.75698 24.456 10.1275 24.0616C10.4979 23.6672 10.7622 23.1771 10.8934 22.6411H17.1066C17.2313 23.1519 17.4769 23.6215 17.8208 24.0065C18.1646 24.3916 18.5956 24.6796 19.0739 24.8439C19.5521 25.0082 20.0622 25.0435 20.5569 24.9466C21.0517 24.8496 21.5151 24.6236 21.9043 24.2893C22.2936 23.9551 22.5961 23.5234 22.7839 23.0342C22.9717 22.545 23.0387 22.0141 22.9787 21.4906C22.9188 20.9671 22.7338 20.4679 22.4408 20.0392C22.1479 19.6104 21.7565 19.2659 21.3028 19.0376L23.1681 9.26686C23.9317 9.22302 24.6504 8.87493 25.1769 8.29392C25.7034 7.7129 25.9979 6.94295 26 6.14183ZM23 4.57047C23.2967 4.57047 23.5867 4.66263 23.8334 4.83529C24.08 5.00796 24.2723 5.25337 24.3858 5.5405C24.4993 5.82762 24.5291 6.14357 24.4712 6.44838C24.4133 6.7532 24.2704 7.03319 24.0607 7.25294C23.8509 7.4727 23.5836 7.62236 23.2926 7.68299C23.0017 7.74362 22.7001 7.7125 22.426 7.59357C22.1519 7.47464 21.9176 7.27323 21.7528 7.01483C21.588 6.75642 21.5 6.45261 21.5 6.14183C21.5005 5.72523 21.6586 5.32582 21.9398 5.03124C22.221 4.73666 22.6023 4.57095 23 4.57047ZM6.49999 9.28454C6.49999 8.97375 6.58797 8.66995 6.75279 8.41154C6.91761 8.15313 7.15188 7.95173 7.42597 7.8328C7.70006 7.71386 8.00166 7.68274 8.29263 7.74338C8.5836 7.80401 8.85088 7.95366 9.06065 8.17342C9.27043 8.39318 9.41329 8.67317 9.47117 8.97798C9.52905 9.2828 9.49934 9.59874 9.38581 9.88587C9.27228 10.173 9.08002 10.4184 8.83335 10.5911C8.58668 10.7637 8.29667 10.8559 7.99999 10.8559C7.60231 10.8554 7.22104 10.6897 6.93984 10.3951C6.65863 10.1005 6.50045 9.70114 6.49999 9.28454ZM7.99999 23.4267C7.70332 23.4267 7.41331 23.3346 7.16664 23.1619C6.91996 22.9893 6.72771 22.7438 6.61417 22.4567C6.50064 22.1696 6.47094 21.8536 6.52882 21.5488C6.58669 21.244 6.72955 20.964 6.93933 20.7443C7.14911 20.5245 7.41639 20.3748 7.70736 20.3142C7.99833 20.2536 8.29993 20.2847 8.57402 20.4036C8.84811 20.5226 9.08238 20.724 9.2472 20.9824C9.41202 21.2408 9.49999 21.5446 9.49999 21.8554C9.49954 22.272 9.34136 22.6714 9.06015 22.966C8.77894 23.2606 8.39768 23.4263 7.99999 23.4267ZM17.1066 21.0697H10.8934C10.7591 20.5296 10.4896 20.0367 10.1128 19.642C9.73605 19.2473 9.26561 18.9651 8.74999 18.8243V12.3156C9.36279 12.1487 9.90919 11.7823 10.3105 11.2692C10.7118 10.7561 10.9472 10.1229 10.983 9.46061L20.3102 7.50679C20.6043 8.13998 21.0927 8.65152 21.6972 8.95958L19.8319 18.7303C19.1997 18.7678 18.5952 19.0145 18.1055 19.4349C17.6157 19.8553 17.2659 20.4277 17.1066 21.0697ZM20 23.4267C19.7033 23.4267 19.4133 23.3346 19.1666 23.1619C18.92 22.9893 18.7277 22.7438 18.6142 22.4567C18.5006 22.1696 18.4709 21.8536 18.5288 21.5488C18.5867 21.244 18.7296 20.964 18.9393 20.7443C19.1491 20.5245 19.4164 20.3748 19.7074 20.3142C19.9983 20.2536 20.2999 20.2847 20.574 20.4036C20.8481 20.5226 21.0824 20.724 21.2472 20.9824C21.412 21.2408 21.5 21.5446 21.5 21.8554C21.4995 22.272 21.3414 22.6714 21.0602 22.966C20.7789 23.2606 20.3977 23.4263 20 23.4267Z" fill="white"/>
</svg>
