<svg width="24" height="24" viewBox="0 0 24 24" fill="none" xmlns="http://www.w3.org/2000/svg">
<path d="M1 21L12 2L23 21H1ZM3.69986 19.4397H20.3001L12 5.12066L3.69986 19.4397ZM11.9969 18.0873C12.2426 18.0873 12.447 18.0067 12.6101 17.8453C12.7733 17.6838 12.8549 17.4801 12.8549 17.2344C12.8549 16.9887 12.7743 16.7841 12.6131 16.6207C12.4519 16.4575 12.2486 16.3759 12.0031 16.3759C11.7574 16.3759 11.553 16.4566 11.3899 16.6179C11.2267 16.7793 11.1451 16.9828 11.1451 17.2286C11.1451 17.4743 11.2257 17.6789 11.3869 17.8423C11.5481 18.0057 11.7514 18.0873 11.9969 18.0873ZM11.2317 15.2829H12.7906V9.77405H11.2317V15.2829Z" fill="white"/>
</svg>
