<svg width="32" height="32" viewBox="0 0 32 32" fill="none" xmlns="http://www.w3.org/2000/svg">
<path d="M9.10754 12.9075L16.4863 1.28015L23.4434 12.9075L25.2354 30.7201L16.4863 26.1393L7.31555 30.7201L9.10754 12.9075Z" fill="#7461E3"/>
<path fill-rule="evenodd" clip-rule="evenodd" d="M16.5032 0.00011089C16.9473 0.00594661 17.3567 0.241622 17.5848 0.622782L24.5419 12.2501C24.6384 12.4115 24.6982 12.5921 24.7171 12.7792L26.5091 30.5919C26.5562 31.0603 26.3423 31.5168 25.9523 31.7805C25.5622 32.0441 25.0589 32.0724 24.6418 31.854L16.4727 27.5768L7.88762 31.8651C7.47035 32.0735 6.97273 32.0385 6.58879 31.7736C6.20486 31.5087 5.9954 31.056 6.04209 30.5919L7.83407 12.7792C7.85403 12.5808 7.92006 12.3898 8.0269 12.2215L15.4057 0.594149C15.6437 0.219113 16.0591 -0.00572483 16.5032 0.00011089ZM10.3508 13.3372L8.82172 28.5369L15.9144 24.9941C16.2822 24.8103 16.7159 24.8145 17.0801 25.0052L23.7241 28.4838L22.1985 13.3195L16.4543 3.71936L10.3508 13.3372Z" fill="black"/>
<path d="M8.09065 24.8334L23.6757 13.0161L25.2 30.7203L16.4509 26.1395L7.28015 30.7203L8.09065 24.8334Z" fill="#5743C9"/>
<path fill-rule="evenodd" clip-rule="evenodd" d="M16.4676 0.00011089C16.9117 0.00594661 17.3211 0.241622 17.5491 0.622782L24.5062 12.2501C24.6028 12.4115 24.6626 12.5921 24.6814 12.7792L26.4734 30.5919C26.5205 31.0603 26.3067 31.5168 25.9166 31.7805C25.5266 32.0441 25.0232 32.0724 24.6061 31.854L16.437 27.5768L7.85198 31.8651C7.4347 32.0735 6.93708 32.0385 6.55315 31.7736C6.16922 31.5087 5.95976 31.056 6.00645 30.5919L7.79843 12.7792C7.81839 12.5808 7.88442 12.3898 7.99126 12.2215L15.37 0.594149C15.608 0.219113 16.0234 -0.00572483 16.4676 0.00011089ZM10.3152 13.3372L8.78608 28.5369L15.8788 24.9941C16.2466 24.8103 16.6802 24.8145 17.0445 25.0052L23.6884 28.4838L22.1629 13.3195L16.4187 3.71936L10.3152 13.3372Z" fill="black"/>
</svg>
