<svg width="32" height="32" viewBox="0 0 32 32" fill="none" xmlns="http://www.w3.org/2000/svg">
<path d="M10.8341 12.126C12.9236 5.88508 16.6474 1.39062 16.6474 1.39062C16.6474 1.39062 19.1819 5.1695 21.8155 12.126C24.4491 19.0824 25.0121 23.8665 25.4781 30.608L16.6474 24.2409L7.39111 30.608C7.85663 23.8735 8.67509 18.5748 10.8341 12.126Z" fill="#624BC8"/>
<path fill-rule="evenodd" clip-rule="evenodd" d="M17.8031 0.616327L16.6476 1.39131L15.5762 0.503658C15.8563 0.165627 16.2795 -0.0204012 16.7179 0.00178102C17.1563 0.0239634 17.5585 0.251754 17.8031 0.616327ZM16.6287 25.9432L8.17982 31.755C7.73984 32.0576 7.16545 32.0817 6.70165 31.817C6.23786 31.5523 5.9665 31.0455 6.00333 30.5127C6.47439 23.698 7.30821 18.2764 9.51502 11.6849C10.6046 8.43045 12.1145 5.64572 13.3453 3.68023C13.9623 2.69505 14.513 1.90942 14.9124 1.36656C15.1122 1.09498 15.2745 0.88374 15.3886 0.738216C15.4456 0.665442 15.4907 0.609065 15.5224 0.569757L15.5598 0.523667L15.5707 0.510372L15.5741 0.506188L15.5762 0.503658C15.5764 0.503411 15.5762 0.503658 16.6476 1.39131C17.8031 0.616327 17.8029 0.616089 17.8031 0.616327L17.8072 0.622455L17.8149 0.634132L17.8412 0.674082C17.8634 0.708073 17.895 0.756756 17.9352 0.819985C18.0157 0.94644 18.1311 1.1311 18.2767 1.37278C18.5677 1.85611 18.9792 2.56769 19.473 3.4981C20.4604 5.35873 21.7774 8.09583 23.1169 11.634C25.8196 18.7729 26.3961 23.7106 26.8663 30.5127C26.9035 31.0511 26.6261 31.5623 26.1545 31.8246C25.6829 32.0869 25.1022 32.0528 24.6646 31.7372L16.6287 25.9432ZM16.5253 3.90194C16.2757 4.26658 15.9981 4.68686 15.7037 5.15706C14.5502 6.99902 13.1535 9.58197 12.1537 12.5684C10.3587 17.9299 9.50925 22.4743 9.01237 27.8049L15.8591 23.0953C16.3433 22.7622 16.9846 22.7693 17.4613 23.113L23.8619 27.728C23.4095 22.5356 22.6813 18.3425 20.5145 12.6193C19.2204 9.201 17.9533 6.57043 17.0151 4.80251C16.8396 4.47195 16.6757 4.1716 16.5253 3.90194Z" fill="black"/>
</svg>
