<svg width="26" height="26" viewBox="0 0 26 26" fill="none" xmlns="http://www.w3.org/2000/svg">
<path d="M25 24.6436C25 24.9972 24.8595 25.3364 24.6095 25.5864C24.3594 25.8365 24.0203 25.9769 23.6667 25.9769H2.33333C1.97971 25.9769 1.64057 25.8365 1.39052 25.5864C1.14048 25.3364 1 24.9972 1 24.6436V10.6303C0.999859 10.4271 1.04616 10.2265 1.13535 10.044C1.22455 9.86143 1.35429 9.70168 1.51467 9.57692L12.1813 1.28093C12.4154 1.09885 12.7035 1 13 1C13.2965 1 13.5846 1.09885 13.8187 1.28093L24.4853 9.57692C24.6457 9.70168 24.7754 9.86143 24.8646 10.044C24.9538 10.2265 25.0001 10.4271 25 10.6303V24.6436Z" fill="#099620"/>
<path d="M16.5713 8H19.9999V9.14286H16.5713V8Z" fill="white"/>
<path d="M16.5713 11.4285H18.857V12.5713H16.5713V11.4285Z" fill="white"/>
<path d="M16.5713 14.8572H19.9999V16H16.5713V14.8572Z" fill="white"/>
<path d="M16.5713 18.2856H18.857V19.4285H16.5713V18.2856Z" fill="white"/>
<path d="M20 22.8572H16.5714C15.4299 22.8532 14.3155 22.5086 13.3709 21.8675C12.4264 21.2264 11.6947 20.3179 11.2696 19.2585C10.8444 18.199 10.7452 17.0368 10.9846 15.9206C11.224 14.8044 11.7911 13.785 12.6133 12.9931C11.8667 12.7179 11.0778 12.5753 10.2821 12.5715C9.58637 12.5643 8.90111 12.7413 8.29587 13.0846C7.69064 13.4278 7.18696 13.925 6.83594 14.5258C5.71234 16.2485 5.14286 19.0515 5.14286 22.8572H4C4 18.8262 4.632 15.813 5.87834 13.9014C6.3337 13.1416 6.97948 12.5139 7.75183 12.0802C8.52418 11.6465 9.39636 11.4219 10.2821 11.4286H10.286C11.57 11.4468 12.833 11.758 13.9785 12.3383C14.0668 12.3844 14.1415 12.4527 14.1953 12.5365C14.249 12.6203 14.2799 12.7167 14.2849 12.8162C14.29 12.9156 14.2689 13.0146 14.2239 13.1034C14.1788 13.1922 14.1114 13.2677 14.0282 13.3224C13.2134 13.8699 12.5959 14.6643 12.2663 15.5888C11.9367 16.5134 11.9124 17.5193 12.1971 18.4587C12.4818 19.3981 13.0604 20.2213 13.8478 20.8073C14.6352 21.3934 15.5899 21.7113 16.5714 21.7143H20V22.8572Z" fill="white"/>
</svg>
