<svg width="32" height="32" viewBox="0 0 32 32" fill="none" xmlns="http://www.w3.org/2000/svg">
<path d="M7.35693 14.4091L15.7393 1.33356L23.6426 14.4091V30.6669L15.7393 23.6107L7.35693 30.6669V14.4091Z" fill="#FF1616"/>
<path fill-rule="evenodd" clip-rule="evenodd" d="M15.7573 0.000114727C16.2298 0.00619384 16.6651 0.253337 16.9064 0.652544L24.8098 13.7281C24.9343 13.9341 25 14.1693 25 14.4089V30.6666C25 31.1944 24.6832 31.6724 24.192 31.8859C23.7008 32.0995 23.1277 32.0083 22.7301 31.6534L15.7131 25.3886L8.24017 31.6791C7.83773 32.0179 7.27139 32.0955 6.78994 31.8779C6.30848 31.6603 6 31.1873 6 30.6666V14.4089C6 14.1574 6.07238 13.9111 6.20878 13.6983L14.5911 0.622759C14.843 0.229896 15.2847 -0.00596431 15.7573 0.000114727ZM8.71429 14.7938V27.7684L14.8565 22.598C15.3761 22.1606 16.1458 22.1717 16.6522 22.6238L22.2857 27.6533V14.7749L15.7054 3.88834L8.71429 14.7938Z" fill="black"/>
</svg>
