<svg width="32" height="32" viewBox="0 0 32 32" fill="none" xmlns="http://www.w3.org/2000/svg">
<path d="M10.8339 12.126C12.9233 5.88508 16.6471 1.39062 16.6471 1.39062C16.6471 1.39062 19.1816 5.1695 21.8153 12.126C24.4489 19.0824 25.0118 23.8665 25.4778 30.608L16.6471 24.2409L7.39087 30.608C7.85639 23.8735 8.67484 18.5748 10.8339 12.126Z" fill="#834F0A"/>
<path fill-rule="evenodd" clip-rule="evenodd" d="M17.8029 0.616327L16.6475 1.39131L15.5761 0.503658C15.8562 0.165627 16.2793 -0.0204012 16.7178 0.00178102C17.1562 0.0239634 17.5584 0.251754 17.8029 0.616327ZM16.6286 25.9432L8.1797 31.755C7.73972 32.0576 7.16533 32.0817 6.70153 31.817C6.23773 31.5523 5.96638 31.0455 6.0032 30.5127C6.47427 23.698 7.30809 18.2764 9.5149 11.6849C10.6045 8.43045 12.1144 5.64572 13.3452 3.68023C13.9621 2.69505 14.5129 1.90942 14.9123 1.36656C15.1121 1.09498 15.2744 0.88374 15.3884 0.738216C15.4455 0.665442 15.4905 0.609065 15.5222 0.569757L15.5597 0.523667L15.5706 0.510372L15.574 0.506188L15.5761 0.503658C15.5763 0.503411 15.5761 0.503658 16.6475 1.39131C17.8029 0.616327 17.8028 0.616089 17.8029 0.616327L17.807 0.622455L17.8148 0.634132L17.8411 0.674082C17.8633 0.708073 17.8948 0.756756 17.9351 0.819985C18.0156 0.94644 18.131 1.1311 18.2765 1.37278C18.5676 1.85611 18.9791 2.56769 19.4729 3.4981C20.4603 5.35873 21.7772 8.09583 23.1168 11.634C25.8195 18.7729 26.3959 23.7106 26.8661 30.5127C26.9033 31.0511 26.626 31.5623 26.1544 31.8246C25.6828 32.0869 25.1021 32.0528 24.6644 31.7372L16.6286 25.9432ZM16.5252 3.90194C16.2756 4.26658 15.998 4.68686 15.7036 5.15706C14.5501 6.99902 13.1534 9.58197 12.1536 12.5684C10.3585 17.9299 9.50913 22.4743 9.01224 27.8049L15.859 23.0953C16.3432 22.7622 16.9845 22.7693 17.4612 23.113L23.8617 27.728C23.4094 22.5356 22.6812 18.3425 20.5144 12.6193C19.2203 9.201 17.9532 6.57043 17.0149 4.80251C16.8395 4.47195 16.6756 4.1716 16.5252 3.90194Z" fill="black"/>
</svg>
