<svg width="28" height="28" viewBox="0 0 28 28" fill="none" xmlns="http://www.w3.org/2000/svg">
<path d="M14.0001 28C11.2312 28 8.52444 27.1789 6.22215 25.6405C3.91986 24.1022 2.12544 21.9157 1.06581 19.3575C0.00618683 16.7994 -0.271059 13.9845 0.269136 11.2687C0.809331 8.55299 2.1427 6.05843 4.10064 4.1005C6.72615 1.47499 10.2871 -2.76642e-08 14.0001 0C17.7132 2.76642e-08 21.2741 1.47499 23.8996 4.1005C26.5251 6.72601 28.0001 10.287 28.0001 14C28.0001 17.713 26.5251 21.274 23.8996 23.8995C22.6026 25.2036 21.0599 26.2375 19.3606 26.9413C17.6614 27.6451 15.8394 28.005 14.0001 28ZM14.0001 1.86669C7.30984 1.86669 1.86683 7.3097 1.86683 14C1.86683 20.6903 7.30984 26.1333 14.0001 26.1333C20.6904 26.1333 26.1334 20.6903 26.1334 14C26.1334 7.3097 20.6904 1.86669 14.0001 1.86669Z" fill="#0A3F4E"/>
<path d="M17.957 7.35997C18.4369 6.88001 19.2148 6.88001 19.6948 7.35997L21.6407 9.30513C22.1199 9.78509 22.1199 10.5638 21.6407 11.0437L11.5309 21.1528C11.3596 21.3248 11.1407 21.4416 10.9027 21.4892L8.47145 21.9753C7.61137 22.1473 6.85265 21.3886 7.02466 20.5293L7.51154 18.0972C7.55915 17.8592 7.67588 17.6411 7.84712 17.4698L17.957 7.35997ZM19.1158 7.93899C18.956 7.77926 18.6965 7.77926 18.5368 7.93899L8.4261 18.0489C8.36927 18.1057 8.33011 18.1786 8.31398 18.2585L7.82787 20.6897C7.77028 20.9762 8.02369 21.2296 8.31013 21.172L10.7422 20.6859C10.8212 20.6698 10.8942 20.6314 10.9518 20.5738L21.0609 10.4639C21.2206 10.3034 21.2214 10.0446 21.0609 9.88411L19.1158 7.93899Z" fill="#0A3F4E"/>
<path d="M19.8712 7.18368C19.2936 6.60609 18.3579 6.60609 17.7804 7.18368L7.67001 17.2931C7.46398 17.4991 7.32401 17.7618 7.26669 18.0479L6.77939 20.4806C6.57255 21.5148 7.48581 22.4277 8.5206 22.2208L10.9513 21.7345C11.2371 21.6773 11.5007 21.5371 11.7071 21.3302L21.8175 11.2208C22.3941 10.6433 22.394 9.70656 21.8175 9.12899V9.12802L19.8712 7.18368ZM18.1339 7.53719C18.5162 7.15487 19.1353 7.15487 19.5177 7.53719L21.464 9.48251L21.4649 9.48153C21.8462 9.8639 21.8455 10.485 21.464 10.8673L11.3536 20.9757V20.9766C11.2176 21.1132 11.0435 21.2063 10.8536 21.2442L8.42196 21.7306C7.73687 21.8672 7.13269 21.2623 7.26962 20.5782L7.75692 18.1466C7.79486 17.9569 7.88728 17.7829 8.02353 17.6466L18.1339 7.53719ZM19.2921 7.76278C19.0349 7.50558 18.6178 7.50493 18.3604 7.7618L8.24911 17.8722C8.15734 17.964 8.09425 18.0813 8.06845 18.2091V18.21L7.5831 20.6407L7.57138 20.7266C7.5416 21.1513 7.92685 21.5041 8.35946 21.4171L10.7911 20.9307H10.7921C10.9179 20.9051 11.0358 20.8443 11.129 20.7511L21.2374 10.6407H21.2384C21.4946 10.3832 21.4961 9.96578 21.2374 9.70712L19.2921 7.76278ZM18.714 8.1163C18.7761 8.0542 18.8765 8.0542 18.9386 8.1163L20.8839 10.0606C20.9461 10.1228 20.9467 10.2237 20.8839 10.2872L10.7745 20.3975C10.7531 20.4188 10.7256 20.4337 10.6944 20.4405H10.6934L8.26083 20.9268L8.21982 20.9298C8.12668 20.9243 8.05385 20.8367 8.07333 20.7393V20.7384L8.55868 18.3077C8.56515 18.2759 8.5809 18.2474 8.60263 18.2257L18.714 8.1163Z" fill="#0A3F4E"/>
<path d="M16.2086 9.10914C16.3683 8.94864 16.6279 8.94864 16.7876 9.10914L19.8916 12.2123C20.0513 12.3728 20.0513 12.6316 19.8916 12.7913C19.7311 12.9518 19.4723 12.9518 19.3125 12.7913L16.2086 9.68816C16.0488 9.52843 16.0488 9.26887 16.2086 9.10914Z" fill="#0A3F4E"/>
<path d="M16.9645 8.93299C16.7073 8.67449 16.2894 8.6739 16.0319 8.93201L15.947 9.03553C15.7782 9.29141 15.8068 9.63947 16.0319 9.86463L19.1354 12.9681L19.1364 12.9672C19.394 13.2257 19.8102 13.2257 20.0681 12.9681C20.3256 12.7106 20.3256 12.2933 20.069 12.0355H20.0681L16.9645 8.93201V8.93299ZM16.3854 9.28553C16.4474 9.22327 16.548 9.22335 16.61 9.28553H16.611L19.7145 12.389C19.7771 12.4523 19.7763 12.5529 19.7145 12.6146C19.6514 12.6775 19.5516 12.6766 19.4899 12.6146H19.489L16.3854 9.51112C16.3389 9.46451 16.3269 9.39586 16.3503 9.33826L16.3854 9.28553Z" fill="#0A3F4E"/>
</svg>
