<svg width="32" height="32" viewBox="0 0 32 32" fill="none" xmlns="http://www.w3.org/2000/svg">
<path d="M8.33313 14.4092L16.5684 1.33362L24.3331 14.4092V30.6669L16.5684 23.6108L8.33313 30.6669V14.4092Z" fill="#DC4DD6"/>
<path fill-rule="evenodd" clip-rule="evenodd" d="M16.5861 0.000114727C17.0503 0.00619384 17.478 0.253337 17.7151 0.652544L25.4797 13.7281C25.6021 13.9341 25.6667 14.1693 25.6667 14.4089V30.6666C25.6667 31.1944 25.3554 31.6724 24.8728 31.8859C24.3903 32.0995 23.8272 32.0083 23.4366 31.6534L16.5427 25.3886L9.20086 31.6791C8.80548 32.0179 8.24908 32.0955 7.77608 31.8779C7.30307 31.6603 7 31.1873 7 30.6666V14.4089C7 14.1574 7.07111 13.9111 7.20512 13.6983L15.4404 0.622759C15.6878 0.229896 16.1218 -0.00596431 16.5861 0.000114727ZM9.66666 14.7938V27.7684L15.7011 22.598C16.2116 22.1606 16.9678 22.1717 17.4653 22.6238L23 27.6533V14.7749L16.5352 3.88834L9.66666 14.7938Z" fill="black"/>
</svg>
