<svg width="30" height="30" viewBox="0 0 30 30" fill="none" xmlns="http://www.w3.org/2000/svg">
<path d="M15 19.0422L10.5108 14.5478L11.5777 13.4697L14.236 16.128V7H15.7695V16.128L18.4278 13.4697L19.4944 14.5478L15 19.0422ZM8.86928 23C8.35078 23 7.90956 22.8181 7.54563 22.4544C7.18188 22.0904 7 21.6489 7 21.1299V18.2096H8.53357V21.1291C8.53357 21.2135 8.56865 21.2909 8.63881 21.3612C8.70914 21.4314 8.78652 21.4664 8.87092 21.4664H21.1291C21.2135 21.4664 21.2909 21.4314 21.3612 21.3612C21.4314 21.2909 21.4664 21.2135 21.4664 21.1291V18.2096H23V21.1299C23 21.6489 22.8181 22.0904 22.4544 22.4544C22.0904 22.8181 21.6492 23 21.1307 23H8.86928Z" fill="white"/>
</svg>
