<svg width="32" height="32" viewBox="0 0 32 32" fill="none" xmlns="http://www.w3.org/2000/svg">
<path d="M8.20288 14.8692L16.5711 1.20294L24.4611 14.8692V24.1753L16.5711 20.434L8.20288 24.1753V14.8692Z" fill="#FFDA16"/>
<path d="M16.5861 9.0563e-05C17.0099 0.00556718 17.4 0.234676 17.6121 0.601586L25.502 14.268C25.6075 14.4508 25.6627 14.6585 25.6627 14.8695V24.1755C25.6627 24.5874 25.4525 24.9702 25.1046 25.1907C24.7563 25.411 24.3192 25.4376 23.9468 25.2611L16.5554 21.7569L8.69443 25.2737C8.32246 25.44 7.89112 25.4051 7.54924 25.1834C7.20754 24.9618 7.00013 24.5828 7.00012 24.1755V14.8695C7.00012 14.6479 7.06143 14.4299 7.17714 14.2409L15.5457 0.574492L15.6378 0.446245C15.8675 0.162882 16.2157 -0.00446211 16.5861 9.0563e-05ZM9.40611 15.2055V22.3187L16.0804 19.3365C16.4011 19.1931 16.769 19.1968 17.0865 19.3473L23.2586 22.2735V15.191L16.5392 3.55488L9.40611 15.2055Z" fill="black"/>
<path d="M8.20288 25.2251L16.5711 21.3674L24.4611 25.2251V30.7971L16.5711 28.6501L8.20288 30.7971V25.2251Z" fill="#FF1616"/>
<path d="M16.0676 20.2766C16.3956 20.1254 16.7745 20.1289 17.099 20.2874L24.9889 24.1457C25.4014 24.3474 25.6626 24.7666 25.6626 25.2258V30.7964C25.6626 31.1709 25.4887 31.5245 25.1912 31.752C24.8936 31.9794 24.5068 32.0562 24.1453 31.9579L16.5625 29.8933L8.50103 31.9615C8.14134 32.0536 7.7594 31.9741 7.46602 31.7465C7.17268 31.5188 7 31.1678 7 30.7964V25.2258C7 24.7568 7.27319 24.3295 7.69904 24.133L16.0676 20.2766ZM9.40598 25.9935V29.2466L16.2717 27.4855C16.4735 27.4337 16.6867 27.4362 16.8877 27.4909L23.2584 29.2231V25.9754L16.5535 22.697L9.40598 25.9935Z" fill="black"/>
</svg>
