<svg width="30" height="30" viewBox="0 0 30 30" fill="none" xmlns="http://www.w3.org/2000/svg">
<path d="M18.999 23.7646C19.9067 23.7647 20.7992 23.9987 21.5898 24.4453V24.4443C22.0084 24.6888 22.4841 24.8184 22.9688 24.8184C23.4544 24.8183 23.9314 24.6888 24.3506 24.4434L24.3545 24.4414C24.7111 24.2233 25.0937 24.0503 25.4932 23.9277V23.9287L25.499 23.9268C25.6237 23.8851 25.7559 23.8695 25.8867 23.8818C26.0174 23.8942 26.1441 23.934 26.2588 23.998C26.3735 24.0622 26.4736 24.1498 26.5527 24.2549C26.6318 24.36 26.6887 24.4802 26.7188 24.6084L26.7197 24.6133C26.7518 24.7378 26.7589 24.868 26.7393 24.9951C26.7196 25.1223 26.6736 25.2445 26.6055 25.3535C26.5374 25.4622 26.448 25.5559 26.3428 25.6289C26.2373 25.702 26.1179 25.7538 25.9922 25.7793L25.9834 25.7803L25.9756 25.7822C25.7128 25.8535 25.4621 25.9636 25.2314 26.1084C24.5292 26.5281 23.7269 26.7499 22.9092 26.75C22.1935 26.75 21.4889 26.5805 20.8535 26.2568L20.5859 26.1084L20.5781 26.1045L20.3857 26.0059C19.9304 25.7908 19.432 25.6787 18.9268 25.6787C18.3495 25.6788 17.7818 25.8254 17.2764 26.1045H17.2754L17.2725 26.1064C16.5603 26.5142 15.7539 26.7285 14.9336 26.7285C14.1132 26.7285 13.3069 26.5142 12.5947 26.1064L12.5918 26.1045L12.3994 26.0059C11.944 25.7906 11.4458 25.6787 10.9404 25.6787C10.3629 25.6787 9.7947 25.8252 9.28906 26.1045L9.28418 26.1074C8.56698 26.5245 7.75219 26.7433 6.92285 26.7432C6.22594 26.7387 5.54057 26.5744 4.91992 26.2627L4.6582 26.1201C4.42954 25.9768 4.18116 25.8681 3.9209 25.7969H3.92188C3.68304 25.7245 3.48199 25.5598 3.36328 25.3398C3.24475 25.1199 3.2185 24.8619 3.28906 24.6221L3.29297 24.6064C3.32268 24.4761 3.37961 24.3538 3.45996 24.2471C3.5403 24.1404 3.64194 24.0517 3.75879 23.9873C3.87581 23.9229 4.00561 23.8838 4.13867 23.873C4.23845 23.865 4.33861 23.8731 4.43555 23.8965L4.53125 23.9248L4.54199 23.9277C4.94144 24.0503 5.32412 24.2233 5.68066 24.4414L5.68457 24.4434C6.10377 24.6888 6.58074 24.8184 7.06641 24.8184C7.55041 24.8183 8.02522 24.6892 8.44336 24.4453L8.44434 24.4463C9.23597 24.0016 10.1285 23.7676 11.0361 23.7676C11.943 23.7676 12.8349 24.0004 13.626 24.4443V24.4453C14.0498 24.6873 14.5296 24.8145 15.0176 24.8145C15.5054 24.8144 15.9844 24.6863 16.4082 24.4443C17.1988 23.998 18.0915 23.7646 18.999 23.7646ZM12.6143 3.25H17.3965C17.6472 3.25 17.8881 3.34973 18.0654 3.52734C18.2428 3.70496 18.3428 3.94595 18.3428 4.19727V8.03906H20.9834C21.2341 8.03906 21.475 8.13881 21.6523 8.31641C21.8297 8.494 21.9297 8.73503 21.9297 8.98633V14.3477L22.126 14.3906L25.9756 15.2412C26.1071 15.2721 26.2309 15.3303 26.3379 15.4131C26.4456 15.4964 26.5335 15.6028 26.5967 15.7236L26.5986 15.7256C26.6637 15.8467 26.7017 15.9808 26.71 16.1182C26.7161 16.2212 26.7047 16.3247 26.6777 16.4238L26.6455 16.5215L24.793 21.2021C24.7229 21.3784 24.6011 21.5294 24.4443 21.6357C24.2875 21.7421 24.1024 21.799 23.9131 21.7988H23.9121C23.7925 21.7991 23.6737 21.7764 23.5625 21.7324H23.5635C23.448 21.6865 23.3421 21.6189 23.2529 21.5322C23.1638 21.4455 23.0922 21.3418 23.043 21.2275C22.9938 21.1132 22.9675 20.9898 22.9658 20.8652C22.9645 20.7717 22.9771 20.6784 23.0029 20.5889L23.0332 20.501L24.373 17.124L24.4805 16.8516L24.1943 16.7881L16.2549 15.0283L15.9512 14.9609V20.959C15.9512 21.2103 15.8511 21.4513 15.6738 21.6289C15.4966 21.8064 15.2564 21.9061 15.0059 21.9062C14.7552 21.9062 14.5143 21.8065 14.3369 21.6289C14.1596 21.4513 14.0596 21.2102 14.0596 20.959V14.9609L13.7559 15.0283L5.81641 16.7881L5.53027 16.8516L5.6377 17.124L6.97754 20.501C7.07035 20.7347 7.06611 20.9956 6.9668 21.2266C6.8674 21.4576 6.68051 21.6395 6.44727 21.7324C6.21416 21.8252 5.95406 21.822 5.72363 21.7227C5.49339 21.6233 5.31174 21.4365 5.21875 21.2031L3.36523 16.498C3.31491 16.3699 3.29263 16.2322 3.30078 16.0947C3.30895 15.9574 3.34707 15.8233 3.41211 15.7021L3.41406 15.6992C3.47723 15.5786 3.56533 15.4729 3.67285 15.3896C3.78009 15.3067 3.90422 15.2477 4.03613 15.2168L7.88379 14.3916L8.08105 14.3486V8.98633C8.08109 8.73504 8.18106 8.494 8.3584 8.31641C8.53577 8.13879 8.77665 8.03906 9.02734 8.03906H11.668V4.19727C11.668 3.94598 11.768 3.70495 11.9453 3.52734C12.1227 3.34973 12.3636 3.25 12.6143 3.25ZM9.97266 13.9209L10.2783 13.8516L14.7725 12.8281H15.2383L19.7324 13.8516L20.0381 13.9209V9.93359H9.97266V13.9209ZM13.5596 8.03906H16.4512V5.14453H13.5596V8.03906Z" fill="#04C2C3" stroke="#011C2F" stroke-width="0.5"/>
</svg>
