<svg width="32" height="32" viewBox="0 0 32 32" fill="none" xmlns="http://www.w3.org/2000/svg">
<path d="M8.2172 30.6597C8.2172 30.6597 6.34033 25.5608 6.34033 19.294C6.34033 13.0273 8.2172 10.264 10.2045 7.13062C12.1917 3.99724 15.9455 1.34088 15.9455 1.34088C15.9455 1.34088 19.6992 4.6346 21.4656 7.13062C23.2321 9.62663 25.109 14.9393 25.109 19.294C25.109 23.6487 23.2321 30.6597 23.2321 30.6597L15.9455 27.3724L8.2172 30.6597Z" fill="#EF887A"/>
<path fill-rule="evenodd" clip-rule="evenodd" d="M16.8299 0.332932L15.9457 1.34062L15.1713 0.246298C15.6776 -0.112014 16.3636 -0.0761807 16.8299 0.332932ZM23.2323 30.6594C24.5273 31.0061 24.5274 31.006 24.5274 31.0058L24.5336 30.9827L24.5502 30.9197C24.5645 30.865 24.5853 30.7852 24.6116 30.6826C24.6642 30.4773 24.7389 30.1808 24.8284 29.812C25.0072 29.0748 25.2456 28.046 25.4843 26.8779C25.9558 24.5695 26.4498 21.6155 26.4498 19.2938C26.4498 16.942 25.9466 14.3852 25.2283 12.1113C24.5128 9.84611 23.5498 7.75428 22.5602 6.35591C21.6029 5.0033 20.1491 3.48545 18.9814 2.34174C18.3888 1.76132 17.8533 1.26119 17.4655 0.905896C17.2715 0.72808 17.114 0.586106 17.0044 0.488008C16.9496 0.438948 16.9067 0.400831 16.8772 0.374657L16.843 0.344471L16.8299 0.332932C16.8298 0.332845 16.8299 0.332932 15.9457 1.34062C15.1713 0.246298 15.1715 0.246162 15.1713 0.246298L15.1659 0.250112L15.1551 0.257811L15.1178 0.284671C15.086 0.307604 15.0408 0.340523 14.9835 0.382891C14.8689 0.467599 14.7057 0.590261 14.5048 0.746596C14.1035 1.05885 13.5489 1.50769 12.9294 2.05882C11.7055 3.14751 10.1639 4.69163 9.07256 6.41234C9.01024 6.51061 8.94764 6.60908 8.88485 6.70785C7.96328 8.15743 7.00109 9.6709 6.27614 11.5558C5.49232 13.5937 4.99994 16.0169 4.99994 19.2938C4.99994 22.5551 5.48756 25.5002 5.97191 27.6246C6.21462 28.6892 6.45793 29.5539 6.64204 30.1565C6.73414 30.458 6.81157 30.6943 6.86689 30.8578C6.89455 30.9396 6.9167 31.0032 6.93242 31.0476L6.95104 31.0998L6.95652 31.1149L6.95888 31.1213C6.95898 31.1216 6.95933 31.1225 8.21742 30.6594L6.95888 31.1213C7.08567 31.4658 7.34861 31.7444 7.68554 31.89C8.02248 32.0357 8.40439 32.0368 8.74216 31.8931L15.9299 28.8358L22.681 31.8815C23.0396 32.0432 23.4512 32.0393 23.8066 31.8708C24.1621 31.7023 24.4257 31.3859 24.5274 31.0058L23.2323 30.6594ZM9.05127 28.8479L15.4209 26.1385C15.7655 25.992 16.1557 25.9962 16.497 26.1502L22.3194 28.7769C22.4772 28.1109 22.6673 27.2712 22.8573 26.3413C23.3242 24.0556 23.7686 21.3267 23.7686 19.2938C23.7686 17.2908 23.3334 15.014 22.6716 12.9189C22.007 10.815 21.1484 9.00246 20.3716 7.90481C19.5624 6.76141 18.2561 5.38439 17.1053 4.25723C16.6424 3.80388 16.2152 3.40104 15.8718 3.08323C15.5449 3.34467 15.1455 3.67601 14.7114 4.06213C13.5616 5.08496 12.2328 6.43571 11.3368 7.84838C11.2831 7.93299 11.2298 8.01694 11.1769 8.10031C10.233 9.58656 9.40445 10.8912 8.77866 12.5183C8.12722 14.212 7.68117 16.3038 7.68117 19.2938C7.68117 22.2991 8.13199 25.037 8.58607 27.0286C8.74851 27.7412 8.91065 28.3551 9.05127 28.8479Z" fill="black"/>
</svg>
