<svg width="30" height="30" viewBox="0 0 30 30" fill="none" xmlns="http://www.w3.org/2000/svg">
<path d="M7.8442 24C7.33297 24 6.89785 23.8204 6.53882 23.4612C6.17961 23.1022 6 22.667 6 22.1558V7.8442C6 7.33297 6.17961 6.89784 6.53882 6.53881C6.89785 6.1796 7.33297 6 7.8442 6H22.1558C22.667 6 23.1022 6.1796 23.4612 6.53881C23.8204 6.89784 24 7.33297 24 7.8442V22.1558C24 22.667 23.8204 23.1022 23.4612 23.4612C23.1022 23.8204 22.667 24 22.1558 24H7.8442ZM7.84663 22.4863H14.2459V7.51366H7.84663C7.76332 7.51366 7.68704 7.54837 7.6178 7.6178C7.54837 7.68704 7.51366 7.76332 7.51366 7.84663V22.1534C7.51366 22.2367 7.54837 22.313 7.6178 22.3822C7.68704 22.4516 7.76332 22.4863 7.84663 22.4863ZM15.7595 22.4863H22.1534C22.2367 22.4863 22.313 22.4516 22.3822 22.3822C22.4516 22.313 22.4863 22.2367 22.4863 22.1534V15H15.7595V22.4863ZM15.7595 13.4863H22.4863V7.84663C22.4863 7.76332 22.4516 7.68704 22.3822 7.6178C22.313 7.54837 22.2367 7.51366 22.1534 7.51366H15.7595V13.4863Z" fill="white"/>
</svg>
