<svg width="22" height="22" viewBox="0 0 22 22" fill="none" xmlns="http://www.w3.org/2000/svg">
<path d="M7.13486 1C5.76634 1 4.46688 1.3475 3.41182 2.02264C2.20569 2.79416 1.32557 4.01296 1.07446 5.58221C0.823776 7.1464 1.1929 9.04033 2.3823 11.2048C3.21261 12.7098 4.23419 13.902 4.87911 15.1576C5.39806 16.244 5.64916 17.1318 5.53198 18.3367C4.91677 18.4593 4.45516 19.0004 4.45516 19.6556C4.45516 20.3955 5.0507 21 5.78308 21C6.51966 21 7.11394 20.3955 7.11394 19.6556C7.11394 19.0976 6.77913 18.6241 6.30203 18.417C6.34388 17.9858 6.34388 17.5799 6.30622 17.1868C6.69124 16.7302 7.13905 16.4977 7.69566 16.4216C8.31087 16.3328 9.06418 16.4512 9.9263 16.764C10.1397 17.1741 10.3323 17.6095 10.4997 18.0788C10.1146 18.3071 9.85934 18.7298 9.85934 19.2118C9.85934 19.9347 10.4411 20.5223 11.1567 20.5223C11.8765 20.5223 12.4583 19.9347 12.4583 19.2118C12.4583 18.5227 11.9351 17.9562 11.2655 17.9012C11.0981 17.4108 10.9014 16.9543 10.6838 16.5231C11.1107 16.1045 11.8347 15.8171 12.6759 15.6522C13.5966 15.4704 14.6303 15.4239 15.4966 15.3985C15.7896 15.6691 16.0784 15.9566 16.3588 16.2567C16.3378 16.3497 16.3253 16.4512 16.3253 16.5526C16.3253 17.246 16.8819 17.804 17.5641 17.804C18.2504 17.804 18.8028 17.246 18.8028 16.5526C18.8028 15.8636 18.2504 15.3013 17.5641 15.3013C17.2753 15.3013 17.0074 15.4028 16.7982 15.5719C16.5262 15.2886 16.2499 15.0223 15.9695 14.7644C15.9277 12.6887 16.5262 11.0611 17.5515 9.72519C17.924 9.63218 18.3048 9.4969 18.6982 9.31512C18.9409 9.55609 19.2716 9.70405 19.6357 9.70405C20.3681 9.70405 20.9623 9.10374 20.9623 8.3597C20.9623 7.61988 20.3681 7.01957 19.6357 7.01957C18.9033 7.01957 18.3048 7.61988 18.3048 8.3597C18.3048 8.44848 18.3132 8.53726 18.3299 8.62181C18.0035 8.76977 17.6938 8.87968 17.3925 8.96001C16.7438 8.11873 16.6852 7.45924 16.8652 6.72787C17.0577 5.95001 17.5892 5.09605 18.1165 4.11104C18.3801 3.94109 18.6187 3.73563 18.8154 3.49297C19.0456 3.66884 19.3302 3.77283 19.6399 3.77283C20.389 3.77283 21 3.15857 21 2.40016C21 1.64216 20.389 1.0279 19.6399 1.0279C18.8907 1.0279 18.2797 1.64216 18.2797 2.40016C18.2797 2.54389 18.3048 2.68256 18.3425 2.81234C17.8738 3.52383 16.974 3.92122 15.8817 3.94067C14.7684 3.96054 13.492 3.57879 12.4206 2.78867C10.7466 1.77786 8.81726 1.02241 7.13486 1ZM9.09347 2.05688C9.8719 2.25896 10.6461 2.58363 11.3827 3.03851L11.3869 3.66207C10.6461 3.10277 9.83423 2.51007 9.1144 2.13382L9.09347 2.05688ZM6.5071 2.19301L6.69961 2.86011C6.23089 2.64028 5.74123 2.46484 5.22228 2.349C5.67009 2.256 6.08859 2.17863 6.5071 2.19301ZM7.35249 2.308C7.73333 2.39551 8.12254 2.53882 8.44897 2.68974L8.85911 4.25139C8.47408 3.94405 8.08069 3.65404 7.66637 3.39405L7.35249 2.308ZM4.72426 3.05965C5.4985 3.18774 6.20996 3.46887 6.88376 3.85104L6.43177 4.63948C5.84586 4.07595 5.25158 3.50861 4.72426 3.05965ZM9.39061 3.20085C9.8426 3.48198 10.2862 3.80412 10.7257 4.14274C10.9475 4.31692 11.1693 4.49532 11.3911 4.6733L11.4036 6.53764C10.914 6.08952 10.416 5.61181 9.90119 5.14678L9.39061 3.20085ZM12.1695 3.57499C12.6968 3.93559 13.266 4.2125 13.8393 4.40443L13.8686 5.59912C13.3246 5.23133 12.7596 4.77053 12.1737 4.29367L12.1695 3.57499ZM4.12203 3.5826C4.77448 4.13344 5.40224 4.73671 6.02163 5.36238L5.43991 6.37276C4.87074 5.41734 4.40494 4.45685 4.12203 3.5826ZM7.54918 4.2683C8.12254 4.66061 8.67078 5.11296 9.21066 5.5949C9.12696 5.85278 8.70008 6.52073 8.53686 6.78283C8.02628 6.26707 7.51989 5.73863 7.00512 5.21865L7.54918 4.2683ZM16.953 4.60143C16.6099 5.21865 16.2918 5.82318 16.1202 6.47C15.6515 6.47845 15.166 6.33471 14.6596 6.07684L14.6261 4.61411C15.4255 4.76208 16.2165 4.77476 16.953 4.60143ZM2.60201 4.93963C2.61457 5.86123 2.7577 6.6856 2.99583 7.42964L2.31575 7.28591C2.3304 6.41926 2.43377 5.61604 2.60201 4.93963ZM3.95714 5.30743C4.22749 5.88237 4.53342 6.41504 4.86655 6.9012L4.29948 7.1464C4.1011 6.49959 3.97388 5.86546 3.95714 5.30743ZM12.1779 5.31165C12.7763 5.77245 13.2995 6.19943 13.8896 6.54609L13.9314 8.47807C13.3413 8.15678 12.7638 7.72557 12.1904 7.23518L12.1779 5.31165ZM6.5908 5.94578C7.08883 6.45731 7.58685 6.98153 8.09743 7.49306L7.41108 8.60912C6.88376 8.13987 6.3941 7.63256 5.9463 7.06608L6.5908 5.94578ZM9.8426 6.16561C10.3867 6.66023 10.8889 7.14217 11.366 7.56492L10.6503 8.774C10.1188 8.32588 9.60824 7.84817 9.11022 7.35355L9.8426 6.16561ZM14.6805 6.95616C15.1116 7.13794 15.5552 7.24786 16.0072 7.26054C15.9988 7.85662 16.1579 8.47384 16.5471 9.10374C15.8817 9.12911 15.2916 9.04879 14.7224 8.84164L14.6805 6.95616ZM5.34784 7.55224C5.76216 8.08068 6.20996 8.55839 6.68706 9.00228L5.73705 9.34049C5.28925 8.84164 4.9084 8.37661 4.62801 7.86085L5.34784 7.55224ZM8.67078 8.05954C9.17299 8.54994 9.68775 9.02765 10.2318 9.47577L9.71286 10.3509C9.12696 9.95348 8.50338 9.50536 8.01791 9.11643L8.67078 8.05954ZM11.9728 8.08068C12.5587 8.55839 13.1655 8.98537 13.8142 9.30666L13.1321 10.5115C12.4708 10.1479 11.8514 9.72942 11.2655 9.27284C11.4999 8.87546 11.7384 8.47807 11.9728 8.08068ZM2.40866 8.1145L3.33314 8.30897C3.55621 8.80359 3.82112 9.26439 4.11659 9.69982L2.96444 9.6195C2.71166 9.16716 2.51706 8.67254 2.40866 8.1145ZM7.36923 9.59836C7.84632 9.99575 8.34435 10.3635 8.85493 10.7144L7.83795 11.0611C7.33156 10.7102 6.81261 10.3213 6.38155 9.94925L7.36923 9.59836ZM14.5383 9.61527C15.166 9.83088 15.8984 9.91966 16.4885 9.89429C16.1704 10.4058 15.8984 10.9554 15.6933 11.5473C15.0321 11.3697 14.4127 11.1414 13.831 10.8708C14.0653 10.4523 14.3039 10.0338 14.5383 9.61527ZM10.8512 9.97039C11.4455 10.4227 12.0691 10.8413 12.7387 11.2091L12.2867 12.0081C11.638 11.5895 10.9935 11.1879 10.3699 10.7821C10.529 10.5115 10.6922 10.2409 10.8512 9.97039ZM5.53617 10.2494C5.98815 10.6975 6.49873 11.0146 6.91724 11.3739L6.63684 11.4669C6.24763 11.0653 5.82075 10.6045 5.53617 10.2494ZM3.51896 10.4481C3.92366 10.4735 4.32752 10.5115 4.73263 10.5326C5.0507 10.9089 5.3855 11.2894 5.67427 11.598C5.36876 11.6276 4.94607 11.636 4.60289 11.6487C4.21494 11.2386 3.81401 10.8286 3.51896 10.4481ZM9.6752 11.2725C10.3071 11.6825 10.9475 12.0841 11.5878 12.4984L10.5834 12.955C9.95141 12.4773 9.23577 11.9954 8.65823 11.6149L9.6752 11.2725ZM13.4376 11.5642C14.0695 11.8601 14.7433 12.1095 15.4632 12.304C15.325 12.8705 15.2372 13.4666 15.2079 14.1007C14.4671 13.4877 13.7054 12.9466 12.9437 12.4393C13.107 12.1476 13.2744 11.8559 13.4376 11.5642ZM7.72077 11.932C8.43642 12.4224 9.1437 12.8747 9.76309 13.327L8.8047 13.7625C8.29831 13.1706 7.76681 12.6253 7.24786 12.0926L7.72077 11.932ZM6.41503 12.3716C6.9005 12.8662 7.38597 13.3566 7.85469 13.8766H6.8168C6.36899 13.344 5.87934 12.8705 5.39806 12.4097C5.73705 12.4054 6.07604 12.3716 6.41503 12.3716ZM4.2865 12.4519C4.77867 12.9297 5.27669 13.3905 5.74123 13.8766H5.04651C4.74519 13.3989 4.4221 12.9297 4.09818 12.4562C4.16095 12.4562 4.22415 12.4519 4.2865 12.4519ZM12.3746 13.01C13.1363 13.5173 13.8896 14.0499 14.622 14.6418C13.7933 14.6968 13.0484 14.7729 12.3327 14.9166C12.0774 14.3966 11.7008 13.94 11.2488 13.5215C11.6213 13.3482 11.9979 13.1791 12.3746 13.01ZM10.462 13.8766C10.9349 14.2782 11.3116 14.6925 11.5585 15.1322C11.0856 15.2928 10.6503 15.5127 10.2988 15.8171C9.99745 15.3055 9.66683 14.8363 9.32365 14.3924L10.462 13.8766ZM5.50687 14.6672H6.43595C6.69961 15.0011 6.94235 15.352 7.14742 15.7325C6.78332 15.8424 6.44433 16.0157 6.13882 16.2609C5.96723 15.6691 5.76216 15.1449 5.50687 14.6672ZM7.41945 14.6672H8.53268C8.81726 15.0181 9.08929 15.3816 9.34458 15.7663C8.85911 15.648 8.39875 15.5888 7.95932 15.6057C7.78773 15.2717 7.5994 14.9335 7.41945 14.6672Z" fill="white"/>
</svg>
