<svg width="32" height="32" viewBox="0 0 32 32" fill="none" xmlns="http://www.w3.org/2000/svg">
<circle cx="16" cy="16" r="16" fill="#91F82A"/>
<path d="M7.95715 24.6533L9.30696 12.4084L15.9269 3.42883L22.8143 13.388L24.2674 30.2652L15.9269 25.8984L7.18451 30.2652L7.95715 24.6533Z" fill="#FF1616"/>
<path fill-rule="evenodd" clip-rule="evenodd" d="M16.1837 0.97972C16.6071 0.985283 16.9974 1.20995 17.2148 1.5733L23.847 12.6575C23.939 12.8113 23.996 12.9835 24.014 13.1618L25.7222 30.1424C25.7672 30.589 25.5633 31.0241 25.1915 31.2755C24.8196 31.5268 24.3398 31.5537 23.9422 31.3455L16.1546 27.2682L7.97056 31.3561C7.57277 31.5548 7.09839 31.5214 6.73239 31.2689C6.36639 31.0164 6.16671 30.5848 6.21122 30.1424L7.91951 13.1618C7.93854 12.9727 8.00148 12.7907 8.10333 12.6302L15.1374 1.54601C15.3643 1.18849 15.7603 0.974157 16.1837 0.97972ZM10.3187 13.6937L8.86103 28.1834L15.6224 24.8061C15.9731 24.6309 16.3865 24.6349 16.7337 24.8167L23.0673 28.1328L21.613 13.6769L16.1372 4.52523L10.3187 13.6937Z" fill="black"/>
</svg>
