<svg width="32" height="32" viewBox="0 0 32 32" fill="none" xmlns="http://www.w3.org/2000/svg">
<path d="M8.33575 14.4089L16.5886 1.33337L24.3698 14.4089V30.6667L16.5886 23.6106L8.33575 30.6667V14.4089Z" fill="#2798EB"/>
<path fill-rule="evenodd" clip-rule="evenodd" d="M16.6065 0.000114727C17.0717 0.00619384 17.5003 0.253337 17.7378 0.652544L25.5191 13.7281C25.6417 13.9341 25.7064 14.1693 25.7064 14.4089V30.6666C25.7064 31.1944 25.3945 31.6724 24.9109 31.8859C24.4273 32.0995 23.8629 32.0083 23.4716 31.6534L16.563 25.3886L9.20554 31.6791C8.80932 32.0179 8.25174 32.0955 7.77773 31.8779C7.30371 31.6603 7 31.1873 7 30.6666V14.4089C7 14.1574 7.07126 13.9111 7.20556 13.6983L15.4584 0.622759C15.7063 0.229896 16.1412 -0.00596431 16.6065 0.000114727ZM9.67234 14.7938V27.7684L15.7196 22.598C16.2312 22.1606 16.989 22.1717 17.4876 22.6238L23.034 27.6533V14.7749L16.5554 3.88834L9.67234 14.7938Z" fill="black"/>
</svg>
