<svg width="24" height="24" viewBox="0 0 24 24" fill="none" xmlns="http://www.w3.org/2000/svg">
<path d="M3.01465 16.084C3.06701 17.9128 3.3718 19.9837 4.65737 17.6229" stroke="#A8AAB7"/>
<path d="M8.74718 14.057V5C8.74718 5 1.09173 6.42207 3.04019 14.0579" stroke="#A8AAB7"/>
<path d="M2.99386 16.0834C3.54276 16.0834 3.98772 15.6385 3.98772 15.0896C3.98772 14.5407 3.54276 14.0957 2.99386 14.0957C2.44497 14.0957 2 14.5407 2 15.0896C2 15.6385 2.44497 16.0834 2.99386 16.0834Z" stroke="#A8AAB7"/>
<path d="M20.9406 19.3747H6.77969L5.84473 14.0566H21.8755L20.9406 19.3747Z" stroke="#A8AAB7"/>
<path d="M11.8379 13.9401L14.5072 10.5312H21.2071V13.9401" stroke="#A8AAB7"/>
<path d="M6.38965 16.7168H21.6996" stroke="#A8AAB7"/>
</svg>
