<svg width="24" height="24" viewBox="0 0 24 24" fill="none" xmlns="http://www.w3.org/2000/svg">
<path d="M6 7.4L3.87 5.28L5.28 3.87L7.4 6L6 7.4ZM13 1.5V4.5H11V1.5H13ZM20.13 5.28L18 7.4L16.6 6L18.72 3.87L20.13 5.28ZM4.5 11V13H1.5V11H4.5ZM19.5 11H22.5V13H19.5V11ZM6 20.5H18C18.5304 20.5 19.0391 20.7107 19.4142 21.0858C19.7893 21.4609 20 21.9696 20 22.5H4C4 21.9696 4.21071 21.4609 4.58579 21.0858C4.96086 20.7107 5.46957 20.5 6 20.5ZM12 5.5C13.5913 5.5 15.1174 6.13214 16.2426 7.25736C17.3679 8.38258 18 9.9087 18 11.5V19.5H6V11.5C6 9.9087 6.63214 8.38258 7.75736 7.25736C8.88258 6.13214 10.4087 5.5 12 5.5Z" fill="white"/>
</svg>
