<svg width="32" height="32" viewBox="0 0 32 32" fill="none" xmlns="http://www.w3.org/2000/svg">
<path d="M8.18923 9.32204L15.8503 1.32935L23.0737 9.32204V19.2114L24.9342 27.2274L15.8503 30.3934L6.32867 27.2274L8.18923 19.2114V9.32204Z" fill="#FFF62A"/>
<path fill-rule="evenodd" clip-rule="evenodd" d="M15.8703 0.000204262C16.2393 0.00561742 16.5894 0.164192 16.8368 0.43796L24.0602 8.43065C24.2809 8.67493 24.4031 8.99247 24.4031 9.32172V19.0588L26.2293 26.9267C26.3828 27.588 26.0132 28.2586 25.3721 28.4821L16.2882 31.648C16.0112 31.7446 15.71 31.7467 15.4315 31.6542L5.90987 28.4882C5.25874 28.2717 4.87949 27.5951 5.03463 26.9267L6.86077 19.0588V9.32172C6.86077 8.979 6.99317 8.64953 7.23033 8.40211L14.8914 0.409419C15.1468 0.143027 15.5014 -0.00520889 15.8703 0.000204262ZM9.51871 9.85578V19.211C9.51871 19.3122 9.50716 19.413 9.4843 19.5115L7.89751 26.3481L15.8408 28.9892L23.3703 26.365L21.7796 19.5115C21.7568 19.413 21.7452 19.3122 21.7452 19.211V9.83327L15.8222 3.27943L9.51871 9.85578Z" fill="black"/>
</svg>
