<svg width="20" height="20" viewBox="0 0 20 20" fill="none" xmlns="http://www.w3.org/2000/svg">
<path d="M3.8667 12.5522V9.4248H11.8688V12.3967" stroke="white" stroke-width="1.2"/>
<path d="M7.86768 5.9082V7.34191" stroke="white" stroke-width="1.2"/>
<path d="M5.04028 9.425V7.34229H10.696V9.425" stroke="white" stroke-width="1.2"/>
<path d="M3.86664 19.0168L2 13.3354L7.86771 10.7808L13.781 13.1997L11.8688 19.0168" stroke="white" stroke-width="1.2"/>
<path d="M2.52734 14.8991L7.8667 12.5522L13.1022 14.8991" stroke="white" stroke-width="1.2"/>
<path d="M7.89136 10.7539V16.1753" stroke="white" stroke-width="1.2"/>
<path d="M2.10376 19.0166H13.6506" stroke="white" stroke-width="1.2"/>
<path d="M12.9086 1.34232L11.7145 3.76338L9.04281 4.15287C8.5637 4.22236 8.37169 4.813 8.71914 5.15129L10.652 7.03474L10.1949 9.69535C10.1126 10.1763 10.6191 10.5365 11.0434 10.3116L13.4334 9.05534L15.8235 10.3116C16.2477 10.5347 16.7543 10.1763 16.672 9.69535L16.2148 7.03474L18.1477 5.15129C18.4951 4.813 18.3031 4.22236 17.824 4.15287L15.1524 3.76338L13.9582 1.34232C13.7443 0.910775 13.1244 0.905289 12.9086 1.34232Z" fill="white"/>
</svg>
