<svg width="30" height="30" viewBox="0 0 30 30" fill="none" xmlns="http://www.w3.org/2000/svg">
<path d="M14.9998 14.918C15.5976 14.918 16.0827 15.4022 16.0828 16C16.0828 16.5978 15.5976 17.083 14.9998 17.083C14.402 17.0829 13.9177 16.5978 13.9177 16C13.9178 15.4022 14.402 14.918 14.9998 14.918Z" fill="#CBD8F0" stroke="white" stroke-width="3.595"/>
<path d="M16.9082 8.79785L18.0205 10.0137L18.5557 10.5977H22.1973C22.198 10.5982 22.1992 10.5986 22.2002 10.5996L22.2021 10.6016V21.3975C22.2016 21.3982 22.2012 21.3994 22.2002 21.4004C22.1992 21.4014 22.198 21.4018 22.1973 21.4023H18.2354C20.0693 20.3013 21.2979 18.2938 21.2979 16C21.2979 12.5233 18.4767 9.70215 15 9.70215C11.5233 9.70215 8.70215 12.5233 8.70215 16C8.70215 18.2938 9.93073 20.3013 11.7646 21.4023H7.80273C7.80203 21.4018 7.80084 21.4014 7.7998 21.4004C7.79884 21.3994 7.79838 21.3982 7.79785 21.3975V10.6016L7.7998 10.5996C7.80084 10.5986 7.80203 10.5982 7.80273 10.5977H11.4443L11.9795 10.0137L13.0918 8.79785H16.9082Z" fill="#CBD8F0" stroke="white" stroke-width="3.595"/>
</svg>
