<svg width="30" height="30" viewBox="0 0 30 30" fill="none" xmlns="http://www.w3.org/2000/svg">
<path d="M7.13106 5.79059C6.75992 5.79059 6.40398 5.98169 6.14155 6.32185C5.87911 6.66201 5.73168 7.12337 5.73168 7.60443C5.73168 8.08549 5.87911 8.54685 6.14155 8.88701C6.40398 9.22717 6.75992 9.41827 7.13106 9.41827C7.5022 9.41827 7.85814 9.22717 8.12057 8.88701C8.38301 8.54685 8.53044 8.08549 8.53044 7.60443C8.53044 7.12337 8.38301 6.66201 8.12057 6.32185C7.85814 5.98169 7.5022 5.79059 7.13106 5.79059ZM7.13106 10.6275C6.5125 10.6275 5.91927 10.309 5.48188 9.74206C5.04448 9.17513 4.79876 8.4062 4.79876 7.60443C4.79876 6.80266 5.04448 6.03373 5.48188 5.4668C5.91927 4.89986 6.5125 4.58136 7.13106 4.58136C7.74963 4.58136 8.34285 4.89986 8.78025 5.4668C9.21764 6.03373 9.46336 6.80266 9.46336 7.60443C9.46336 8.4062 9.21764 9.17513 8.78025 9.74206C8.34285 10.309 7.74963 10.6275 7.13106 10.6275ZM7.13106 3.06982C4.86406 3.06982 2.8303 4.88367 2 7.60443C3.11484 11.2805 6.31476 13.0822 9.15083 11.6372C10.5735 10.9117 11.7024 9.45455 12.2621 7.60443C11.4318 4.88367 9.39806 3.06982 7.13106 3.06982Z" fill="white"/>
<path d="M19.1372 25.6456V10.6219L12.6977 8.35542V23.3662L19.1372 25.6327V25.6456ZM20.3174 25.6456L24.807 24.1562V8.93824L20.3174 10.6219V25.6327V25.6456ZM11.5176 8.36838L12.0948 6.95667L19.7273 9.65057L24.6916 7.70785C24.9995 7.59129 25.2945 7.60424 25.5767 7.77261C25.8589 7.94098 26 8.18706 26 8.51084V24.2598C26 24.5059 25.9359 24.7131 25.7948 24.8945C25.6665 25.0758 25.4869 25.1923 25.2688 25.2571L19.7401 27.0962L12.1077 24.4023L7.14337 26.345C6.83551 26.4745 6.54047 26.4357 6.25826 26.2544C5.98888 26.073 5.84778 25.8011 5.84778 25.4643V10.9069H7.02792V25.1146L11.5176 23.3791V8.36838Z" fill="white"/>
</svg>
