<svg width="26" height="26" viewBox="0 0 26 26" fill="none" xmlns="http://www.w3.org/2000/svg">
<path d="M9.57679 17.3294C9.34702 17.3294 9.11727 17.2447 8.93587 17.0634C8.58518 16.7127 8.58518 16.1322 8.93587 15.7815L15.7806 8.93685C16.1312 8.58615 16.7117 8.58615 17.0624 8.93685C17.4131 9.28755 17.4131 9.86801 17.0624 10.2187L10.2177 17.0634C10.0484 17.2447 9.80656 17.3294 9.57679 17.3294Z" fill="#A8B4C2"/>
<path d="M16.4215 17.3294C16.1917 17.3294 15.9619 17.2447 15.7806 17.0634L8.93587 10.2187C8.58518 9.86801 8.58518 9.28755 8.93587 8.93685C9.28656 8.58615 9.86703 8.58615 10.2177 8.93685L17.0624 15.7815C17.4131 16.1322 17.4131 16.7127 17.0624 17.0634C16.881 17.2447 16.6512 17.3294 16.4215 17.3294Z" fill="#A8B4C2"/>
<path d="M16.6279 26H9.37209C2.80558 26 0 23.1944 0 16.6279V9.37209C0 2.80558 2.80558 0 9.37209 0H16.6279C23.1944 0 26 2.80558 26 9.37209V16.6279C26 23.1944 23.1944 26 16.6279 26ZM9.37209 1.81395C3.79721 1.81395 1.81395 3.79721 1.81395 9.37209V16.6279C1.81395 22.2028 3.79721 24.186 9.37209 24.186H16.6279C22.2028 24.186 24.186 22.2028 24.186 16.6279V9.37209C24.186 3.79721 22.2028 1.81395 16.6279 1.81395H9.37209Z" fill="#A8B4C2"/>
</svg>
