<svg width="30" height="30" viewBox="0 0 30 30" fill="none" xmlns="http://www.w3.org/2000/svg">
<path d="M10.293 0C10.6024 0.000157285 10.8534 0.254698 10.8535 0.568359V3.69824H12.3271C12.5302 2.90046 13.1518 2.27086 13.9395 2.06445V0.570312C13.9395 0.256439 14.1903 0.00195314 14.5 0.00195312C14.8097 0.00195407 15.0605 0.256439 15.0605 0.570312V2.06445C16.0271 2.31749 16.7441 3.20895 16.7441 4.2666C16.7441 5.32417 16.027 6.21573 15.0605 6.46875V8.88672C15.8475 9.09255 16.4692 9.72224 16.6729 10.5205H18.1465V7.39258C18.1465 7.07879 18.3975 6.8234 18.707 6.82324H25.4395C25.7489 6.82348 26 7.07884 26 7.39258V14.7842C26 15.0979 25.7489 15.3533 25.4395 15.3535H18.707C18.3975 15.3534 18.1465 15.098 18.1465 14.7842V11.6582H16.6729C16.4697 12.4559 15.8481 13.0856 15.0605 13.292V15.71C16.027 15.963 16.744 16.8546 16.7441 17.9121C16.7441 18.9698 16.0271 19.8612 15.0605 20.1143V22.5332C15.8476 22.739 16.4692 23.3686 16.6729 24.167H18.1465V21.0391C18.1466 20.7253 18.3976 20.4709 18.707 20.4707H25.4395C25.7489 20.4709 25.9999 20.7254 26 21.0391V28.4316C25.9999 28.7453 25.7488 28.9998 25.4395 29H18.707C18.3976 28.9998 18.1466 28.7453 18.1465 28.4316V25.3037H16.6729C16.4698 26.1015 15.8482 26.7311 15.0605 26.9375V28.4316C15.0604 28.7454 14.8096 29 14.5 29C14.1904 29 13.9396 28.7454 13.9395 28.4316V26.9355C12.9729 26.6825 12.2559 25.791 12.2559 24.7334C12.2559 23.6758 12.973 22.7843 13.9395 22.5312V20.1133C13.1525 19.9075 12.5308 19.2778 12.3271 18.4795H10.8535V21.6074C10.8535 21.9212 10.6025 22.1766 10.293 22.1768H3.56055C3.25109 22.1765 3 21.9212 3 21.6074V14.2158C3 13.9021 3.25109 13.6477 3.56055 13.6475H10.293C10.6025 13.6476 10.8535 13.902 10.8535 14.2158V17.3418H12.3271C12.5303 16.5441 13.1519 15.9144 13.9395 15.708V13.29C12.973 13.037 12.256 12.1454 12.2559 11.0879C12.2559 10.0302 12.9729 9.13878 13.9395 8.88574V6.4668C13.1524 6.26095 12.5308 5.63136 12.3271 4.83301H10.8535V7.96094C10.8534 8.27465 10.6024 8.52914 10.293 8.5293H3.56055C3.25114 8.52906 3.00008 8.2746 3 7.96094V0.568359C3.00014 0.254746 3.25117 0.000234897 3.56055 0H10.293ZM19.2686 21.6074V27.8623H24.8779V21.6074H19.2686ZM14.5 23.5977C13.8812 23.5977 13.3779 24.1082 13.3779 24.7354C13.378 25.3625 13.8813 25.8721 14.5 25.8721C15.1187 25.8721 15.622 25.3625 15.6221 24.7354C15.6221 24.1082 15.1188 23.5977 14.5 23.5977ZM4.12207 14.7842V21.0391H9.73145V14.7842H4.12207ZM14.5 16.7744C13.8812 16.7744 13.3779 17.2849 13.3779 17.9121C13.3781 18.5391 13.8814 19.0488 14.5 19.0488C15.1186 19.0488 15.6219 18.5391 15.6221 17.9121C15.6221 17.2849 15.1188 16.7744 14.5 16.7744ZM19.2686 14.2158H24.8779V7.96094H19.2686V14.2158ZM14.5 9.95117C13.8814 9.95117 13.3781 10.4609 13.3779 11.0879C13.3779 11.7151 13.8812 12.2256 14.5 12.2256C15.1188 12.2256 15.6221 11.7151 15.6221 11.0879C15.6219 10.4609 15.1186 9.95117 14.5 9.95117ZM4.12207 1.1377V7.39258H9.73145V1.1377H4.12207ZM14.5 3.12793C13.8813 3.12793 13.378 3.63748 13.3779 4.26465C13.3779 4.89184 13.8812 5.40234 14.5 5.40234C15.1188 5.40234 15.6221 4.89184 15.6221 4.26465C15.622 3.63748 15.1187 3.12793 14.5 3.12793Z" fill="white"/>
</svg>
