<svg width="18" height="18" viewBox="0 0 18 18" fill="none" xmlns="http://www.w3.org/2000/svg">
<path fill-rule="evenodd" clip-rule="evenodd" d="M0 12.8571V16.9286C0 17.2127 0.112712 17.4853 0.313712 17.6863C0.514712 17.8873 0.787286 18 1.07143 18H5.14286C5.37943 18 5.57143 17.808 5.57143 17.5714C5.57143 17.3349 5.37943 17.1429 5.14286 17.1429H1.07143C1.01443 17.1429 0.959998 17.1201 0.919713 17.0803C0.879856 17.04 0.857143 16.9856 0.857143 16.9286V12.8571C0.857143 12.6206 0.665143 12.4286 0.428571 12.4286C0.192 12.4286 0 12.6206 0 12.8571ZM12.8571 18H16.9286C17.2127 18 17.4853 17.8873 17.6863 17.6863C17.8873 17.4853 18 17.2127 18 16.9286V12.8571C18 12.6206 17.808 12.4286 17.5714 12.4286C17.3349 12.4286 17.1429 12.6206 17.1429 12.8571V16.9286C17.1429 16.9856 17.1201 17.04 17.0803 17.0803C17.04 17.1201 16.9856 17.1429 16.9286 17.1429H12.8571C12.6206 17.1429 12.4286 17.3349 12.4286 17.5714C12.4286 17.808 12.6206 18 12.8571 18ZM18 5.14286V1.07143C18 0.787286 17.8873 0.514712 17.6863 0.313712C17.4853 0.112712 17.2127 0 16.9286 0H12.8571C12.6206 0 12.4286 0.192 12.4286 0.428571C12.4286 0.665143 12.6206 0.857143 12.8571 0.857143H16.9286C16.9856 0.857143 17.04 0.879856 17.0803 0.919713C17.1201 0.959998 17.1429 1.01443 17.1429 1.07143V5.14286C17.1429 5.37943 17.3349 5.57143 17.5714 5.57143C17.808 5.57143 18 5.37943 18 5.14286ZM5.14286 0H1.07143C0.787286 0 0.514712 0.112712 0.313712 0.313712C0.112712 0.514712 0 0.787286 0 1.07143V5.14286C0 5.37943 0.192 5.57143 0.428571 5.57143C0.665143 5.57143 0.857143 5.37943 0.857143 5.14286V1.07143C0.857143 1.01443 0.879856 0.959998 0.919713 0.919713C0.959998 0.879856 1.01443 0.857143 1.07143 0.857143H5.14286C5.37943 0.857143 5.57143 0.665143 5.57143 0.428571C5.57143 0.192 5.37943 0 5.14286 0Z" fill="white"/>
<path fill-rule="evenodd" clip-rule="evenodd" d="M13.5001 6.42864H12.2011C12.1296 6.42864 12.0627 6.39263 12.0229 6.33306L11.2617 5.19135C11.0633 4.89349 10.7286 4.71436 10.3703 4.71436H7.63C7.27172 4.71436 6.93699 4.89349 6.73857 5.19135L5.97742 6.33306C5.93756 6.39263 5.87071 6.42864 5.79914 6.42864H4.50014C4.216 6.42864 3.94342 6.54135 3.74242 6.74235C3.54142 6.94335 3.42871 7.21593 3.42871 7.50007V12.2144C3.42871 12.8062 3.90828 13.2858 4.50014 13.2858H13.5001C14.092 13.2858 14.5716 12.8062 14.5716 12.2144V7.50007C14.5716 7.21593 14.4589 6.94335 14.2579 6.74235C14.0569 6.54135 13.7843 6.42864 13.5001 6.42864ZM12.2011 7.28578H13.5001C13.5571 7.28578 13.6116 7.3085 13.6519 7.34835C13.6917 7.38864 13.7144 7.44307 13.7144 7.50007V12.2144C13.7144 12.3326 13.6184 12.4286 13.5001 12.4286H4.50014C4.38185 12.4286 4.28585 12.3326 4.28585 12.2144V7.50007C4.28585 7.44307 4.30857 7.38864 4.34842 7.34835C4.38871 7.3085 4.44314 7.28578 4.50014 7.28578H5.79914C6.157 7.28578 6.49171 7.10665 6.69057 6.80879L7.45171 5.66708C7.49157 5.60751 7.55843 5.5715 7.63 5.5715H10.3703C10.4419 5.5715 10.5087 5.60751 10.5486 5.66708L11.3097 6.80879C11.5086 7.10665 11.8433 7.28578 12.2011 7.28578Z" fill="white"/>
<path fill-rule="evenodd" clip-rule="evenodd" d="M8.99997 7.28552C7.81743 7.28552 6.85742 8.24614 6.85742 9.42868C6.85742 10.6112 7.81743 11.5712 8.99997 11.5712C10.1825 11.5712 11.1431 10.6112 11.1431 9.42868C11.1431 8.24614 10.1825 7.28552 8.99997 7.28552ZM8.99997 8.14266C9.70938 8.14266 10.2854 8.71928 10.2854 9.42868C10.2854 10.1381 9.70938 10.7141 8.99997 10.7141C8.29057 10.7141 7.71456 10.1381 7.71456 9.42868C7.71456 8.71928 8.29057 8.14266 8.99997 8.14266Z" fill="white"/>
</svg>
