<svg width="16" height="16" viewBox="0 0 16 16" fill="none" xmlns="http://www.w3.org/2000/svg">
<path d="M13.647 0H2.3532C1.05601 0 0 1.05523 0 2.3532V13.6478C0 14.945 1.05523 16.001 2.3532 16.001H13.6478C14.945 16.001 16.001 14.9458 16.001 13.6478V2.3532C16.0002 1.05523 14.945 0 13.647 0ZM15.0589 13.647C15.0589 14.4252 14.426 15.0589 13.647 15.0589H2.3532C1.57505 15.0589 0.941281 14.426 0.941281 13.647V11.9447L4.73919 7.72459L9.8694 12.3881L12.7065 10.0239L15.0597 11.9846L15.0589 13.647ZM15.0589 10.76L12.7057 8.79934L9.89516 11.1408L4.67284 6.39228L0.941281 10.5383V2.3532C0.941281 1.57505 1.57427 0.941281 2.3532 0.941281H13.6478C14.426 0.941281 15.0597 1.57427 15.0597 2.3532L15.0589 10.76Z" fill="#8BA7C5"/>
<path d="M11.2946 7.05797C12.5918 7.05797 13.6478 6.00273 13.6478 4.70477C13.6478 3.4068 12.5926 2.35156 11.2946 2.35156C9.99742 2.35156 8.94141 3.4068 8.94141 4.70477C8.94141 6.00273 9.99664 7.05797 11.2946 7.05797ZM11.2946 3.29362C12.0728 3.29362 12.7065 3.92661 12.7065 4.70555C12.7065 5.48448 12.0735 6.11747 11.2946 6.11747C10.5157 6.11747 9.88269 5.48448 9.88269 4.70555C9.88269 3.92661 10.5157 3.29362 11.2946 3.29362Z" fill="#8BA7C5"/>
</svg>
