<svg width="37" height="37" viewBox="0 0 37 37" fill="none" xmlns="http://www.w3.org/2000/svg">
<path d="M31.2186 25.5625H6.1665V28.3644H31.2186V25.5625Z" stroke="#A5BBF6" stroke-width="2" stroke-linecap="round" stroke-linejoin="round"/>
<path d="M8.70898 25.2946C8.70898 25.2946 10.2718 24.229 10.4714 20.9573C10.6116 18.6412 11.1436 13.2731 11.7812 11.7637C12.6125 9.7946 13.4742 7.16043 18.9652 7.13296C20.9213 7.12284 24.0384 7.60717 25.6749 11.7869C26.5728 14.0769 26.9255 20.5959 27.0759 21.5226C27.2407 22.5332 27.4272 24.5948 28.5795 25.4305" stroke="#A5BBF6" stroke-width="2" stroke-linecap="round" stroke-linejoin="round"/>
<path d="M22.5957 28.3672C22.2935 30.2496 20.6612 31.6895 18.6921 31.6895C16.723 31.6895 15.0907 30.2496 14.7886 28.3672" stroke="#A5BBF6" stroke-width="2" stroke-linecap="round" stroke-linejoin="round"/>
<path d="M16.7725 6.92778C16.7725 5.86804 17.6327 5.00781 18.6924 5.00781C19.7522 5.00781 20.6124 5.86804 20.6124 6.92778" fill="#A5BBF6"/>
<path d="M16.7725 6.92778C16.7725 5.86804 17.6327 5.00781 18.6924 5.00781C19.7522 5.00781 20.6124 5.86804 20.6124 6.92778" stroke="#A5BBF6" stroke-width="2" stroke-linecap="round" stroke-linejoin="round"/>
</svg>
