<svg width="37" height="37" viewBox="0 0 37 37" fill="none" xmlns="http://www.w3.org/2000/svg">
<path d="M9.10441 13.1961C11.3656 13.1961 13.1986 11.3631 13.1986 9.10197C13.1986 6.84083 11.3656 5.00781 9.10441 5.00781C6.84327 5.00781 5.01025 6.84083 5.01025 9.10197C5.01025 11.3631 6.84327 13.1961 9.10441 13.1961Z" stroke="#8DC9E2" stroke-width="2"/>
<path d="M9.10441 31.8524C11.3656 31.8524 13.1986 30.0194 13.1986 27.7582C13.1986 25.4971 11.3656 23.6641 9.10441 23.6641C6.84327 23.6641 5.01025 25.4971 5.01025 27.7582C5.01025 30.0194 6.84327 31.8524 9.10441 31.8524Z" stroke="#8DC9E2" stroke-width="2"/>
<path d="M27.6791 22.5243C29.9403 22.5243 31.7733 20.6912 31.7733 18.4301C31.7733 16.169 29.9403 14.3359 27.6791 14.3359C25.418 14.3359 23.585 16.169 23.585 18.4301C23.585 20.6912 25.418 22.5243 27.6791 22.5243Z" stroke="#8DC9E2" stroke-width="2"/>
<path d="M12.6641 11.0859L23.5844 18.4307" stroke="#8DC9E2" stroke-width="2"/>
<path d="M23.5844 18.8516L12.6641 26.1963" stroke="#8DC9E2" stroke-width="2"/>
</svg>
