<svg width="37" height="37" viewBox="0 0 37 37" fill="none" xmlns="http://www.w3.org/2000/svg">
<path d="M17.3946 10.7199C17.6351 15.5626 10.6676 23.7218 10.5523 23.7218C10.4314 23.7218 3.39417 15.0796 3.71003 10.7199C3.99175 6.85476 6.77477 3.70312 10.5509 3.70312C14.3313 3.70312 17.2026 6.85038 17.3946 10.7199Z" stroke="#93C0EC" stroke-width="2"/>
<path d="M10.5541 14.4416C12.4086 14.4416 13.912 12.8999 13.912 10.9981C13.912 9.09637 12.4086 7.55469 10.5541 7.55469C8.69964 7.55469 7.19629 9.09637 7.19629 10.9981C7.19629 12.8999 8.69964 14.4416 10.5541 14.4416Z" stroke="#93C0EC" stroke-width="2"/>
<path d="M5.79443 16.7937V32.047L12.5357 29.0617L19.5502 32.3782L26.0183 29.568L32.3754 32.0412V11.4155L26.0723 9.05469L19.5445 11.1791L17.3363 10.079" stroke="#93C0EC" stroke-width="2"/>
<path d="M26.0308 9.03125V29.8627" stroke="#93C0EC" stroke-width="2"/>
<path d="M19.5444 32.2431V11.1797" stroke="#93C0EC" stroke-width="2"/>
<path d="M12.665 29.1274V20.9375" stroke="#93C0EC" stroke-width="2"/>
</svg>
