<svg width="20" height="18" viewBox="0 0 20 18" fill="none" xmlns="http://www.w3.org/2000/svg">
<path d="M19.17 0C19.39 0 19.5867 0.0833333 19.76 0.25C19.92 0.41 20 0.603333 20 0.83V16.67C20 16.8967 19.92 17.09 19.76 17.25C19.5867 17.4167 19.39 17.5 19.17 17.5H5.83C5.61 17.5 5.41333 17.4167 5.24 17.25C5.08 17.09 5 16.8967 5 16.67V13.75H0.83C0.61 13.75 0.413333 13.67 0.24 13.51C0.08 13.3367 0 13.14 0 12.92V4.58C0 4.36 0.08 4.16333 0.24 3.99C0.413333 3.83 0.61 3.75 0.83 3.75H5V0.83C5 0.603333 5.08 0.41 5.24 0.25C5.41333 0.0833333 5.61 0 5.83 0M5 9.81L6.18 12.03H7.97L6 8.81L7.93 5.64H6.22L5.13 7.65L5.09 7.71L5.06 7.78C4.88667 7.42667 4.7 7.07 4.5 6.71C4.33333 6.35667 4.15667 6 3.97 5.64H2.16L4.05 8.83L2 12.03H3.78M11.88 16.25V13.75H6.25V16.25M11.88 12.5V9.38H10V12.5M11.88 8.13V5H10V8.13M11.88 3.75V1.25H6.25V3.75M18.75 16.25V13.75H13.13V16.25M18.75 12.5V9.38H13.13V12.5M18.75 8.13V5H13.13V8.13M18.75 3.75V1.25H13.13V3.75H18.75Z" fill="#35723D"/>
</svg>
