<svg width="28" height="24" viewBox="0 0 28 24" fill="none" xmlns="http://www.w3.org/2000/svg">
<path d="M0 0H28V24H0V0Z" fill="white"/>
<path d="M0 23.232V0H28V5.088L0 23.232Z" fill="#DD7500"/>
<path d="M0 22.848V0H28V0.384L0 22.848ZM0 23.616V24H28V9.792L0 23.616Z" fill="#003893"/>
<path d="M5.38068 1.32031L5.56931 6.42847L6.22716 3.61375L5.93301 6.58687L7.01647 4.14559L6.25958 6.89407L7.69377 4.99231L6.52661 7.32799L8.21369 6.09631L6.71466 7.85983L8.54084 7.38079L6.81251 8.45311L9.9491 8.76031L6.81251 9.06751L8.54084 10.1389L6.71466 9.65983L8.21369 11.4243L6.52661 10.1917L7.69377 12.5274L6.25958 10.6266L7.01647 13.3741L5.93301 10.9328L6.22716 13.9069L5.56931 11.0922L5.38068 16.2003L5.19205 11.0922L4.5336 13.9069L4.82775 10.9328L3.74489 13.3741L4.50118 10.6266L3.06699 12.5274L4.23474 10.1917L2.54708 11.4243L4.04611 9.65983L2.22051 10.1389L3.94885 9.06751L0.812256 8.76031L3.94885 8.45311L2.22051 7.38079L4.04611 7.85983L2.54708 6.09631L4.23474 7.32799L3.06699 4.99231L4.50118 6.89407L3.74489 4.14559L4.82775 6.58687L4.5336 3.61375L5.19205 6.42847L5.38068 1.32031Z" fill="white"/>
</svg>
