<svg width="18" height="19" viewBox="0 0 18 19" fill="none" xmlns="http://www.w3.org/2000/svg">
<path d="M2.60742 11.5336V8.40625H10.6096V11.3781" stroke="#262B44" stroke-width="1.2"/>
<path d="M6.6084 4.89062V6.32433" stroke="#262B44" stroke-width="1.2"/>
<path d="M3.78101 8.40693V6.32422H9.43677V8.40693" stroke="#262B44" stroke-width="1.2"/>
<path d="M2.60737 17.9977L0.740723 12.3163L6.60843 9.76172L12.5218 12.1806L10.6095 17.9977" stroke="#262B44" stroke-width="1.2"/>
<path d="M1.26807 13.882L6.60742 11.5352L11.8429 13.882" stroke="#262B44" stroke-width="1.2"/>
<path d="M6.63208 9.73438V15.1558" stroke="#262B44" stroke-width="1.2"/>
<path d="M0.844482 18H12.3914" stroke="#262B44" stroke-width="1.2"/>
<path d="M11.6493 0.325722L10.4552 2.74678L7.78353 3.13627C7.30442 3.20576 7.11241 3.7964 7.45986 4.13469L9.39275 6.01814L8.93559 8.67875C8.8533 9.15967 9.35984 9.5199 9.78408 9.29498L12.1741 8.03874L14.5642 9.29498C14.9884 9.51807 15.495 9.15967 15.4127 8.67875L14.9555 6.01814L16.8884 4.13469C17.2359 3.7964 17.0439 3.20576 16.5647 3.13627L13.8931 2.74678L12.699 0.325722C12.485 -0.105827 11.8651 -0.111312 11.6493 0.325722Z" fill="#262B44"/>
</svg>
