<svg width="30" height="30" viewBox="0 0 30 30" fill="none" xmlns="http://www.w3.org/2000/svg">
<path d="M13.467 23L13.1146 20.2742C12.8589 20.1918 12.5915 20.075 12.3124 19.9237C12.0332 19.7724 11.7906 19.6125 11.5845 19.4438L9.04237 20.4958L7 16.9906L9.22122 15.3364C9.19701 15.2056 9.18112 15.0755 9.17356 14.946C9.16616 14.8165 9.16245 14.6738 9.16245 14.5179C9.16245 14.4003 9.16808 14.2714 9.17934 14.1312C9.19076 13.991 9.20711 13.829 9.2284 13.6451L7 12.0051L9.04237 8.5359L11.6072 9.59747C11.8177 9.42595 12.0509 9.26713 12.3066 9.12102C12.5622 8.97507 12.8286 8.85202 13.1058 8.75187L13.467 6H17.533L17.8854 8.7352C18.1726 8.83931 18.4305 8.95977 18.6591 9.09659C18.8879 9.23327 19.1168 9.40023 19.3458 9.59747L21.9576 8.5359L24 12.0051L21.6872 13.7093C21.7174 13.8562 21.7347 13.9887 21.7392 14.107C21.7437 14.2252 21.7459 14.3586 21.7459 14.507C21.7459 14.6496 21.7429 14.783 21.7369 14.9072C21.731 15.0314 21.7121 15.1738 21.68 15.3345L23.9565 16.9906L21.9141 20.4958L19.3458 19.4167C19.1341 19.5923 18.9139 19.7472 18.6855 19.8813C18.457 20.0152 18.1903 20.143 17.8854 20.2648L17.533 23H13.467ZM14.5781 21.7225H16.3736L16.719 19.2649C17.1774 19.1431 17.5928 18.9751 17.965 18.7608C18.3373 18.5465 18.7012 18.2632 19.0566 17.9108L21.3676 18.8829L22.2674 17.3511L20.241 15.8562C20.3105 15.6197 20.3598 15.3915 20.3891 15.1715C20.4186 14.9515 20.4333 14.7299 20.4333 14.507C20.4333 14.2755 20.4205 14.0565 20.3949 13.8499C20.3695 13.6432 20.3182 13.4199 20.241 13.1799L22.2853 11.6512L21.4042 10.1173L19.0407 11.1033C18.7605 10.8012 18.4042 10.5249 17.9717 10.2744C17.5392 10.0239 17.118 9.84883 16.7081 9.74929L16.4173 7.27754H14.5866L14.2919 9.73377C13.8043 9.85126 13.3761 10.0124 13.0075 10.2173C12.6387 10.4222 12.2641 10.7099 11.8839 11.0805L9.59582 10.1173L8.69183 11.6512L10.6833 13.1096C10.6062 13.3385 10.5522 13.5671 10.5213 13.7956C10.4905 14.024 10.4751 14.2608 10.4751 14.5058C10.4751 14.7346 10.4886 14.9593 10.5155 15.18C10.5425 15.4007 10.5917 15.6322 10.6629 15.8747L8.69183 17.3488L9.59582 18.8829L11.868 17.9241C12.2363 18.2875 12.613 18.5767 12.998 18.7916C13.383 19.0064 13.8107 19.1708 14.281 19.285L14.5781 21.7225ZM15.4673 17.1566C16.2103 17.1566 16.8426 16.8988 17.3643 16.3833C17.8862 15.868 18.1471 15.243 18.1471 14.5083C18.1471 13.7737 17.8859 13.149 17.3636 12.6343C16.8415 12.1194 16.2083 11.8619 15.464 11.8619C14.714 11.8619 14.0794 12.1197 13.56 12.6352C13.0406 13.1505 12.781 13.7755 12.781 14.5102C12.781 15.2448 13.0406 15.8695 13.56 16.3842C14.0794 16.8991 14.7151 17.1566 15.4673 17.1566Z" fill="white"/>
</svg>
