<svg width="30" height="30" viewBox="0 0 30 30" fill="none" xmlns="http://www.w3.org/2000/svg">
<path d="M6.45605 18.3623H22.5439C23.1789 18.3623 23.7197 18.5877 24.1729 19.043C24.6256 19.4982 24.8496 20.0416 24.8496 20.6807V26.8496H4.15039V20.6768C4.15048 20.0378 4.37442 19.4952 4.82715 19.041C5.2803 18.5869 5.82102 18.3623 6.45605 18.3623ZM6.45605 20.085C6.29002 20.085 6.14306 20.1424 6.0293 20.2598C5.91797 20.375 5.86328 20.5187 5.86328 20.6807V25.127H23.1367V20.6807C23.1367 20.5187 23.082 20.375 22.9707 20.2598C22.8569 20.1424 22.71 20.085 22.5439 20.085H6.45605ZM10.4932 3.15039H18.499C20.2594 3.15039 21.7546 3.77066 22.9932 5.01465C24.2318 6.25896 24.8496 7.75956 24.8496 9.52539C24.8496 11.2963 24.231 12.8009 22.9912 14.0469C21.7516 15.2924 20.2567 15.914 18.498 15.9141H10.4951C8.73395 15.9141 7.23907 15.2923 6.00293 14.0459C4.76663 12.7995 4.15041 11.2952 4.15039 9.52539C4.15039 7.75583 4.76804 6.25401 6.00586 5.01172C7.24371 3.76955 8.73659 3.15039 10.4932 3.15039ZM10.499 4.87305C9.205 4.87309 8.10553 5.32517 7.20898 6.22656C6.31229 7.12811 5.86328 8.23204 5.86328 9.5293C5.86337 10.8264 6.31223 11.9309 7.20898 12.834C8.10589 13.7375 9.20452 14.1904 10.4961 14.1904H18.4922C19.7868 14.1904 20.8889 13.738 21.7881 12.835C22.687 11.9321 23.1367 10.8264 23.1367 9.52734C23.1367 8.22804 22.6871 7.12349 21.7881 6.22363C20.8889 5.32406 19.7866 4.87305 18.4922 4.87305H10.499ZM10.4805 8.49805C10.7623 8.49813 11.0008 8.59729 11.2031 8.7998C11.4049 9.00198 11.5038 9.24141 11.5039 9.52637C11.5039 9.81133 11.4043 10.0508 11.2012 10.2529C10.9973 10.4555 10.759 10.5547 10.4785 10.5547C10.1982 10.5546 9.96122 10.4554 9.75977 10.2529C9.55864 10.0511 9.459 9.81058 9.45898 9.52246C9.45898 9.24025 9.55822 9.00141 9.75977 8.79883C9.96108 8.59662 10.1989 8.49805 10.4805 8.49805ZM18.4941 8.49805C18.7761 8.49805 19.0144 8.59721 19.2168 8.7998C19.4188 9.00204 19.5185 9.24129 19.5186 9.52637C19.5186 9.81123 19.4188 10.0509 19.2158 10.2529C19.0118 10.4555 18.7733 10.5546 18.4932 10.5547C18.2128 10.5547 17.9752 10.4555 17.7734 10.2529C17.5726 10.0512 17.4736 9.81057 17.4736 9.52246C17.4736 9.24025 17.5719 9.00141 17.7734 8.79883C17.9748 8.59648 18.2125 8.49809 18.4941 8.49805Z" fill="#04C2C3" stroke="#011C2F" stroke-width="0.3"/>
</svg>
