<svg width="30" height="30" viewBox="0 0 30 30" fill="none" xmlns="http://www.w3.org/2000/svg">
<path d="M10.8653 5.02211C11.2514 4.85326 11.7017 5.02942 11.8703 5.41622C12.0388 5.80301 11.8621 6.25343 11.4762 6.42241C9.99156 7.07171 8.68799 8.07612 7.67988 9.3469C6.67181 10.6177 5.98963 12.1167 5.69308 13.7128C5.39656 15.3087 5.49429 16.9533 5.9784 18.5026C6.46251 20.0518 7.31841 21.4583 8.47029 22.5997C9.62224 23.7411 11.0357 24.5828 12.5869 25.0502C14.1381 25.5176 15.7799 25.597 17.3688 25.2816C18.9578 24.9662 20.4459 24.2656 21.7023 23.2409C22.9586 22.2161 23.9454 20.898 24.5763 19.4028C24.7405 19.0143 25.1875 18.8326 25.5753 18.9967C25.9634 19.1611 26.1454 19.6096 25.9813 19.9984C25.2534 21.7235 24.115 23.2438 22.6655 24.4262C21.2159 25.6086 19.4988 26.4172 17.6653 26.7812C15.8319 27.1451 13.9373 27.0533 12.1474 26.514C10.3575 25.9746 8.72667 25.0041 7.39754 23.6872C6.06841 22.3703 5.08133 20.7469 4.52274 18.9594C3.96416 17.1718 3.85131 15.2743 4.19347 13.4328C4.53563 11.5913 5.32254 9.86145 6.48571 8.39521C7.64876 6.92923 9.15254 5.77128 10.8653 5.02211Z" fill="#04C2C3"/>
<path d="M15.3197 4C16.8534 4 18.3723 4.30179 19.7893 4.88874C21.2063 5.47573 22.4938 6.33656 23.5783 7.42116C24.6629 8.50576 25.5235 9.7932 26.1104 11.2103C26.6974 12.6273 26.9993 14.1461 26.9993 15.6798C26.9993 16.1097 26.6507 16.4583 26.2207 16.4583H15.3197C14.8896 16.4583 14.541 16.1098 14.541 15.6798V4.7785C14.541 4.57203 14.6231 4.37407 14.7691 4.22808C14.9152 4.08208 15.1132 4 15.3197 4ZM16.0983 14.9013H25.4116C25.3297 13.8387 25.0808 12.794 24.6718 11.8063C24.1631 10.5782 23.4172 9.46199 22.4773 8.52201C21.5373 7.58201 20.4212 6.83662 19.1931 6.32791C18.2055 5.91878 17.1609 5.66864 16.0983 5.58666V14.9013Z" fill="#04C2C3"/>
</svg>
