<svg width="30" height="30" viewBox="0 0 30 30" fill="none" xmlns="http://www.w3.org/2000/svg">
<path d="M22.0029 2.34082C21.8809 2.21968 21.6846 2.21976 21.5625 2.34082V2.33984L15.792 8.11719V8.11621C15.6707 8.2385 15.6708 8.43623 15.792 8.55859L15.793 8.55957L17.2861 10.0801L17.46 10.2568L17.2842 10.4316L15.792 11.9258L15.6162 12.1016L15.4395 11.9277L12.5566 9.08496L12.5557 9.08398C12.4488 8.97813 12.285 8.96437 12.1641 9.04395L12.1152 9.08398L11.5234 9.67578L11.3467 9.50781L6.53223 4.91309L6.52539 4.90625C6.46969 4.84875 6.39063 4.81445 6.30859 4.81445C6.22787 4.81448 6.14947 4.84779 6.09082 4.90723L6.08887 4.90918L3.67773 7.32227V7.32324C3.55685 7.44529 3.55732 7.64033 3.67773 7.7627L8.49219 12.3496L8.67676 12.5254L8.49609 12.707L8.07715 13.126C7.95602 13.2481 7.9563 13.445 8.07715 13.5674L10.9375 16.4316L11.1152 16.6084L10.9375 16.7852L9.42285 18.293L9.24609 18.4688L9.06934 18.292L7.55078 16.7686L7.55176 16.7676C7.44496 16.662 7.28099 16.6501 7.16016 16.7295L7.11133 16.7686L1.34082 22.5439V22.5449C1.22141 22.6656 1.2207 22.8579 1.33691 22.9805L1.33984 22.9844L5.17383 26.8213C5.23603 26.8825 5.32158 26.9158 5.40918 26.9131H5.41699C5.49796 26.9131 5.57764 26.8804 5.63574 26.8223L11.4072 21.0459C11.5275 20.9254 11.5275 20.727 11.4072 20.6064L9.88281 19.085L9.70605 18.9082L9.88281 18.7314L11.376 17.2363L11.5527 17.0596L11.7295 17.2363L14.7383 20.2432L14.8975 20.4033L14.7549 20.5781C13.0419 22.6812 13.1964 25.7394 15.1104 27.6582C15.1706 27.7175 15.2504 27.75 15.333 27.75C15.4152 27.75 15.4924 27.7176 15.5508 27.6592L20.7061 22.499L20.8828 22.3223L21.0596 22.499L23.6064 25.0479L23.7324 25.1738L23.6543 25.333C23.4165 25.8244 23.4729 26.4069 23.7998 26.8438C24.1289 27.2797 24.673 27.496 25.209 27.4023L25.4062 27.3545C25.8522 27.2118 26.2068 26.8603 26.3486 26.4053V26.4043L26.3955 26.208C26.4724 25.7469 26.3224 25.2714 25.9844 24.9355C25.5406 24.5152 24.8863 24.4065 24.332 24.6621L24.1738 24.7354L24.0508 24.6123L21.499 22.0586L21.3232 21.8818L21.499 21.7051L26.6602 16.5439C26.7799 16.4219 26.7799 16.2265 26.6602 16.1045C24.7709 14.2148 21.7739 14.038 19.6777 15.6758V16.1592L19.251 15.7314L16.2471 12.7197L16.0713 12.543L16.2471 12.3662L17.7402 10.8721L17.917 10.6953L18.0947 10.8721L19.6123 12.3955C19.7344 12.5168 19.9316 12.5168 20.0537 12.3955H20.0527L25.8242 6.63184C25.9296 6.52448 25.9419 6.35994 25.8633 6.24023L25.8232 6.19141L22.0029 2.34082ZM19.6328 16.5439C21.2918 14.8923 23.9173 14.7244 25.7734 16.1543L25.998 16.3281L25.7979 16.5293L15.5361 26.8008L15.3359 27.001L15.1621 26.7773C14.5661 26.0117 14.2253 25.0784 14.1895 24.1113L14.1865 23.918C14.1868 22.6777 14.6817 21.4891 15.5645 20.6172H15.5635L19.6328 16.5449V16.5439ZM24.3711 25.3691C24.6753 25.0714 25.1506 25.0519 25.4756 25.3135L25.5322 25.3633C25.6997 25.5168 25.7951 25.7334 25.7998 25.958C25.8044 26.1827 25.7185 26.4014 25.5586 26.5615C25.3986 26.7217 25.1799 26.8084 24.9551 26.8037C24.7334 26.7991 24.5211 26.7045 24.3682 26.541L24.3672 26.542C24.0482 26.218 24.0497 25.6978 24.3672 25.373L24.3711 25.3691ZM10.749 20.8291L10.5723 21.0059L5.60742 25.9727L5.43066 26.1494L5.25391 25.9717L2.21191 22.9277L2.03613 22.751L2.21191 22.5742L7.16895 17.6025L7.3457 17.4258L10.749 20.8291ZM12.5439 9.90137L15.4053 12.7656L18.7852 16.1494L18.9619 16.3262L18.7852 16.5029L15.5098 19.7822L15.333 19.959L15.1563 19.7822L8.91406 13.5342L8.73828 13.3574L8.91406 13.1807L12.1904 9.90137L12.3672 9.72461L12.5439 9.90137ZM6.49512 5.75684L10.915 9.95117L11.1006 10.1279L10.9199 10.3086L9.30078 11.9297L9.12891 12.1016L8.95215 11.9346L4.53223 7.74023L4.3457 7.56348L4.52734 7.38184L6.14648 5.76172L6.31836 5.58887L6.49512 5.75684ZM21.9258 3.20898L24.9688 6.23633L25.1475 6.41406L24.9697 6.59082L19.9863 11.5605L19.8086 11.7373L19.6328 11.5596L16.6074 8.51172L16.4316 8.33496L16.6084 8.15918L21.5732 3.20898L21.75 3.0332L21.9258 3.20898Z" fill="#04C2C3" stroke="#04C2C3" stroke-width="0.5"/>
</svg>
