<svg width="30" height="30" viewBox="0 0 30 30" fill="none" xmlns="http://www.w3.org/2000/svg">
<path d="M15.3182 14.798C14.3776 14.798 13.5759 14.4667 12.9132 13.804C12.2506 13.1413 11.9193 12.3397 11.9193 11.399C11.9193 10.4583 12.2506 9.65667 12.9132 8.994C13.5759 8.33133 14.3776 8 15.3182 8C16.2589 8 17.0606 8.33133 17.7232 8.994C18.3859 9.65667 18.7173 10.4583 18.7173 11.399C18.7173 12.3397 18.3859 13.1413 17.7232 13.804C17.0606 14.4667 16.2589 14.798 15.3182 14.798ZM8 22.1307V20.0288C8 19.5518 8.1275 19.1134 8.3825 18.7137C8.63767 18.3139 8.985 18.0051 9.4245 17.7872C10.4013 17.3159 11.3809 16.9603 12.3632 16.7205C13.3454 16.4805 14.3305 16.3605 15.3185 16.3605C16.3063 16.3605 17.2917 16.4804 18.2747 16.7203C19.2576 16.9599 20.2371 17.3154 21.2132 17.7867C21.6524 18.0047 21.9994 18.3137 22.2542 18.7135C22.5091 19.1133 22.6365 19.5518 22.6365 20.0288V22.1307H8ZM9.399 20.7317H21.2375V20.03C21.2375 19.8235 21.1788 19.6335 21.0615 19.46C20.9442 19.2867 20.7823 19.1439 20.576 19.0317C19.7187 18.6124 18.8513 18.2956 17.974 18.0812C17.0965 17.8667 16.2111 17.7595 15.3178 17.7595C14.4184 17.7595 13.5315 17.8667 12.657 18.0812C11.7825 18.2956 10.9187 18.6124 10.0655 19.0317C9.85583 19.1439 9.69233 19.287 9.575 19.461C9.45767 19.635 9.399 19.8243 9.399 20.0288V20.7317ZM15.3182 13.399C15.8682 13.399 16.3391 13.2032 16.7307 12.8115C17.1224 12.4198 17.3182 11.949 17.3182 11.399C17.3182 10.849 17.1224 10.3782 16.7307 9.9865C16.3391 9.59483 15.8682 9.399 15.3182 9.399C14.7682 9.399 14.2974 9.59483 13.9057 9.9865C13.5141 10.3782 13.3182 10.849 13.3182 11.399C13.3182 11.949 13.5141 12.4198 13.9057 12.8115C14.2974 13.2032 14.7682 13.399 15.3182 13.399Z" fill="white"/>
</svg>
