<svg width="30" height="30" viewBox="0 0 30 30" fill="none" xmlns="http://www.w3.org/2000/svg">
<rect width="30" height="30" fill="#01B3B4"/>
<path d="M9.57078 23.0821C10.1489 23.0821 10.727 23.0821 11.3051 23.0821C12.6553 23.0821 14.0056 23.0821 15.3558 23.0821C16.9019 23.0821 18.448 23.0821 19.9942 23.0821C21.16 23.0821 22.3258 23.0821 23.4917 23.0821C23.7732 23.0821 24.0547 23.0821 24.3363 23.0821C24.6974 23.0821 24.9988 22.7818 24.9988 22.4219C24.9988 22.062 24.6974 21.7617 24.3363 21.7617C23.7581 21.7617 23.18 21.7617 22.6019 21.7617C21.2517 21.7617 19.9015 21.7617 18.5512 21.7617C17.0051 21.7617 15.459 21.7617 13.9129 21.7617C12.747 21.7617 11.5812 21.7617 10.4153 21.7617C10.1338 21.7617 9.8523 21.7617 9.57076 21.7617C9.20959 21.7617 8.9082 22.062 8.9082 22.4219C8.9082 22.7818 9.20962 23.0821 9.57078 23.0821Z" fill="white"/>
<path d="M7.59159 21.1535C7.67933 21.1542 7.7662 21.16 7.85323 21.171C7.79452 21.1631 7.73582 21.1553 7.67711 21.1474C7.77242 21.1611 7.86589 21.1809 7.95855 21.2071C8.00912 21.2214 8.05867 21.239 8.10787 21.2575C8.17083 21.2825 8.147 21.2722 8.03645 21.2267C8.06511 21.239 8.09312 21.2527 8.12112 21.2665C8.20469 21.3074 8.28408 21.3564 8.36075 21.4089C8.50081 21.5048 8.24317 21.3099 8.37324 21.4186C8.41264 21.4515 8.44989 21.4869 8.48652 21.5228C8.51583 21.5516 8.54352 21.5819 8.57092 21.6124C8.58453 21.6278 8.59787 21.6434 8.61096 21.6592C8.6898 21.7529 8.51018 21.5245 8.58292 21.623C8.6442 21.7061 8.69666 21.7953 8.74375 21.8869C8.76734 21.9328 8.8288 22.0819 8.74129 21.871C8.76133 21.9194 8.77818 21.9689 8.79415 22.0187C8.82667 22.1199 8.84803 22.2243 8.86322 22.3293C8.85535 22.2708 8.84744 22.2123 8.83956 22.1538C8.86173 22.3277 8.86173 22.5014 8.83956 22.6752C8.84744 22.6168 8.85535 22.5582 8.86322 22.4997C8.84948 22.5947 8.8296 22.6879 8.80329 22.7802C8.78892 22.8306 8.77125 22.88 8.75277 22.929C8.72769 22.9917 8.73798 22.968 8.78367 22.8578C8.77127 22.8864 8.7575 22.9143 8.74373 22.9422C8.70263 23.0254 8.6535 23.1046 8.60081 23.181C8.50455 23.3206 8.70021 23.0638 8.5911 23.1934C8.55805 23.2327 8.52255 23.2698 8.48649 23.3063C8.45765 23.3355 8.42719 23.3631 8.39655 23.3904C8.3811 23.4039 8.36546 23.4173 8.34958 23.4303C8.25559 23.5088 8.48481 23.3298 8.38593 23.4023C8.30259 23.4634 8.21307 23.5157 8.12109 23.5626C8.07505 23.5861 7.92538 23.6473 8.13702 23.5601C8.08853 23.5801 8.03877 23.5969 7.98882 23.6128C7.88726 23.6452 7.78248 23.6665 7.67709 23.6816C7.73579 23.6738 7.7945 23.6659 7.85321 23.6581C7.6787 23.6802 7.50444 23.6802 7.32993 23.6581C7.38864 23.6659 7.44735 23.6738 7.50608 23.6816C7.41074 23.668 7.31727 23.6482 7.22463 23.6219C7.17407 23.6076 7.12452 23.59 7.07532 23.5716C7.01238 23.5466 7.03618 23.5569 7.14674 23.6024C7.1181 23.5901 7.09006 23.5763 7.06207 23.5626C6.97852 23.5216 6.89911 23.4727 6.82244 23.4202C6.68238 23.3243 6.94002 23.5192 6.80995 23.4105C6.77055 23.3776 6.7333 23.3422 6.69665 23.3063C6.66733 23.2775 6.63965 23.2472 6.61224 23.2166C6.59864 23.2013 6.58529 23.1856 6.57221 23.1698C6.49336 23.0762 6.67299 23.3046 6.60025 23.2061C6.53896 23.123 6.4865 23.0338 6.43941 22.9422C6.41582 22.8963 6.35437 22.7471 6.44187 22.9581C6.42183 22.9097 6.40498 22.8602 6.38901 22.8104C6.3565 22.7092 6.33513 22.6048 6.31994 22.4997C6.32782 22.5582 6.33572 22.6167 6.3436 22.6752C6.32141 22.5013 6.32141 22.3277 6.3436 22.1538C6.33572 22.2123 6.32782 22.2708 6.31994 22.3293C6.33369 22.2343 6.35356 22.1412 6.37988 22.0488C6.39424 21.9985 6.41192 21.9491 6.4304 21.9001C6.45548 21.8373 6.44519 21.8611 6.39949 21.9712C6.41189 21.9427 6.42566 21.9148 6.43944 21.8869C6.48054 21.8036 6.52966 21.7245 6.58236 21.6481C6.67862 21.5085 6.48295 21.7653 6.59206 21.6356C6.62509 21.5964 6.66061 21.5593 6.69667 21.5228C6.72554 21.4936 6.75599 21.466 6.78664 21.4387C6.80209 21.4251 6.81773 21.4118 6.83361 21.3988C6.9276 21.3202 6.69838 21.4992 6.79726 21.4267C6.8806 21.3657 6.97012 21.3134 7.06209 21.2665C7.10814 21.243 7.25781 21.1817 7.04617 21.2689C7.09468 21.2489 7.14442 21.2322 7.19437 21.2162C7.29593 21.1839 7.40071 21.1626 7.5061 21.1474C7.44739 21.1553 7.38869 21.1631 7.32996 21.171C7.41701 21.16 7.50388 21.1542 7.59159 21.1535C7.95271 21.1504 8.25415 20.8554 8.25415 20.4932C8.25415 20.1356 7.95278 19.83 7.59159 19.833C6.91319 19.8387 6.272 20.1017 5.78169 20.5676C5.29414 21.0308 5.03018 21.6844 5.00202 22.3485C4.97344 23.0233 5.2497 23.6762 5.69586 24.1733C6.146 24.6748 6.79665 24.9414 7.45958 24.9917C8.14007 25.0433 8.79695 24.7732 9.31021 24.3442C9.82951 23.9102 10.0997 23.2682 10.1723 22.611C10.2068 22.2993 10.1625 21.9666 10.0719 21.6677C9.9668 21.3208 9.78959 21.0312 9.5674 20.7495C9.15137 20.2219 8.50682 19.9334 7.85323 19.8506C7.7662 19.8395 7.67931 19.8338 7.59159 19.833C7.23041 19.83 6.92904 20.1356 6.92904 20.4932C6.92904 20.8554 7.23048 21.1504 7.59159 21.1535Z" fill="white"/>
<path d="M20.7719 15.6486C21.9165 15.6486 23.0611 15.6486 24.2058 15.6486C24.2493 15.6486 24.2929 15.6486 24.3364 15.6486C24.6976 15.6486 24.999 15.3482 24.999 14.9883C24.999 14.6285 24.6976 14.3281 24.3364 14.3281C23.1918 14.3281 22.0472 14.3281 20.9026 14.3281C20.859 14.3281 20.8155 14.3281 20.7719 14.3281C20.4107 14.3281 20.1094 14.6285 20.1094 14.9883C20.1094 15.3482 20.4108 15.6486 20.7719 15.6486Z" fill="white"/>
<path d="M5.66451 15.6486C6.3918 15.6486 7.11912 15.6486 7.84642 15.6486C9.34623 15.6486 10.846 15.6486 12.3458 15.6486C13.595 15.6486 14.8441 15.6486 16.0932 15.6486C16.3041 15.6486 16.515 15.6486 16.7259 15.6486C17.0871 15.6486 17.3885 15.3482 17.3885 14.9883C17.3885 14.6285 17.0871 14.3281 16.7259 14.3281C15.9986 14.3281 15.2713 14.3281 14.544 14.3281C13.0442 14.3281 11.5444 14.3281 10.0446 14.3281C8.79548 14.3281 7.54635 14.3281 6.29722 14.3281C6.08632 14.3281 5.87541 14.3281 5.66451 14.3281C5.30334 14.3281 5.00195 14.6285 5.00195 14.9883C5.00195 15.3482 5.30334 15.6486 5.66451 15.6486Z" fill="white"/>
<path d="M18.7557 13.7443C18.8434 13.745 18.9303 13.7508 19.0173 13.7618C18.9586 13.754 18.8999 13.7461 18.8412 13.7382C18.9365 13.7519 19.03 13.7717 19.1226 13.798C19.1732 13.8123 19.2227 13.8299 19.2719 13.8483C19.3349 13.8733 19.3111 13.863 19.2005 13.8175C19.2292 13.8299 19.2572 13.8436 19.2852 13.8573C19.3687 13.8983 19.4481 13.9472 19.5248 13.9997C19.6649 14.0957 19.4072 13.9007 19.5373 14.0094C19.5767 14.0423 19.6139 14.0777 19.6506 14.1136C19.6799 14.1424 19.7076 14.1728 19.735 14.2033C19.7486 14.2187 19.7619 14.2343 19.775 14.2501C19.8538 14.3438 19.6742 14.1153 19.747 14.2139C19.8082 14.2969 19.8607 14.3861 19.9078 14.4778C19.9314 14.5237 19.9928 14.6728 19.9053 14.4619C19.9254 14.5102 19.9422 14.5598 19.9582 14.6096C19.9907 14.7108 20.0121 14.8152 20.0273 14.9202C20.0194 14.8617 20.0115 14.8032 20.0036 14.7447C20.0258 14.9186 20.0258 15.0922 20.0036 15.2661C20.0115 15.2076 20.0194 15.1491 20.0273 15.0906C20.0135 15.1856 19.9937 15.2788 19.9673 15.3711C19.953 15.4215 19.9353 15.4708 19.9168 15.5199C19.8917 15.5826 19.902 15.5589 19.9477 15.4487C19.9354 15.4772 19.9216 15.5052 19.9078 15.5331C19.8667 15.6163 19.8176 15.6954 19.7649 15.7718C19.6686 15.9114 19.8643 15.6547 19.7552 15.7843C19.7221 15.8235 19.6866 15.8607 19.6506 15.8972C19.6217 15.9264 19.5912 15.954 19.5606 15.9813C19.5452 15.9948 19.5295 16.0081 19.5136 16.0211C19.4196 16.0997 19.6489 15.9207 19.55 15.9932C19.4666 16.0543 19.3771 16.1065 19.2852 16.1535C19.2391 16.177 19.0894 16.2382 19.3011 16.151C19.2526 16.171 19.2029 16.1878 19.1529 16.2037C19.0513 16.2361 18.9466 16.2574 18.8411 16.2725C18.8999 16.2647 18.9586 16.2568 19.0173 16.2489C18.8428 16.2711 18.6685 16.2711 18.494 16.2489C18.5527 16.2568 18.6114 16.2647 18.6701 16.2725C18.5748 16.2588 18.4813 16.239 18.3887 16.2128C18.3381 16.1985 18.2886 16.1809 18.2394 16.1625C18.1764 16.1375 18.2002 16.1477 18.3108 16.1933C18.2821 16.1809 18.2541 16.1672 18.2261 16.1535C18.1426 16.1125 18.0632 16.0636 17.9865 16.011C17.8464 15.9151 18.1041 16.1101 17.974 16.0014C17.9346 15.9685 17.8974 15.9331 17.8607 15.8971C17.8314 15.8684 17.8037 15.838 17.7763 15.8075C17.7627 15.7921 17.7494 15.7765 17.7363 15.7607C17.6575 15.667 17.8371 15.8955 17.7644 15.7969C17.7031 15.7139 17.6506 15.6247 17.6035 15.533C17.5799 15.4872 17.5185 15.338 17.606 15.5489C17.5859 15.5006 17.5691 15.451 17.5531 15.4012C17.5206 15.3 17.4992 15.1956 17.484 15.0906C17.4919 15.1491 17.4998 15.2076 17.5077 15.2661C17.4855 15.0922 17.4855 14.9186 17.5077 14.7447C17.4998 14.8032 17.4919 14.8617 17.484 14.9202C17.4978 14.8252 17.5176 14.7321 17.544 14.6397C17.5583 14.5894 17.576 14.54 17.5945 14.491C17.6196 14.4282 17.6093 14.452 17.5636 14.5621C17.576 14.5336 17.5898 14.5056 17.6035 14.4778C17.6446 14.3945 17.6937 14.3154 17.7464 14.239C17.8427 14.0994 17.6471 14.3561 17.7561 14.2265C17.7892 14.1873 17.8247 14.1501 17.8608 14.1136C17.8896 14.0844 17.9201 14.0568 17.9507 14.0295C17.9662 14.016 17.9818 14.0027 17.9977 13.9896C18.0917 13.9111 17.8624 14.09 17.9613 14.0176C18.0447 13.9565 18.1342 13.9042 18.2262 13.8573C18.2722 13.8338 18.4219 13.7725 18.2102 13.8597C18.2587 13.8398 18.3085 13.823 18.3584 13.8071C18.46 13.7747 18.5647 13.7534 18.6702 13.7382C18.6115 13.7461 18.5527 13.754 18.494 13.7618C18.581 13.7508 18.6679 13.745 18.7557 13.7443C19.1168 13.7412 19.4182 13.4463 19.4182 13.0841C19.4182 12.7265 19.1169 12.4208 18.7557 12.4239C18.0772 12.4296 17.4361 12.6926 16.9457 13.1584C16.4582 13.6216 16.1942 14.2752 16.1661 14.9393C16.1375 15.6141 16.4138 16.267 16.8599 16.7641C17.3101 17.2656 17.9607 17.5322 18.6236 17.5825C19.3042 17.6341 19.961 17.364 20.4743 16.935C20.9936 16.501 21.2638 15.859 21.3364 15.2018C21.3708 14.8901 21.3266 14.5574 21.236 14.2585C21.1309 13.9116 20.9537 13.622 20.7315 13.3403C20.3155 12.8128 19.6709 12.5242 19.0173 12.4414C18.9303 12.4304 18.8434 12.4246 18.7557 12.4239C18.3944 12.4208 18.0931 12.7265 18.0931 13.0841C18.0931 13.4463 18.3945 13.7412 18.7557 13.7443Z" fill="white"/>
<path d="M13.6665 8.24133C14.4142 8.24133 15.1618 8.24133 15.9095 8.24133C17.4191 8.24133 18.9287 8.24133 20.4383 8.24133C21.6095 8.24133 22.7808 8.24133 23.952 8.24133C24.0796 8.24133 24.2071 8.24133 24.3347 8.24133C24.6959 8.24133 24.9972 7.941 24.9972 7.58111C24.9972 7.22122 24.6959 6.9209 24.3347 6.9209C23.587 6.9209 22.8393 6.9209 22.0916 6.9209C20.582 6.9209 19.0725 6.9209 17.5629 6.9209C16.3916 6.9209 15.2204 6.9209 14.0491 6.9209C13.9215 6.9209 13.794 6.9209 13.6665 6.9209C13.3053 6.9209 13.0039 7.22122 13.0039 7.58111C13.0039 7.941 13.3053 8.24133 13.6665 8.24133Z" fill="white"/>
<path d="M5.66451 8.24133C6.84251 8.24133 8.02048 8.24133 9.19848 8.24133C9.33974 8.24133 9.48101 8.24133 9.62228 8.24133C9.98344 8.24133 10.2848 7.941 10.2848 7.58111C10.2848 7.22122 9.98344 6.9209 9.62228 6.9209C8.44428 6.9209 7.2663 6.9209 6.08831 6.9209C5.94704 6.9209 5.80577 6.9209 5.66451 6.9209C5.30334 6.9209 5.00195 7.22122 5.00195 7.58111C5.00195 7.941 5.30334 8.24133 5.66451 8.24133Z" fill="white"/>
<path d="M11.6482 6.32045C11.736 6.32118 11.8228 6.32696 11.9099 6.33799C11.8512 6.33014 11.7925 6.32226 11.7337 6.31441C11.8291 6.32811 11.9225 6.34792 12.0152 6.37414C12.0657 6.38845 12.1153 6.40606 12.1645 6.42448C12.2274 6.44947 12.2036 6.43922 12.0931 6.39369C12.1217 6.40604 12.1497 6.41976 12.1777 6.43349C12.2613 6.47444 12.3407 6.52339 12.4174 6.5759C12.5574 6.67182 12.2998 6.47685 12.4299 6.58557C12.4693 6.61849 12.5065 6.65388 12.5431 6.68981C12.5725 6.71858 12.6001 6.74893 12.6275 6.77946C12.6411 6.79486 12.6545 6.81045 12.6676 6.82627C12.7464 6.91992 12.5668 6.69151 12.6395 6.79005C12.7008 6.87309 12.7533 6.96229 12.8004 7.05395C12.824 7.09983 12.8854 7.24897 12.7979 7.03808C12.818 7.08639 12.8348 7.13598 12.8508 7.18575C12.8833 7.28695 12.9047 7.39136 12.9198 7.49638C12.912 7.43788 12.9041 7.37938 12.8962 7.32086C12.9184 7.49476 12.9184 7.66839 12.8962 7.84229C12.9041 7.78379 12.912 7.72529 12.9198 7.66677C12.9061 7.76177 12.8862 7.8549 12.8599 7.94721C12.8456 7.9976 12.8279 8.04698 12.8094 8.096C12.7843 8.15874 12.7946 8.135 12.8403 8.02484C12.8279 8.05339 12.8141 8.08131 12.8004 8.1092C12.7593 8.19248 12.7101 8.27159 12.6574 8.34799C12.5612 8.48755 12.7569 8.23082 12.6477 8.36044C12.6147 8.3997 12.5792 8.43681 12.5431 8.47331C12.5143 8.50252 12.4838 8.53011 12.4532 8.55742C12.4377 8.57097 12.4221 8.58427 12.4062 8.59731C12.3122 8.67588 12.5415 8.49689 12.4426 8.56937C12.3592 8.63044 12.2697 8.68272 12.1777 8.72964C12.1317 8.75315 11.982 8.81438 12.1937 8.72719C12.1452 8.74716 12.0954 8.76395 12.0455 8.77986C11.9439 8.81226 11.8391 8.83355 11.7337 8.84869C11.7924 8.84084 11.8511 8.83296 11.9099 8.82511C11.7354 8.84723 11.5611 8.84723 11.3866 8.82511C11.4453 8.83296 11.504 8.84084 11.5627 8.84869C11.4674 8.83499 11.3739 8.81518 11.2813 8.78896C11.2307 8.77465 11.1812 8.75704 11.132 8.73862C11.069 8.71363 11.0928 8.72388 11.2034 8.76942C11.1748 8.75706 11.1467 8.74334 11.1187 8.72961C11.0352 8.68866 10.9558 8.63971 10.8791 8.5872C10.739 8.49128 10.9967 8.68625 10.8666 8.57753C10.8272 8.54459 10.79 8.50922 10.7533 8.47329C10.724 8.44454 10.6963 8.4142 10.6689 8.38366C10.6553 8.36827 10.642 8.35268 10.6289 8.33686C10.55 8.2432 10.7297 8.47161 10.6569 8.37308C10.5956 8.29003 10.5432 8.20083 10.4961 8.10918C10.4725 8.06332 10.411 7.91416 10.4985 8.12505C10.4785 8.07673 10.4616 8.02715 10.4457 7.97737C10.4132 7.87617 10.3918 7.77176 10.3766 7.66674C10.3845 7.72524 10.3924 7.78374 10.4003 7.84226C10.3781 7.66837 10.3781 7.49473 10.4003 7.32084C10.3924 7.37934 10.3845 7.43784 10.3766 7.49636C10.3904 7.40136 10.4102 7.30822 10.4365 7.21591C10.4509 7.16552 10.4686 7.11615 10.4871 7.06713C10.5121 7.00441 10.5018 7.02813 10.4562 7.13829C10.4686 7.10976 10.4823 7.08182 10.4961 7.05392C10.5372 6.97066 10.5863 6.89153 10.639 6.81514C10.7353 6.67557 10.5396 6.9323 10.6487 6.80269C10.6818 6.76343 10.7173 6.72632 10.7533 6.68979C10.7822 6.66058 10.8127 6.63299 10.8433 6.60568C10.8588 6.59213 10.8744 6.57883 10.8903 6.56579C10.9843 6.48722 10.755 6.66621 10.8539 6.59373C10.9373 6.53266 11.0268 6.48039 11.1188 6.43346C11.1648 6.40996 11.3145 6.34872 11.1028 6.43592C11.1513 6.41594 11.2011 6.39916 11.251 6.38324C11.3526 6.35084 11.4574 6.32955 11.5628 6.31441C11.5041 6.32226 11.4454 6.33014 11.3866 6.33799C11.4736 6.32696 11.5605 6.32118 11.6482 6.32045C12.0094 6.31741 12.3108 6.02243 12.3108 5.66024C12.3108 5.30264 12.0094 4.99698 11.6482 5.00002C10.9698 5.00573 10.3286 5.26875 9.83833 5.73458C9.35078 6.19777 9.08682 6.85138 9.05866 7.51551C9.03008 8.19031 9.30634 8.84322 9.7525 9.34026C10.2026 9.84174 10.8533 10.1084 11.5162 10.1587C12.1967 10.2103 12.8536 9.94023 13.3669 9.51124C13.8862 9.07722 14.1564 8.43518 14.229 7.77801C14.2634 7.46627 14.2192 7.13357 14.1286 6.83471C14.0234 6.48781 13.8462 6.19819 13.624 5.91647C13.208 5.38894 12.5635 5.10035 11.9099 5.01757C11.8228 5.00655 11.736 5.00078 11.6482 5.00002C11.287 4.99698 10.9857 5.30264 10.9857 5.66024C10.9857 6.02241 11.2871 6.31741 11.6482 6.32045Z" fill="white"/>
</svg>
