<svg width="28" height="28" viewBox="0 0 28 28" fill="none" xmlns="http://www.w3.org/2000/svg">
<path d="M14 28C11.2311 28 8.52432 27.1789 6.22203 25.6405C3.91974 24.1022 2.12532 21.9157 1.06569 19.3575C0.00606476 16.7994 -0.271181 13.9845 0.269014 11.2687C0.809209 8.55299 2.14258 6.05843 4.10052 4.1005C6.72603 1.47499 10.287 -2.76642e-08 14 0C17.713 2.76642e-08 21.274 1.47499 23.8995 4.1005C26.525 6.72601 28 10.287 28 14C28 17.713 26.525 21.274 23.8995 23.8995C22.6025 25.2036 21.0597 26.2375 19.3605 26.9413C17.6612 27.6451 15.8393 28.005 14 28ZM14 1.86669C7.30972 1.86669 1.86671 7.3097 1.86671 14C1.86671 20.6903 7.30972 26.1333 14 26.1333C20.6903 26.1333 26.1333 20.6903 26.1333 14C26.1333 7.3097 20.6903 1.86669 14 1.86669Z" fill="#0A3F4E"/>
<path d="M12.4444 17.9668C12.6507 17.9668 12.8486 17.8869 12.9944 17.7447C13.1403 17.6025 13.2222 17.4096 13.2222 17.2085V12.6585C13.2222 12.4574 13.1403 12.2645 12.9944 12.1223C12.8486 11.9801 12.6507 11.9002 12.4444 11.9002C12.2382 11.9002 12.0403 11.9801 11.8945 12.1223C11.7486 12.2645 11.6667 12.4574 11.6667 12.6585V17.2085C11.6667 17.4096 11.7486 17.6025 11.8945 17.7447C12.0403 17.8869 12.2382 17.9668 12.4444 17.9668ZM20.2222 8.86683H17.1111V8.1085C17.1111 7.50513 16.8653 6.92647 16.4277 6.49983C15.9901 6.07318 15.3966 5.8335 14.7778 5.8335H13.2222C12.6034 5.8335 12.0099 6.07318 11.5723 6.49983C11.1347 6.92647 10.8889 7.50513 10.8889 8.1085V8.86683H7.77778C7.5715 8.86683 7.37367 8.94673 7.22781 9.08894C7.08194 9.23116 7 9.42404 7 9.62516C7 9.82629 7.08194 10.0192 7.22781 10.1614C7.37367 10.3036 7.5715 10.3835 7.77778 10.3835H8.55556V18.7252C8.55556 19.3285 8.80139 19.9072 9.23897 20.3338C9.67656 20.7605 10.2701 21.0002 10.8889 21.0002H17.1111C17.7299 21.0002 18.3234 20.7605 18.761 20.3338C19.1986 19.9072 19.4444 19.3285 19.4444 18.7252V10.3835H20.2222C20.4285 10.3835 20.6263 10.3036 20.7722 10.1614C20.9181 10.0192 21 9.82629 21 9.62516C21 9.42404 20.9181 9.23116 20.7722 9.08894C20.6263 8.94673 20.4285 8.86683 20.2222 8.86683ZM12.4444 8.1085C12.4444 7.90737 12.5264 7.71449 12.6723 7.57227C12.8181 7.43006 13.0159 7.35016 13.2222 7.35016H14.7778C14.9841 7.35016 15.1819 7.43006 15.3277 7.57227C15.4736 7.71449 15.5556 7.90737 15.5556 8.1085V8.86683H12.4444V8.1085ZM17.8889 18.7252C17.8889 18.9263 17.8069 19.1192 17.6611 19.2614C17.5152 19.4036 17.3174 19.4835 17.1111 19.4835H10.8889C10.6826 19.4835 10.4848 19.4036 10.3389 19.2614C10.1931 19.1192 10.1111 18.9263 10.1111 18.7252V10.3835H17.8889V18.7252ZM15.5556 17.9668C15.7618 17.9668 15.9597 17.8869 16.1055 17.7447C16.2514 17.6025 16.3333 17.4096 16.3333 17.2085V12.6585C16.3333 12.4574 16.2514 12.2645 16.1055 12.1223C15.9597 11.9801 15.7618 11.9002 15.5556 11.9002C15.3493 11.9002 15.1514 11.9801 15.0056 12.1223C14.8597 12.2645 14.7778 12.4574 14.7778 12.6585V17.2085C14.7778 17.4096 14.8597 17.6025 15.0056 17.7447C15.1514 17.8869 15.3493 17.9668 15.5556 17.9668Z" fill="#0A3F4E"/>
</svg>
