<svg width="20" height="20" viewBox="0 0 20 20" fill="none" xmlns="http://www.w3.org/2000/svg">
<path d="M7.25 4.70898C7.24936 4.60542 7.26887 4.50228 7.30762 4.40625C7.34643 4.31016 7.4039 4.22231 7.47656 4.14844C7.54924 4.07457 7.63582 4.0155 7.73144 3.97559C7.82697 3.93573 7.9297 3.9154 8.0332 3.91602C8.13685 3.91669 8.23982 3.93835 8.33496 3.97949C8.4291 4.02021 8.51351 4.08033 8.58496 4.1543L8.58594 4.15332L13.0479 8.68945C13.3909 9.03919 13.583 9.5127 13.583 10.0049C13.5829 10.4354 13.4364 10.8512 13.1699 11.1826L13.0479 11.3193L8.58594 15.8555L8.58301 15.8584C8.43671 16.0032 8.23914 16.0843 8.0332 16.083C7.82713 16.0817 7.6308 15.9974 7.48633 15.8506C7.34208 15.7039 7.26109 15.5065 7.25977 15.3008C7.25879 15.1463 7.30249 14.9955 7.38477 14.8672L7.47949 14.7471L7.48145 14.7451L11.9443 10.209C11.9968 10.1555 12.0272 10.0821 12.0273 10.0049C12.0273 9.92745 11.9969 9.85338 11.9443 9.7998L7.48144 5.26367C7.40893 5.19121 7.35113 5.10533 7.31152 5.01074C7.27156 4.91523 7.25069 4.81253 7.25 4.70898Z" fill="#0A3F4E" stroke="#0A3F4E" stroke-width="0.5"/>
<circle cx="10" cy="10" r="9.25" stroke="#0A3F4E" stroke-width="1.5"/>
</svg>
