<svg width="20" height="20" viewBox="0 0 20 20" fill="none" xmlns="http://www.w3.org/2000/svg">
<path d="M8.09812 4.65099L12.3188 8.87169C12.5996 9.15323 12.7572 9.5346 12.7572 9.93219C12.7572 10.3298 12.5996 10.7112 12.3188 10.9927L8.09812 15.2134C8.00396 15.3052 7.87743 15.3562 7.74592 15.3554C7.61441 15.3546 7.48852 15.302 7.39552 15.209C7.30252 15.116 7.2499 14.9901 7.24906 14.8586C7.24822 14.7271 7.29922 14.6006 7.39102 14.5064L11.6117 10.2857C11.7055 10.1919 11.7581 10.0648 11.7581 9.93219C11.7581 9.79961 11.7055 9.67245 11.6117 9.57869L7.39092 5.35799C7.34353 5.31178 7.30578 5.25661 7.27988 5.1957C7.25397 5.13479 7.24042 5.06933 7.24 5.00314C7.23959 4.93695 7.25232 4.87133 7.27746 4.8101C7.3026 4.74887 7.33965 4.69323 7.38646 4.64643C7.43327 4.59963 7.48891 4.56258 7.55015 4.53745C7.61138 4.51232 7.677 4.49959 7.74319 4.50002C7.80939 4.50044 7.87484 4.51401 7.93575 4.53992C7.99666 4.56584 8.05191 4.60359 8.09812 4.65099Z" fill="white"/>
</svg>
