<svg width="26" height="26" viewBox="0 0 26 26" fill="none" xmlns="http://www.w3.org/2000/svg">
<path d="M25 24.6436C25 24.9972 24.8595 25.3364 24.6095 25.5864C24.3594 25.8365 24.0203 25.9769 23.6667 25.9769H2.33333C1.97971 25.9769 1.64057 25.8365 1.39052 25.5864C1.14048 25.3364 1 24.9972 1 24.6436V10.6303C0.999859 10.4271 1.04616 10.2265 1.13535 10.044C1.22455 9.86143 1.35429 9.70168 1.51467 9.57692L12.1813 1.28093C12.4154 1.09885 12.7035 1 13 1C13.2965 1 13.5846 1.09885 13.8187 1.28093L24.4853 9.57692C24.6457 9.70168 24.7754 9.86143 24.8646 10.044C24.9538 10.2265 25.0001 10.4271 25 10.6303V24.6436Z" fill="#EB4949"/>
<path d="M19.5517 19.6106L15.3333 13.8103V8.16667H16.5V7H9.5V8.16667H10.6667V13.8103L6.44835 19.6106C6.19402 19.9603 6.04137 20.3735 6.00729 20.8046C5.97321 21.2357 6.05903 21.6677 6.25526 22.0531C6.45148 22.4384 6.75047 22.7619 7.11913 22.9878C7.4878 23.2138 7.91178 23.3334 8.34418 23.3333H17.6558C18.0882 23.3334 18.5122 23.2138 18.8809 22.9878C19.2495 22.7619 19.5485 22.4384 19.7447 22.0531C19.941 21.6677 20.0268 21.2357 19.9927 20.8046C19.9586 20.3735 19.806 19.9603 19.5517 19.6106ZM11.8333 14.1897V8.16667H14.1667V14.1897L15.7258 16.3333H10.2742L11.8333 14.1897ZM17.6558 22.1667H8.34418C8.12698 22.1666 7.91404 22.1065 7.72887 21.993C7.54371 21.8794 7.39354 21.7169 7.29497 21.5234C7.1964 21.3298 7.15326 21.1128 7.17032 20.8963C7.18739 20.6798 7.26399 20.4722 7.39166 20.2964L9.42568 17.5H16.5743L18.6083 20.2964C18.736 20.4722 18.8126 20.6798 18.8297 20.8963C18.8467 21.1128 18.8036 21.3298 18.705 21.5234C18.6065 21.7169 18.4563 21.8794 18.2711 21.993C18.086 22.1065 17.873 22.1666 17.6558 22.1667Z" fill="white"/>
</svg>
