<svg width="30" height="31" viewBox="0 0 30 31" fill="none" xmlns="http://www.w3.org/2000/svg">
<path d="M22.5 19.3864V21.5895H7.5V19.3864H22.5Z" stroke="white"/>
<mask id="path-2-inside-1_34_2262" fill="white">
<path d="M8 19.0199C8 19.0199 9.42947 18.3419 9.56151 15.9814C9.65528 14.3094 10.0074 10.4374 10.4284 9.34848C10.9785 7.92676 11.5498 6.02732 15.1828 6.00646C16.4773 5.99916 18.5402 6.34859 19.6233 9.36412C20.2175 11.0164 20.4509 15.7196 20.5504 16.3882C20.6595 17.1173 21.2374 18.4159 22 19.0188"/>
</mask>
<path d="M9.56151 15.9814L8.36339 15.9142L8.36338 15.9144L9.56151 15.9814ZM10.4284 9.34848L9.30925 8.91541L9.30911 8.91577L10.4284 9.34848ZM15.1828 6.00646L15.176 4.80648L15.1759 4.80648L15.1828 6.00646ZM19.6233 9.36412L18.4939 9.76976L18.4941 9.77021L19.6233 9.36412ZM20.5504 16.3882L19.3635 16.5649L19.3636 16.5658L20.5504 16.3882ZM8 19.0199C8.51425 20.1041 8.51495 20.1038 8.51566 20.1034C8.5159 20.1033 8.51661 20.103 8.5171 20.1028C8.51807 20.1023 8.51907 20.1018 8.52009 20.1013C8.52213 20.1003 8.52426 20.0993 8.52649 20.0982C8.53094 20.0961 8.53575 20.0937 8.54092 20.0911C8.55127 20.0859 8.56304 20.0799 8.57615 20.073C8.60236 20.0592 8.63396 20.0417 8.67021 20.0204C8.74263 19.9778 8.83403 19.9193 8.93808 19.8425C9.14615 19.6889 9.40657 19.4607 9.6661 19.1382C10.1957 18.4802 10.6795 17.4814 10.7596 16.0484L9.56151 15.9814L8.36338 15.9144C8.3115 16.8419 8.01456 17.3624 7.79638 17.6335C7.68204 17.7755 7.57684 17.8643 7.51276 17.9116C7.48073 17.9352 7.45942 17.9482 7.45315 17.9519C7.45005 17.9537 7.45082 17.9532 7.45602 17.9504C7.45863 17.949 7.46236 17.9471 7.46728 17.9446C7.46975 17.9434 7.47251 17.942 7.47559 17.9405C7.47712 17.9398 7.47874 17.939 7.48043 17.9382C7.48128 17.9378 7.48214 17.9374 7.48303 17.937C7.48347 17.9367 7.48415 17.9364 7.48437 17.9363C7.48506 17.936 7.48575 17.9357 8 19.0199ZM9.56151 15.9814L10.7596 16.0486C10.8052 15.236 10.9146 13.8738 11.0642 12.5846C11.139 11.9401 11.2225 11.3257 11.311 10.8134C11.4041 10.2746 11.4892 9.93227 11.5476 9.78118L10.4284 9.34848L9.30911 8.91577C9.15702 9.30917 9.04028 9.85923 8.94602 10.4049C8.84716 10.9771 8.75781 11.6394 8.68023 12.308C8.52508 13.645 8.41159 15.0547 8.36339 15.9142L9.56151 15.9814ZM10.4284 9.34848L11.5475 9.78155C11.8523 8.99396 12.048 8.44366 12.4912 8.0074C12.8756 7.62913 13.5925 7.21561 15.1896 7.20644L15.1828 6.00646L15.1759 4.80648C13.14 4.81817 11.7548 5.3648 10.8078 6.29689C9.91961 7.171 9.55464 8.28128 9.30925 8.91541L10.4284 9.34848ZM15.1828 6.00646L15.1895 7.20644C15.7323 7.20338 16.3325 7.27754 16.8881 7.59425C17.419 7.8969 18.0353 8.49277 18.4939 9.76976L19.6233 9.36412L20.7527 8.95848C20.1282 7.21994 19.1715 6.13333 18.0766 5.5092C17.0063 4.89913 15.9277 4.80224 15.176 4.80648L15.1828 6.00646ZM19.6233 9.36412L18.4941 9.77021C18.7312 10.4295 18.9294 11.8598 19.0782 13.3632C19.1495 14.0841 19.2059 14.7765 19.251 15.3373C19.2935 15.8643 19.3308 16.3454 19.3635 16.5649L20.5504 16.3882L21.7374 16.2116C21.7203 16.0967 21.6912 15.7392 21.6433 15.1446C21.5981 14.5839 21.5403 13.8719 21.4665 13.1268C21.3252 11.6984 21.1096 9.95098 20.7525 8.95804L19.6233 9.36412ZM20.5504 16.3882L19.3636 16.5658C19.4427 17.0944 19.6682 17.7284 19.9638 18.3011C20.2568 18.8691 20.6872 19.5107 21.2558 19.9602L22 19.0188L22.7442 18.0775C22.5502 17.9241 22.3103 17.6149 22.0966 17.2006C21.8852 16.791 21.7672 16.4111 21.7372 16.2107L20.5504 16.3882Z" fill="white" mask="url(#path-2-inside-1_34_2262)"/>
<mask id="path-4-inside-2_34_2262" fill="white">
<path d="M17.6667 22.0897C17.4602 23.2997 16.345 24.2253 14.9995 24.2253C13.6551 24.2253 12.5398 23.2997 12.3334 22.0897"/>
</mask>
<path d="M17.6667 22.0897L16.4838 21.8879C16.3829 22.4795 15.8036 23.0253 14.9995 23.0253V24.2253V25.4253C16.8864 25.4253 18.5376 24.1198 18.8496 22.2916L17.6667 22.0897ZM14.9995 24.2253V23.0253C14.1968 23.0253 13.6173 22.4798 13.5163 21.8879L12.3334 22.0897L11.1505 22.2916C11.4624 24.1196 13.1134 25.4253 14.9995 25.4253V24.2253Z" fill="white" mask="url(#path-4-inside-2_34_2262)"/>
<mask id="path-6-inside-3_34_2262" fill="white">
<path d="M13.4 7.1408C13.4 5.96207 14.1169 5.00525 15 5.00525C15.8832 5.00525 16.6 5.96207 16.6 7.1408"/>
</mask>
<path d="M13.4 7.1408H14.6C14.6 6.786 14.7094 6.51038 14.8292 6.35052C14.8875 6.2727 14.9386 6.23438 14.9677 6.21799C14.9817 6.21005 14.9906 6.20717 14.9942 6.20619C14.9974 6.20529 14.9989 6.20525 15 6.20525V5.00525V3.80525C14.0951 3.80525 13.368 4.29811 12.9085 4.91148C12.449 5.52472 12.2 6.31687 12.2 7.1408H13.4ZM15 5.00525V6.20525C15.0012 6.20525 15.0026 6.20529 15.0059 6.20619C15.0095 6.20717 15.0183 6.21005 15.0324 6.21799C15.0614 6.23438 15.1125 6.2727 15.1708 6.35052C15.2906 6.51038 15.4 6.786 15.4 7.1408H16.6H17.8C17.8 6.31687 17.551 5.52472 17.0916 4.91148C16.632 4.29811 15.905 3.80525 15 3.80525V5.00525Z" fill="white" mask="url(#path-6-inside-3_34_2262)"/>
</svg>
