<svg width="30" height="31" viewBox="0 0 30 31" fill="none" xmlns="http://www.w3.org/2000/svg">
<path d="M15.3182 14.8134C14.3776 14.8134 13.5759 14.4817 12.9132 13.8183C12.2506 13.155 11.9193 12.3525 11.9193 11.4108C11.9193 10.4692 12.2506 9.66669 12.9132 9.00334C13.5759 8.33998 14.3776 8.0083 15.3182 8.0083C16.2589 8.0083 17.0606 8.33998 17.7232 9.00334C18.3859 9.66669 18.7173 10.4692 18.7173 11.4108C18.7173 12.3525 18.3859 13.155 17.7232 13.8183C17.0606 14.4817 16.2589 14.8134 15.3182 14.8134ZM8 22.1538V20.0496C8 19.5721 8.1275 19.1333 8.3825 18.7332C8.63767 18.333 8.985 18.0238 9.4245 17.8057C10.4013 17.3339 11.3809 16.978 12.3632 16.7379C13.3454 16.4976 14.3305 16.3775 15.3185 16.3775C16.3063 16.3775 17.2917 16.4976 18.2747 16.7376C19.2576 16.9776 20.2371 17.3334 21.2132 17.8052C21.6524 18.0235 21.9994 18.3327 22.2542 18.733C22.5091 19.1332 22.6365 19.5721 22.6365 20.0496V22.1538H8ZM9.399 20.7533H21.2375V20.0508C21.2375 19.8441 21.1788 19.6539 21.0615 19.4802C20.9442 19.3067 20.7823 19.1638 20.576 19.0515C19.7187 18.6318 18.8513 18.3146 17.974 18.1001C17.0965 17.8853 16.2111 17.778 15.3178 17.778C14.4184 17.778 13.5315 17.8853 12.657 18.1001C11.7825 18.3146 10.9187 18.6318 10.0655 19.0515C9.85583 19.1638 9.69233 19.3071 9.575 19.4812C9.45767 19.6554 9.399 19.8449 9.399 20.0496V20.7533ZM15.3182 13.4129C15.8682 13.4129 16.3391 13.2169 16.7307 12.8248C17.1224 12.4327 17.3182 11.9614 17.3182 11.4108C17.3182 10.8603 17.1224 10.3889 16.7307 9.99687C16.3391 9.60479 15.8682 9.40876 15.3182 9.40876C14.7682 9.40876 14.2974 9.60479 13.9057 9.99687C13.5141 10.3889 13.3182 10.8603 13.3182 11.4108C13.3182 11.9614 13.5141 12.4327 13.9057 12.8248C14.2974 13.2169 14.7682 13.4129 15.3182 13.4129Z" fill="white"/>
</svg>
