<svg width="26" height="26" viewBox="0 0 26 26" fill="none" xmlns="http://www.w3.org/2000/svg">
<path d="M25 24.6436C25 24.9972 24.8595 25.3364 24.6095 25.5864C24.3594 25.8365 24.0203 25.9769 23.6667 25.9769H2.33333C1.97971 25.9769 1.64057 25.8365 1.39052 25.5864C1.14048 25.3364 1 24.9972 1 24.6436V10.6303C0.999859 10.4271 1.04616 10.2265 1.13535 10.044C1.22455 9.86143 1.35429 9.70168 1.51467 9.57692L12.1813 1.28093C12.4154 1.09885 12.7035 1 13 1C13.2965 1 13.5846 1.09885 13.8187 1.28093L24.4853 9.57692C24.6457 9.70168 24.7754 9.86143 24.8646 10.044C24.9538 10.2265 25.0001 10.4271 25 10.6303V24.6436Z" fill="#7718F0"/>
<path d="M13.0007 9.64681C12.7622 9.64681 12.5205 9.49072 12.5205 9.19269V7.43016C12.5205 7.13213 12.7617 6.97656 13.0002 6.97656C13.2387 6.97656 13.4804 7.13265 13.4804 7.43016V9.19321C13.4804 9.33254 13.4277 9.45039 13.3281 9.5342C13.2409 9.607 13.1251 9.64681 13.0007 9.64681Z" fill="white"/>
<path d="M9.61219 10.533C9.44744 10.533 9.30801 10.4523 9.21971 10.3056L8.31309 8.77828C8.22587 8.63005 8.22372 8.47187 8.30717 8.33202C8.39708 8.18117 8.57743 8.08008 8.75563 8.08008C8.91984 8.08008 9.0582 8.16074 9.14542 8.30792L10.0515 9.83475C10.1403 9.98246 10.1436 10.1406 10.0612 10.2805C9.97182 10.4313 9.792 10.533 9.61272 10.533H9.61219Z" fill="white"/>
<path d="M7.17635 12.9313C7.09506 12.9313 7.01484 12.9093 6.93731 12.8659L5.36795 11.9843C5.1779 11.8775 5.095 11.6853 5.15099 11.482C5.20967 11.2683 5.40348 11.1133 5.61183 11.1133C5.69367 11.1133 5.77442 11.1358 5.85195 11.1798L7.42077 12.0566C7.61136 12.165 7.69427 12.3588 7.63774 12.5631C7.57852 12.7768 7.38416 12.9319 7.17635 12.9319V12.9313Z" fill="white"/>
<path d="M4.46623 16.1995C4.32249 16.1995 4.20135 16.1482 4.11575 16.0513C4.04092 15.9664 4 15.8538 4 15.7328C4 15.5008 4.16044 15.2656 4.46623 15.2656H6.27786C6.42161 15.2656 6.54274 15.317 6.62834 15.4144C6.70318 15.4992 6.74409 15.6118 6.74409 15.7328C6.74409 15.9649 6.58366 16.2001 6.27786 16.2001H4.46623V16.1995Z" fill="white"/>
<path d="M19.7221 16.1995C19.4158 16.1995 19.2559 15.9649 19.2559 15.7328C19.2559 15.5008 19.4163 15.2656 19.7221 15.2656H21.5337C21.8401 15.2656 22 15.5003 22 15.7323C22 15.9644 21.8395 16.1995 21.5337 16.1995H19.7221Z" fill="white"/>
<path d="M18.8243 12.932C18.6165 12.932 18.4227 12.777 18.3634 12.5633C18.3064 12.359 18.3893 12.1652 18.5793 12.0573L20.1492 11.1758C20.2268 11.1328 20.3064 11.1113 20.3867 11.1113C20.5955 11.1113 20.7904 11.2674 20.8497 11.4822C20.9056 11.6859 20.8227 11.8787 20.6327 11.9855L19.0633 12.867C18.9858 12.9105 18.9056 12.9325 18.8243 12.9325V12.932Z" fill="white"/>
<path d="M16.3864 10.533C16.2082 10.533 16.0289 10.4319 15.9401 10.281C15.8572 10.1412 15.8609 9.98246 15.9492 9.83423L16.8499 8.30792C16.9382 8.16074 17.0771 8.08008 17.2413 8.08008C17.4201 8.08008 17.6004 8.18169 17.6898 8.33254C17.7727 8.47239 17.77 8.63057 17.6823 8.7788L16.7762 10.3056C16.689 10.4523 16.5506 10.5335 16.3869 10.5335L16.3864 10.533Z" fill="white"/>
<path d="M15.2508 18.7752C14.9773 18.7752 14.8201 18.5877 14.7895 18.3824H14.7835V18.308C14.7835 18.076 14.9445 17.8413 15.2498 17.8413H16.7335C17.1136 17.2007 17.3182 16.4727 17.3257 15.7326C17.3171 14.7646 16.9639 13.8176 16.3314 13.0686C15.6988 12.3196 14.8126 11.799 13.8365 11.6026C13.5679 11.5497 13.2906 11.5229 13.0139 11.5229C11.5021 11.5229 10.0792 12.3002 9.30019 13.5516C8.49209 14.8683 8.47379 16.5083 9.25066 17.8413H10.7495C11.0553 17.8413 11.2157 18.0765 11.2157 18.3086C11.2157 18.5406 11.0558 18.7758 10.7495 18.7758H4.5302C4.22386 18.7758 4.06396 18.5411 4.06396 18.3091C4.06396 18.077 4.2244 17.8419 4.5302 17.8419H8.17876C7.36635 16.0746 7.65492 13.9742 8.92764 12.4584C9.90802 11.2909 11.4418 10.5938 13.03 10.5938C13.6384 10.5938 14.2306 10.6948 14.7905 10.8939C15.814 11.2621 16.6861 11.9158 17.3134 12.7837C17.9406 13.6521 18.277 14.6719 18.2862 15.7331C18.2544 16.6822 18.066 17.2233 17.799 17.8413H21.4696C21.7759 17.8413 21.9358 18.076 21.9358 18.308C21.9358 18.5401 21.7754 18.7752 21.4696 18.7752H15.2508Z" fill="white"/>
<path d="M7.80461 22.9769C7.49828 22.9769 7.33838 22.7422 7.33838 22.5102C7.33838 22.2781 7.49881 22.043 7.80461 22.043H18.1952C18.5016 22.043 18.6615 22.2776 18.6615 22.5097C18.6615 22.7417 18.501 22.9769 18.1952 22.9769H7.80461Z" fill="white"/>
<path d="M6.18986 20.8753C5.88353 20.8753 5.72363 20.6407 5.72363 20.4086C5.72363 20.1766 5.88407 19.9414 6.18986 19.9414H19.2724C19.5787 19.9414 19.7386 20.1761 19.7386 20.4081C19.7386 20.6401 19.5782 20.8753 19.2724 20.8753H6.18986Z" fill="white"/>
</svg>
