<svg width="22" height="22" viewBox="0 0 22 22" fill="none" xmlns="http://www.w3.org/2000/svg">
<path d="M18.63 2.64887C18.5138 2.55486 18.3781 2.48809 18.2327 2.45347C18.0873 2.41885 17.9361 2.41726 17.79 2.44881C16.7214 2.67282 15.6183 2.67568 14.5486 2.45719C13.4789 2.23871 12.4652 1.80352 11.57 1.17841C11.4026 1.06225 11.2037 1 11 1C10.7963 1 10.5974 1.06225 10.43 1.17841C9.53476 1.80352 8.52108 2.23871 7.45137 2.45719C6.38166 2.67568 5.27857 2.67282 4.21 2.44881C4.06394 2.41726 3.91267 2.41885 3.76731 2.45347C3.62194 2.48809 3.48618 2.55486 3.37001 2.64887C3.25398 2.74302 3.16053 2.86197 3.0965 2.997C3.03247 3.13202 2.9995 3.27967 3.00001 3.42912V10.8814C2.99912 12.3156 3.34078 13.7293 3.99654 15.0047C4.6523 16.2801 5.60318 17.3803 6.77 18.2137L10.42 20.8146C10.5894 20.9352 10.7921 21 11 21C11.2079 21 11.4106 20.9352 11.58 20.8146L15.23 18.2137C16.3968 17.3803 17.3477 16.2801 18.0035 15.0047C18.6592 13.7293 19.0009 12.3156 19 10.8814V3.42912C19.0005 3.27967 18.9675 3.13202 18.9035 2.997C18.8395 2.86197 18.746 2.74302 18.63 2.64887ZM17 10.8814C17.0008 11.9966 16.7353 13.0957 16.2256 14.0875C15.716 15.0792 14.977 15.9349 14.07 16.5832L11 18.7739L7.93 16.5832C7.02304 15.9349 6.28399 15.0792 5.77435 14.0875C5.26472 13.0957 4.99924 11.9966 5 10.8814V4.57948C7.09643 4.75896 9.19604 4.2724 11 3.18904C12.804 4.2724 14.9036 4.75896 17 4.57948V10.8814ZM12.54 8.59073L9.85 11.2916L8.96 10.3913C8.7717 10.2029 8.5163 10.0971 8.25 10.0971C7.9837 10.0971 7.72831 10.2029 7.54 10.3913C7.3517 10.5797 7.24591 10.8351 7.24591 11.1015C7.24591 11.3679 7.3517 11.6234 7.54 11.8117L9.14 13.4122C9.23296 13.506 9.34357 13.5804 9.46542 13.6312C9.58728 13.682 9.71799 13.7081 9.85 13.7081C9.98201 13.7081 10.1127 13.682 10.2346 13.6312C10.3564 13.5804 10.467 13.506 10.56 13.4122L14 10.0012C14.1883 9.81281 14.2941 9.55733 14.2941 9.29095C14.2941 9.02456 14.1883 8.76909 14 8.58073C13.8117 8.39237 13.5563 8.28654 13.29 8.28654C13.0237 8.28654 12.7683 8.39237 12.58 8.58073L12.54 8.59073Z" fill="white"/>
</svg>
