<svg width="32" height="32" viewBox="0 0 32 32" fill="none" xmlns="http://www.w3.org/2000/svg">
<path d="M9.10742 12.9077L16.4862 1.28033L23.4434 12.9077L25.2354 30.7203L16.4862 26.1395L7.31543 30.7203L9.10742 12.9077Z" fill="#7E1992"/>
<path fill-rule="evenodd" clip-rule="evenodd" d="M16.5031 0.00011089C16.9473 0.00594661 17.3566 0.241622 17.5847 0.622782L24.5419 12.2501C24.6384 12.4115 24.6982 12.5921 24.717 12.7792L26.509 30.5919C26.5562 31.0603 26.3423 31.5168 25.9522 31.7805C25.5622 32.0441 25.0588 32.0724 24.6417 31.854L16.4726 27.5768L7.88751 31.8651C7.47023 32.0735 6.97261 32.0385 6.58867 31.7736C6.20474 31.5087 5.99528 31.056 6.04197 30.5919L7.83396 12.7792C7.85392 12.5808 7.91995 12.3898 8.02679 12.2215L15.4056 0.594149C15.6436 0.219113 16.059 -0.00572483 16.5031 0.00011089ZM10.3507 13.3372L8.82161 28.5369L15.9143 24.9941C16.2821 24.8103 16.7158 24.8145 17.08 25.0052L23.724 28.4838L22.1985 13.3195L16.4543 3.71936L10.3507 13.3372Z" fill="black"/>
<path d="M8.09077 24.8336L23.6759 13.0162L25.2002 30.7205L16.4511 26.1397L7.28027 30.7205L8.09077 24.8336Z" fill="#5D126C"/>
<path fill-rule="evenodd" clip-rule="evenodd" d="M16.4676 0.00011089C16.9118 0.00594661 17.3211 0.241622 17.5492 0.622782L24.5063 12.2501C24.6029 12.4115 24.6627 12.5921 24.6815 12.7792L26.4735 30.5919C26.5206 31.0603 26.3068 31.5168 25.9167 31.7805C25.5266 32.0441 25.0233 32.0724 24.6062 31.854L16.4371 27.5768L7.85199 31.8651C7.43471 32.0735 6.93709 32.0385 6.55315 31.7736C6.16922 31.5087 5.95976 31.056 6.00645 30.5919L7.79844 12.7792C7.8184 12.5808 7.88443 12.3898 7.99126 12.2215L15.3701 0.594149C15.6081 0.219113 16.0235 -0.00572483 16.4676 0.00011089ZM10.3152 13.3372L8.78609 28.5369L15.8788 24.9941C16.2466 24.8103 16.6803 24.8145 17.0445 25.0052L23.6885 28.4838L22.163 13.3195L16.4187 3.71936L10.3152 13.3372Z" fill="black"/>
</svg>
