<svg width="42" height="44" viewBox="0 0 42 44" fill="none" xmlns="http://www.w3.org/2000/svg">
<path d="M30.3646 28.7348L34.4002 20.4963H29.3612M29.3612 20.4963H18.0943H15.8877V15.668L27.4187 15.6691L29.3612 20.4963Z" stroke="#A3B2FF"/>
<path d="M19.373 23.1328L33.2574 23.1328" stroke="#A3B2FF"/>
<path d="M20.1084 28.7344L35.1084 28.7344" stroke="#A3B2FF"/>
<path d="M26.0832 11V15.6667H21.4551V12.6256L26.0832 11Z" stroke="#A3B2FF"/>
<path d="M13.0148 21C16.4085 21 20.0156 21.8445 20.0156 23.4105V33.5895C20.0156 35.1555 16.4085 36 13.0148 36C9.62112 36 6.01562 35.1555 6.01562 33.5895V23.4105C6.01562 21.8445 9.62275 21 13.0148 21ZM6.66732 30.1965C6.66732 31.053 9.27409 32.007 13.0164 32.007C16.7588 32.007 19.3656 31.053 19.3656 30.1965V27.8655C18.1746 28.7475 15.5385 29.214 13.0164 29.214C10.4944 29.214 7.85829 28.7475 6.66895 27.8655V30.1965H6.66732ZM6.66732 26.8035C6.66732 27.66 9.27409 28.614 13.0164 28.614C16.7588 28.614 19.3639 27.66 19.3639 26.8035V24.4725C18.173 25.3545 15.5369 25.821 13.0148 25.821C10.4928 25.821 7.85666 25.3545 6.66732 24.4725V26.8035ZM13.0148 21.6C9.27409 21.6 6.66732 22.554 6.66732 23.4105C6.66732 24.267 9.27409 25.221 13.0164 25.221C16.7588 25.221 19.3639 24.267 19.3639 23.4105C19.3639 22.554 16.7572 21.6 13.0148 21.6ZM13.0148 35.4C16.7555 35.4 19.3639 34.446 19.3639 33.5895V31.2585C18.173 32.1405 15.5369 32.607 13.0148 32.607C10.4928 32.607 7.85666 32.1405 6.66732 31.2585V33.5895C6.66732 34.446 9.27409 35.4 13.0148 35.4Z" fill="#A3B2FF" stroke="#A3B2FF" stroke-width="0.3"/>
</svg>
