<svg width="42" height="44" viewBox="0 0 42 44" fill="none" xmlns="http://www.w3.org/2000/svg">
<path d="M31.6089 18.8232C31.6089 16.9056 29.1643 16.1894 27.2275 15.8158C27.1451 15.7999 27.0605 15.8007 26.9784 15.8182C26.8964 15.8357 26.8185 15.8696 26.7493 15.918C26.6094 16.0156 26.5132 16.1661 26.4817 16.3364C26.4502 16.5067 26.4861 16.6828 26.5815 16.826C26.6768 16.9691 26.8238 17.0677 26.9901 17.0999C30.0141 17.6825 30.333 18.3908 30.333 18.8232C30.333 19.6357 26.9697 21.215 20.8045 21.215C14.6392 21.215 11.2759 19.6357 11.2759 18.8232C11.2759 18.3007 11.5083 17.5247 14.8295 16.9891C14.9965 16.9621 15.1461 16.8684 15.2456 16.7286C15.3451 16.5887 15.3864 16.4142 15.3603 16.2432C15.3327 16.0726 15.2407 15.9199 15.1042 15.818C14.9677 15.7161 14.7976 15.6732 14.6305 15.6985C12.4295 16.0538 10 16.7554 10 18.8232C10.0234 19.1562 10.1248 19.4786 10.2956 19.7631C10.4663 20.0475 10.7015 20.2857 10.9812 20.4574L17.4144 29.8026V36.3471C17.4186 36.3824 17.4254 36.4173 17.4348 36.4516C17.4356 36.4836 17.4391 36.5155 17.445 36.5469C17.445 36.5548 17.4552 36.5574 17.4565 36.5639C17.4971 36.6776 17.5683 36.7772 17.6619 36.8513L17.718 36.8905C17.8169 36.9591 17.9329 36.9972 18.0523 37.0002C18.1186 37.0002 18.1844 36.9896 18.2475 36.9689L23.7531 35.1518C23.8815 35.1093 23.9933 35.0262 24.0727 34.9144C24.152 34.8027 24.1947 34.6681 24.1946 34.53V29.8026L30.6252 20.4587C30.9056 20.2872 31.1414 20.049 31.3127 19.7643C31.4839 19.4796 31.5856 19.1567 31.6089 18.8232ZM23.0348 29.22C22.9598 29.3305 22.9194 29.4616 22.9187 29.5962V34.0519L18.6903 35.4483V29.5962C18.6904 29.4615 18.6498 29.3301 18.5742 29.22L13.297 21.5508C15.7426 22.2333 18.2699 22.56 20.8045 22.5213C23.3389 22.5598 25.8661 22.2335 28.312 21.5521L23.0348 29.22Z" fill="#A3B2FF"/>
<path d="M17.7197 13.3672H15.145V18.7827H17.7197V13.3672Z" stroke="#A3B2FF"/>
<path d="M22.2809 10.043H19.7051V18.7833H22.2809V10.043Z" stroke="#A3B2FF"/>
<path d="M26.8415 7H24.2668V18.7818H26.8415V7Z" stroke="#A3B2FF"/>
</svg>
