<svg width="42" height="44" viewBox="0 0 42 44" fill="none" xmlns="http://www.w3.org/2000/svg">
<path d="M12.4136 22.76L13.6613 26.6755C13.6613 26.6755 13.8461 27.548 15.2539 27.5368H29.3805C29.3805 27.5368 30.44 27.4819 30.44 26.3787C30.44 25.9654 30.2832 25.2105 29.1509 25.1545H25.2645L21.3769 20.3945H19.2265L22.124 25.2072H15.5843L14.135 22.732L12.4136 22.76Z" stroke="#A3B2FF"/>
<path d="M32.8547 11H10V32.0706H32.8547V11Z" stroke="#A3B2FF"/>
<path d="M10.209 15.8672H32.6448" stroke="#A3B2FF"/>
<path d="M13.5738 12.75H12.1738V14.15H13.5738V12.75Z" fill="#A3B2FF"/>
<path d="M15.8141 12.75H14.4141V14.15H15.8141V12.75Z" fill="#A3B2FF"/>
<path d="M18.0538 12.75H16.6538V14.15H18.0538V12.75Z" fill="#A3B2FF"/>
</svg>
