<svg width="42" height="44" viewBox="0 0 42 44" fill="none" xmlns="http://www.w3.org/2000/svg">
<path d="M29.2961 23.7344L29.2833 30.853H11.7427" stroke="#A3B2FF"/>
<path d="M14.292 16.8594H20.3361" stroke="#A3B2FF"/>
<path d="M11.9598 30.8571C10.8772 30.8571 10 29.9776 10 28.8973C10 27.817 10.8772 26.9375 11.9598 26.9375C13.0412 26.9375 13.9184 27.817 13.9184 28.8973" stroke="#A3B2FF" stroke-linecap="round"/>
<path d="M13.9196 28.7055V15.327C13.9196 14.2432 13.0424 13.3672 11.961 13.3672C10.8772 13.3672 10 14.2444 10 15.327V28.5965" stroke="#A3B2FF"/>
<path d="M26.0066 24.5035C29.1832 24.5035 31.7584 21.9283 31.7584 18.7517C31.7584 15.5751 29.1832 13 26.0066 13C22.83 13 20.2549 15.5751 20.2549 18.7517C20.2549 21.9283 22.83 24.5035 26.0066 24.5035Z" stroke="#A3B2FF"/>
<path d="M31.7211 26.6761L29.0488 23.7161L30.6315 22.3086L33.3049 25.2686L31.7211 26.6761Z" stroke="#A3B2FF"/>
<path d="M24.2311 18.5898H22.8643V21.4663H24.2311V18.5898Z" fill="#A3B2FF"/>
<path d="M26.5113 16.8281H25.1421V21.4694H26.5113V16.8281Z" fill="#A3B2FF"/>
<path d="M28.7858 15.2109H27.4189V21.4663H28.7858V15.2109Z" fill="#A3B2FF"/>
</svg>
