<svg width="42" height="44" viewBox="0 0 42 44" fill="none" xmlns="http://www.w3.org/2000/svg">
<path d="M29.555 22.7934C29.5685 23.0073 29.5763 23.2235 29.5763 23.4419C29.5763 29.0542 25.0269 33.6037 19.4145 33.6037C13.8033 33.6037 9.25391 29.0531 9.25391 23.4419C9.25391 17.8307 13.8033 13.2812 19.4145 13.2812C20.3486 13.2812 21.2536 13.4067 22.1126 13.643" stroke="#A3B2FF" stroke-width="1.3"/>
<path d="M19.5415 13.2812V33.6854" stroke="#A3B2FF" stroke-width="1.3"/>
<path d="M9 23.2031H25.2848" stroke="#A3B2FF" stroke-width="1.3"/>
<path d="M15.6818 13.9883C15.6818 13.9883 12.3554 24.5622 16.1634 33.0708" stroke="#A3B2FF" stroke-width="1.3"/>
<path d="M24.5801 23.5273C24.8612 26.5648 23.9551 30.4601 22.7881 33.0686" stroke="#A3B2FF" stroke-width="1.3"/>
<path d="M11.5186 29.8366C11.5186 29.8366 19.027 25.2939 27.3654 29.7672" stroke="#A3B2FF" stroke-width="1.3"/>
<path d="M11.5186 16.8047C11.5186 16.8047 16.1878 19.7536 22.4442 18.8442" stroke="#A3B2FF" stroke-width="1.3"/>
<path d="M32.6309 15.46C32.8225 19.2288 27.2639 25.577 27.1709 25.577C27.0746 25.577 21.4578 18.8525 21.7109 15.46C21.9349 12.4539 24.1559 10 27.1698 10C30.186 10 32.4775 12.4494 32.6309 15.46Z" stroke="#A3B2FF" stroke-width="1.3"/>
<path d="M29.3799 14.1587C29.6778 14.5899 29.8514 15.1118 29.8514 15.6751C29.8514 17.1558 28.6519 18.3553 27.1712 18.3553C25.6906 18.3553 24.4922 17.1558 24.4922 15.6751C24.4922 14.1956 25.6917 12.9961 27.1712 12.9961C28.0874 12.9972 28.8971 13.4575 29.3799 14.1587Z" stroke="#A3B2FF" stroke-width="1.3"/>
</svg>
