<svg width="42" height="44" viewBox="0 0 42 44" fill="none" xmlns="http://www.w3.org/2000/svg">
<path d="M15.0066 33.7044C18.4569 33.7044 21.2539 30.884 21.2539 27.4049C21.2539 23.9258 18.4569 21.1055 15.0066 21.1055C11.5563 21.1055 8.75928 23.9258 8.75928 27.4049C8.75928 30.884 11.5563 33.7044 15.0066 33.7044Z" stroke="#A3B2FF"/>
<path d="M21.7326 35.6811L18.6362 32.6257L20.258 30.9805L23.3544 34.0345L21.7326 35.6811Z" stroke="#A3B2FF"/>
<path d="M30.2562 28.6684L34.2918 20.4299H29.2528M29.2528 20.4299H17.9859H15.7793V15.6016L27.3103 15.6027L29.2528 20.4299Z" stroke="#A3B2FF"/>
<path d="M19.2646 23.0664L33.149 23.0664" stroke="#A3B2FF"/>
<path d="M21.1157 28.668L35.0001 28.668" stroke="#A3B2FF"/>
<path d="M15.5543 23.0664L15.0994 23.0664L15.0994 23.9837L15.5543 23.9837C17.3537 23.9837 18.8178 25.4601 18.8178 27.2745L18.8178 27.7331L19.7275 27.7331L19.7275 27.2745C19.7275 24.9542 17.8556 23.0664 15.5543 23.0664Z" fill="#A3B2FF"/>
<path d="M25.9748 10.9336V15.6003H21.3467V12.5592L25.9748 10.9336Z" stroke="#A3B2FF"/>
</svg>
