<svg width="30" height="30" viewBox="0 0 30 30" fill="none" xmlns="http://www.w3.org/2000/svg">
<path d="M8.02487 21.9982C8.02487 21.9982 5.00369 21.4833 5 18.475C4.99908 17.4268 5.58305 15.7514 8.02487 15.5736C8.02487 15.5736 8.28462 12.0559 12.2186 11.9472C13.5413 11.9122 15.915 12.3258 16.2383 15.5736C16.2383 15.5736 20.1511 15.428 20.2588 18.7127C20.2975 19.8705 19.9125 21.7827 16.9954 21.9982H8.02487Z" stroke="white" stroke-width="1.2"/>
<path d="M14.5376 12.5304C15.1621 11.602 16.2223 10.9922 17.4261 10.9922C19.3485 10.9922 20.906 12.5488 20.906 14.4721C20.906 15.4954 20.4639 16.4156 19.7602 17.053" stroke="white" stroke-width="1.2"/>
<path d="M11.354 8.73047L13.1317 10.358" stroke="white" stroke-width="1.2"/>
<path d="M21.2871 10.6073L23.1496 8.90234" stroke="white" stroke-width="1.2"/>
<path d="M23.2801 20.445L21.5752 18.8984" stroke="white" stroke-width="1.2"/>
<path d="M17.3628 9.39945V7" stroke="white" stroke-width="1.2"/>
<path d="M22.8994 14.5664H25.181" stroke="white" stroke-width="1.2"/>
</svg>
