<svg width="30" height="30" viewBox="0 0 30 30" fill="none" xmlns="http://www.w3.org/2000/svg">
<path d="M22.5 19.3672V21.5674H7.5V19.3672H22.5Z" stroke="white"/>
<mask id="path-2-inside-1_6958_246197" fill="white">
<path d="M8 19C8 19 9.42947 18.3227 9.56151 15.9647C9.65528 14.2944 10.0074 10.4265 10.4284 9.33865C10.9785 7.91842 11.5498 6.02095 15.1828 6.00011C16.4773 5.99282 18.5402 6.34188 19.6233 9.35428C20.2175 11.0048 20.4509 15.7031 20.5504 16.3711C20.6595 17.0994 21.2374 18.3967 22 18.999"/>
</mask>
<path d="M9.56151 15.9647L8.3634 15.8974L8.36339 15.8976L9.56151 15.9647ZM10.4284 9.33865L9.3094 8.90519L9.30926 8.90555L10.4284 9.33865ZM15.1828 6.00011L15.176 4.80013L15.1759 4.80013L15.1828 6.00011ZM19.6233 9.35428L18.4941 9.76029L18.4942 9.76074L19.6233 9.35428ZM20.5504 16.3711L19.3635 16.5479L19.3637 16.5488L20.5504 16.3711ZM8 19C8.51381 20.0844 8.51451 20.0841 8.51522 20.0838C8.51546 20.0837 8.51618 20.0833 8.51666 20.0831C8.51763 20.0826 8.51863 20.0821 8.51965 20.0816C8.52169 20.0807 8.52382 20.0796 8.52605 20.0786C8.53049 20.0764 8.53531 20.074 8.54048 20.0714C8.55082 20.0663 8.56259 20.0603 8.57569 20.0533C8.60189 20.0395 8.6335 20.0221 8.66974 20.0008C8.74215 19.9583 8.83354 19.8999 8.9376 19.8231C9.14567 19.6697 9.40612 19.4417 9.66571 19.1194C10.1954 18.4619 10.6794 17.4638 10.7596 16.0318L9.56151 15.9647L8.36339 15.8976C8.31153 16.8236 8.0148 17.3431 7.79677 17.6138C7.68248 17.7556 7.57732 17.8443 7.51324 17.8915C7.48122 17.9151 7.4599 17.9281 7.45362 17.9318C7.45052 17.9336 7.45128 17.933 7.45648 17.9303C7.45908 17.9289 7.46281 17.927 7.46773 17.9245C7.47019 17.9233 7.47296 17.9219 7.47603 17.9204C7.47756 17.9197 7.47918 17.9189 7.48087 17.9181C7.48172 17.9177 7.48258 17.9173 7.48347 17.9169C7.48391 17.9166 7.48459 17.9163 7.48481 17.9162C7.4855 17.9159 7.48619 17.9156 8 19ZM9.56151 15.9647L10.7596 16.0319C10.8052 15.2203 10.9146 13.8595 11.0642 12.5717C11.139 11.9279 11.2225 11.3142 11.311 10.8025C11.404 10.2642 11.4892 9.92247 11.5475 9.77175L10.4284 9.33865L9.30926 8.90555C9.15709 9.29876 9.04032 9.84844 8.94606 10.3935C8.84719 10.9653 8.75783 11.6269 8.68025 12.2948C8.52509 13.6305 8.4116 15.0388 8.3634 15.8974L9.56151 15.9647ZM10.4284 9.33865L11.5474 9.77212C11.8521 8.98531 12.0477 8.43591 12.4908 8.0003C12.8751 7.62247 13.5922 7.20925 15.1896 7.20009L15.1828 6.00011L15.1759 4.80013C13.1403 4.81181 11.7553 5.35774 10.8082 6.28891C9.91987 7.16231 9.55477 8.27176 9.3094 8.90519L10.4284 9.33865ZM15.1828 6.00011L15.1895 7.20009C15.7325 7.19703 16.3328 7.27115 16.8885 7.5876C17.4195 7.88996 18.0356 8.4851 18.4941 9.76029L19.6233 9.35428L20.7525 8.94827C20.1279 7.21107 19.171 6.12547 18.0761 5.50202C17.006 4.89266 15.9276 4.79589 15.176 4.80013L15.1828 6.00011ZM19.6233 9.35428L18.4942 9.76074C18.7312 10.419 18.9294 11.8476 19.0782 13.3494C19.1496 14.0696 19.2059 14.7613 19.251 15.3214C19.2935 15.8478 19.3309 16.3285 19.3635 16.5479L20.5504 16.3711L21.7373 16.1942C21.7203 16.0796 21.6912 15.7226 21.6433 15.1286C21.5981 14.5684 21.5403 13.8571 21.4665 13.1128C21.3252 11.6859 21.1095 9.94003 20.7524 8.94782L19.6233 9.35428ZM20.5504 16.3711L19.3637 16.5488C19.4428 17.0772 19.6684 17.7108 19.964 18.283C20.2572 18.8506 20.6876 19.4916 21.2562 19.9407L22 18.999L22.7438 18.0572C22.5498 17.9041 22.31 17.5953 22.0963 17.1816C21.885 16.7725 21.7671 16.3932 21.7372 16.1933L20.5504 16.3711Z" fill="white" mask="url(#path-2-inside-1_6958_246197)"/>
<mask id="path-4-inside-2_6958_246197" fill="white">
<path d="M17.6668 22.0664C17.4604 23.2751 16.3451 24.1997 14.9997 24.1997C13.6552 24.1997 12.54 23.2751 12.3335 22.0664"/>
</mask>
<path d="M17.6668 22.0664L16.484 21.8644C16.3832 22.454 15.8047 22.9997 14.9997 22.9997V24.1997V25.3997C16.8855 25.3997 18.5375 24.0962 18.8497 22.2685L17.6668 22.0664ZM14.9997 24.1997V22.9997C14.1959 22.9997 13.6171 22.4542 13.5164 21.8644L12.3335 22.0664L11.1506 22.2685C11.4628 24.096 13.1145 25.3997 14.9997 25.3997V24.1997Z" fill="white" mask="url(#path-4-inside-2_6958_246197)"/>
<mask id="path-6-inside-3_6958_246197" fill="white">
<path d="M13.3999 7.13333C13.3999 5.95582 14.1168 5 14.9999 5C15.883 5 16.5999 5.95582 16.5999 7.13333"/>
</mask>
<path d="M13.3999 7.13333H14.5999C14.5999 6.77944 14.7091 6.50454 14.8287 6.3451C14.8869 6.26748 14.938 6.22922 14.9671 6.21283C14.9812 6.20489 14.9901 6.20198 14.9937 6.20098C14.9971 6.20006 14.9986 6.2 14.9999 6.2V5V3.8C14.0955 3.8 13.3685 4.29207 12.9087 4.9051C12.4491 5.51795 12.1999 6.30972 12.1999 7.13333H13.3999ZM14.9999 5V6.2C15.0012 6.2 15.0027 6.20006 15.0061 6.20098C15.0097 6.20198 15.0187 6.20489 15.0327 6.21283C15.0618 6.22922 15.1129 6.26748 15.1711 6.3451C15.2907 6.50454 15.3999 6.77944 15.3999 7.13333H16.5999H17.7999C17.7999 6.30972 17.5507 5.51795 17.0911 4.9051C16.6313 4.29207 15.9043 3.8 14.9999 3.8V5Z" fill="white" mask="url(#path-6-inside-3_6958_246197)"/>
</svg>
