<svg width="30" height="30" viewBox="0 0 30 30" fill="none" xmlns="http://www.w3.org/2000/svg">
<path d="M16.3501 14.3C15.9635 14.3 15.6501 14.6134 15.6501 15C15.6501 15.3866 15.9635 15.7 16.3501 15.7V15V14.3ZM16.3501 15V15.7H21.3001V15V14.3H16.3501V15Z" fill="white"/>
<path d="M19 12.5L21.5 15L19 17.5" stroke="white"/>
<path d="M14.9999 16.3484C14.2543 16.3484 13.6499 15.744 13.6499 14.9984C13.6499 14.2529 14.2543 13.6484 14.9999 13.6484C15.7455 13.6484 16.3499 14.2529 16.3499 14.9984C16.3499 15.744 15.7455 16.3484 14.9999 16.3484Z" stroke="white" stroke-width="1.4"/>
<path d="M15 24C10.0294 24 6 19.9705 6 15C6 10.0294 10.0294 6 15 6C19.9705 6 24 10.0294 24 15C24 19.9705 19.9705 24 15 24Z" stroke="white" stroke-width="1.4"/>
</svg>
