<svg width="30" height="30" viewBox="0 0 30 30" fill="none" xmlns="http://www.w3.org/2000/svg">
<path d="M7 7.10074C6.71067 7.10074 6.4332 7.24829 6.22861 7.51093C6.02403 7.77357 5.90909 8.12979 5.90909 8.50123C5.90909 8.87266 6.02403 9.22888 6.22861 9.49152C6.4332 9.75417 6.71067 9.90172 7 9.90172C7.28933 9.90172 7.5668 9.75417 7.77139 9.49152C7.97597 9.22888 8.09091 8.87266 8.09091 8.50123C8.09091 8.12979 7.97597 7.77357 7.77139 7.51093C7.5668 7.24829 7.28933 7.10074 7 7.10074ZM7 10.8354C6.51779 10.8354 6.05533 10.5895 5.71435 10.1517C5.37338 9.71398 5.18182 9.12028 5.18182 8.50123C5.18182 7.88217 5.37338 7.28847 5.71435 6.85073C6.05533 6.41299 6.51779 6.16708 7 6.16708C7.48221 6.16708 7.94467 6.41299 8.28565 6.85073C8.62662 7.28847 8.81818 7.88217 8.81818 8.50123C8.81818 9.12028 8.62662 9.71398 8.28565 10.1517C7.94467 10.5895 7.48221 10.8354 7 10.8354ZM7 5C5.23273 5 3.64727 6.40049 3 8.50123C3.86909 11.3396 6.36364 12.7307 8.57455 11.615C9.68364 11.0548 10.5636 9.92973 11 8.50123C10.3527 6.40049 8.76727 5 7 5Z" fill="white"/>
<path d="M12.5967 15.1286V9.42578H24.9239V14.9063" stroke="white"/>
<path d="M18.7612 3V6.39477" stroke="white"/>
<path d="M14.4053 9.42576V6.39453H23.1187V9.42576" stroke="white"/>
<path d="M24.925 22.9181L26.6474 16.0763L18.762 12.5547L10.9473 16.2698L12.5977 22.9181H24.925Z" stroke="white"/>
<path d="M18.7988 12.5117V22.9144" stroke="white"/>
<path d="M26.2 25.1982C24.949 25.1982 23.698 24.7748 22.6 24C20.404 25.5405 17.596 25.5405 15.4 24C14.302 24.7748 13.051 25.1982 11.8 25.1982H10V27H11.8C13.033 27 14.266 26.6847 15.4 26.0991C17.65 27.2703 20.35 27.2703 22.6 26.0991C23.734 26.6847 24.958 27 26.2 27H28V25.1982" fill="white"/>
</svg>
