<svg width="30" height="30" viewBox="0 0 30 30" fill="none" xmlns="http://www.w3.org/2000/svg">
<path d="M6 10.655H10.454L12.372 8H16.725L18.493 10.655H23.188V22.588H6V10.655Z" stroke="white" stroke-width="1.2"/>
<path d="M14.4179 19.5799C16.2112 19.5799 17.6649 18.1262 17.6649 16.3329C17.6649 14.5397 16.2112 13.0859 14.4179 13.0859C12.6246 13.0859 11.1709 14.5397 11.1709 16.3329C11.1709 18.1262 12.6246 19.5799 14.4179 19.5799Z" stroke="white" stroke-width="1.2"/>
<path d="M20.7891 13.5489C21.1812 13.5489 21.4991 13.231 21.4991 12.8389C21.4991 12.4468 21.1812 12.1289 20.7891 12.1289C20.397 12.1289 20.0791 12.4468 20.0791 12.8389C20.0791 13.231 20.397 13.5489 20.7891 13.5489Z" fill="white"/>
</svg>
