<svg width="30" height="30" viewBox="0 0 30 30" fill="none" xmlns="http://www.w3.org/2000/svg">
<path d="M8.28906 17.1484V13.3125H18.1038V16.9577" stroke="white" stroke-width="1.2"/>
<path d="M13.1973 9V10.7585" stroke="white" stroke-width="1.2"/>
<path d="M9.72852 13.3124V10.7578H16.6654V13.3124" stroke="white" stroke-width="1.2"/>
<path d="M8.28948 25.0785L6 18.11L13.1969 14.9766L20.4497 17.9435L18.1042 25.0785" stroke="white" stroke-width="1.2"/>
<path d="M6.64795 20.027L13.1968 17.1484L19.6182 20.027" stroke="white" stroke-width="1.2"/>
<path d="M13.2261 14.9453V21.595" stroke="white" stroke-width="1.2"/>
<path d="M6.12695 25.0781H20.2894" stroke="white" stroke-width="1.2"/>
<path d="M19.3795 3.39952L17.9149 6.3691L14.638 6.84684C14.0504 6.93207 13.8149 7.65652 14.241 8.07145L16.6117 10.3816L16.051 13.645C15.9501 14.2349 16.5714 14.6768 17.0917 14.4009L20.0232 12.86L22.9546 14.4009C23.475 14.6745 24.0963 14.2349 23.9953 13.645L23.4346 10.3816L25.8053 8.07145C26.2315 7.65652 25.996 6.93207 25.4083 6.84684L22.1315 6.3691L20.6669 3.39952C20.4045 2.8702 19.6441 2.86347 19.3795 3.39952Z" fill="white"/>
</svg>
