<svg width="30" height="30" viewBox="0 0 30 30" fill="none" xmlns="http://www.w3.org/2000/svg">
<path d="M12.0638 24C11.7801 24 11.5319 23.9041 11.3191 23.7122C11.1064 23.5203 11 23.2674 11 22.9535V7.04651C11 6.73256 11.1064 6.47965 11.3191 6.28779C11.5319 6.09593 11.7801 6 12.0638 6C12.1348 6 12.383 6.10465 12.8085 6.31395L20.5213 13.9012C20.6986 14.0756 20.8227 14.25 20.8936 14.4244C20.9645 14.5988 21 14.7907 21 15C21 15.2093 20.9645 15.4012 20.8936 15.5756C20.8227 15.75 20.6986 15.9244 20.5213 16.0988L12.8085 23.686C12.7021 23.7907 12.5869 23.8692 12.4628 23.9215C12.3387 23.9738 12.2057 24 12.0638 24Z" fill="#A3D6EB"/>
</svg>
