<svg width="30" height="30" viewBox="0 0 30 30" fill="none" xmlns="http://www.w3.org/2000/svg">
<path d="M12.8259 13.475H14.6849V14.658H12.8259V21.002H11.5259V8.938H12.8259V13.475ZM7.23585 11.07V11.59C7.23585 12.5 7.13185 13.358 6.91085 14.19L10.3299 18.389L9.35485 19.234L6.41685 15.607C5.85785 16.92 4.99985 18.142 3.85585 19.364L2.93285 18.506C4.89585 16.387 5.97485 14.372 5.97485 11.59V11.07H3.40085V9.887H9.84885V11.07H7.23585ZM25.153 8.938V11.967H27.025V13.137H25.153V17.973H23.853V8.938H25.153ZM21.916 15.958L18.757 13.488C18.146 14.476 17.223 15.373 15.975 16.205L15.247 15.204C17.366 13.787 18.341 12.253 18.341 10.329V9.393H19.602V10.329C19.602 11.044 19.498 11.72 19.277 12.344L22.657 14.983L21.916 15.958ZM17.418 17.219H18.718V19.819H25.777V21.002H17.418V17.219Z" fill="white"/>
</svg>
