<svg width="18" height="21" viewBox="0 0 18 21" fill="none" xmlns="http://www.w3.org/2000/svg">
<path d="M17.5787 10.1829C17.547 10.0949 17.477 10.0263 17.3883 9.99659L15.121 9.23442V4.52528C15.121 4.35628 14.984 4.21926 14.815 4.21926H12.893V0.454471C12.893 0.285459 12.756 0.148438 12.587 0.148438H5.15991C4.9909 0.148438 4.85387 0.285459 4.85387 0.454471V4.21926H2.93173C2.76272 4.21926 2.62569 4.35628 2.62569 4.52528V9.23442L0.358358 9.99659C0.269754 10.0263 0.199669 10.0949 0.167986 10.1829C0.136314 10.2709 0.146625 10.3685 0.195938 10.4479L6.03035 19.8555C6.08608 19.9456 6.18441 20.0003 6.29035 20.0003H11.4565C11.5624 20.0003 11.6608 19.9456 11.7165 19.8555L17.5508 10.4479C17.6001 10.3685 17.6104 10.2709 17.5787 10.1829ZM5.46593 0.760505H12.2809V4.21926H5.46593V0.760505ZM8.56739 19.3882H6.4607L0.919633 10.4537L8.56739 7.88292L8.56739 19.3882ZM8.87535 7.15149C8.87469 7.15149 8.8741 7.15109 8.87342 7.15109C8.87275 7.15109 8.87218 7.15149 8.8715 7.15149C8.83921 7.15169 8.80692 7.15669 8.77584 7.16709L3.23776 9.02869V4.83133H14.5089V9.02868L8.97101 7.16709C8.93995 7.15669 8.90764 7.15169 8.87535 7.15149ZM11.2862 19.3882H9.17946V7.88295L16.8271 10.4537L11.2862 19.3882Z" fill="#E5F1FF" stroke="#E5F1FF" stroke-width="0.3"/>
</svg>
