<svg width="24" height="24" viewBox="0 0 24 24" fill="none" xmlns="http://www.w3.org/2000/svg">
<rect width="24" height="24" fill="#8B98C5"/>
<path d="M3.01465 16.0859C3.06701 17.9147 3.3718 19.9857 4.65737 17.6249" stroke="white"/>
<path d="M8.74767 14.057V5C8.74767 5 1.09222 6.42207 3.04068 14.0579" stroke="white"/>
<path d="M2.99386 16.0815C3.54276 16.0815 3.98772 15.6365 3.98772 15.0876C3.98772 14.5387 3.54276 14.0938 2.99386 14.0938C2.44497 14.0938 2 14.5387 2 15.0876C2 15.6365 2.44497 16.0815 2.99386 16.0815Z" stroke="white"/>
<path d="M20.9406 19.3727H6.77969L5.84473 14.0547H21.8755L20.9406 19.3727Z" stroke="white"/>
<path d="M11.8374 13.9401L14.5067 10.5312H21.2066V13.9401" stroke="white"/>
<path d="M6.38965 16.7188H21.6996" stroke="white"/>
</svg>
