<svg width="42" height="44" viewBox="0 0 42 44" fill="none" xmlns="http://www.w3.org/2000/svg">
<rect x="6" y="7" width="30" height="30" fill="#607BFF"/>
<g clip-path="url(#clip0_6715_165216)">
<path d="M30.6218 15.8375L24.2262 14.2138C24.2262 14.2138 24.2035 14.1913 24.1883 14.18C24.0749 14.105 23.916 14.09 23.7269 14.1388L21.2685 15.0313C21.2156 12.8 19.3699 11 17.1082 11C15.1112 10.9963 13.4357 12.3838 13.0348 14.2588L11.6354 13.7975C11.5144 13.7563 11.348 13.79 11.2118 13.88C11.0719 13.97 11 14.1013 11 14.2588V29.8363C11 30.05 11.1702 30.2563 11.3782 30.2975L17.8608 32H17.9856C18.0348 32 18.0915 31.9888 18.1445 31.9625L24.0446 30.38L30.3684 32H30.4932C30.618 32 30.7012 31.9588 30.8336 31.8763C30.9433 31.7675 31 31.64 31 31.5013V16.2988C31 16.085 30.8298 15.8788 30.6218 15.8375ZM20.3079 15.5938C20.27 15.6388 20.2663 15.6875 20.2663 15.7213L20.2284 15.83C20.1566 16.115 19.4531 17.255 17.7209 19.52C17.6793 19.55 17.6415 19.5875 17.6074 19.6325C17.4561 19.8425 17.3048 20.03 17.1687 20.195L17.112 20.2663C15.1679 17.7275 14.09 16.175 13.9917 15.7588V15.6838C13.9539 15.5 13.9539 15.3088 13.9539 15.125V14.975C14.0673 13.3025 15.4705 11.9938 17.1498 11.9938C18.9123 11.9938 20.3419 13.415 20.3419 15.1588C20.3419 15.3088 20.3419 15.4475 20.3079 15.59V15.5938ZM13.0234 15.8975L13.0613 16.01C13.1142 16.19 13.2693 16.7413 15.0129 19.1263C15.8449 20.285 16.7224 21.3875 16.7337 21.4025C16.8434 21.5113 16.972 21.5675 17.112 21.5675C17.1195 21.5675 17.1233 21.5675 17.1309 21.5675C17.1384 21.5675 17.146 21.5675 17.1498 21.5675C17.2708 21.5675 17.4297 21.5263 17.5166 21.4138L17.4939 27.7438L17.4826 30.875L12.0098 29.4275V14.93L12.9554 15.2975C12.9667 15.5075 12.9932 15.7138 13.0234 15.8975ZM18.4849 22.4L18.4924 20.1425C20.0242 18.125 20.913 16.7938 21.1437 16.1713C21.1588 16.13 21.1702 16.0925 21.1778 16.0625C21.1853 16.04 21.1967 16.0138 21.2005 15.995V15.9575L23.3525 15.17V29.4313L18.4584 30.83L18.4849 22.4ZM24.4039 15.2488L30.028 16.6363V30.8675L24.4039 29.4275V15.2488Z" fill="#DFE3F6"/>
<path d="M17.1118 12.9609C16.015 12.9609 15.1187 13.8459 15.1187 14.9372C15.1187 16.0284 16.0112 16.9134 17.1118 16.9134C18.2124 16.9134 19.105 16.0284 19.105 14.9372C19.105 13.8459 18.2124 12.9609 17.1118 12.9609ZM18.1292 14.9372C18.1292 15.4772 17.6527 15.9497 17.1081 15.9497C16.5634 15.9497 16.0869 15.4772 16.0869 14.9372C16.0869 14.3972 16.5634 13.9247 17.1081 13.9247C17.6527 13.9247 18.1292 14.3784 18.1292 14.9372Z" fill="#DFE3F6"/>
<path d="M16.3971 21.8828H15.425V22.8466H16.3971V21.8828Z" fill="#DFE3F6"/>
<path d="M16.3971 23.1719H15.425V24.1356H16.3971V23.1719Z" fill="#DFE3F6"/>
<path d="M16.3971 24.4922H15.425V25.4559H16.3971V24.4922Z" fill="#DFE3F6"/>
<path d="M16.3971 25.8125H15.425V26.7762H16.3971V25.8125Z" fill="#DFE3F6"/>
<path d="M16.3971 27.1406H15.425V28.1044H16.3971V27.1406Z" fill="#DFE3F6"/>
</g>
<defs>
<clipPath id="clip0_6715_165216">
<rect width="20" height="21" fill="white" transform="translate(11 11)"/>
</clipPath>
</defs>
</svg>
