<svg width="42" height="44" viewBox="0 0 42 44" fill="none" xmlns="http://www.w3.org/2000/svg">
<rect x="6" y="7" width="30" height="30" fill="#607BFF"/>
<path d="M17.1428 13.4286C17.8492 13.4286 18.5397 13.638 19.127 14.0305C19.7143 14.4229 20.1721 14.9807 20.4424 15.6333C20.7127 16.2859 20.7834 17.004 20.6456 17.6968C20.5078 18.3895 20.1677 19.0259 19.6682 19.5254C19.1687 20.0249 18.5324 20.365 17.8396 20.5028C17.1468 20.6406 16.4287 20.5699 15.7761 20.2996C15.1235 20.0293 14.5657 19.5715 14.1733 18.9842C13.7809 18.3969 13.5714 17.7064 13.5714 17C13.5714 16.0528 13.9477 15.1444 14.6174 14.4746C15.2872 13.8048 16.1956 13.4286 17.1428 13.4286ZM17.1428 12C16.1539 12 15.1872 12.2932 14.365 12.8427C13.5427 13.3921 12.9019 14.173 12.5234 15.0866C12.145 16.0002 12.046 17.0055 12.2389 17.9755C12.4318 18.9454 12.908 19.8363 13.6073 20.5355C14.3066 21.2348 15.1975 21.711 16.1674 21.9039C17.1373 22.0969 18.1426 21.9978 19.0562 21.6194C19.9699 21.241 20.7508 20.6001 21.3002 19.7779C21.8496 18.9556 22.1428 17.9889 22.1428 17C22.1428 15.6739 21.616 14.4021 20.6784 13.4645C19.7407 12.5268 18.4689 12 17.1428 12Z" fill="#DFE3F6"/>
<path d="M24.2857 31.5714H22.8571V28C22.8571 27.0528 22.4809 26.1444 21.8111 25.4746C21.1413 24.8048 20.2329 24.4286 19.2857 24.4286H15C14.0528 24.4286 13.1444 24.8048 12.4746 25.4746C11.8048 26.1444 11.4286 27.0528 11.4286 28V31.5714H10V28C10 26.6739 10.5268 25.4021 11.4645 24.4645C12.4021 23.5268 13.6739 23 15 23H19.2857C20.6118 23 21.8836 23.5268 22.8212 24.4645C23.7589 25.4021 24.2857 26.6739 24.2857 28V31.5714Z" fill="#DFE3F6"/>
<path d="M24.2861 13.4297H32.2861V14.8583H24.2861V13.4297Z" fill="#DFE3F6"/>
<path d="M24.2861 17H32.2861V18.4286H24.2861V17Z" fill="#DFE3F6"/>
<path d="M24.2856 20.5703H29.2856V21.9989H24.2856V20.5703Z" fill="#DFE3F6"/>
</svg>
