<svg width="42" height="44" viewBox="0 0 42 44" fill="none" xmlns="http://www.w3.org/2000/svg">
<rect x="6" y="7" width="30" height="30" fill="#607BFF"/>
<path d="M23.9395 15.6787L23.3702 15.8684L23.4533 16.1178L23.693 16.2257L23.9395 15.6787ZM25.1836 16.3975L24.8328 16.8842L25.046 17.0379L25.3036 16.9853L25.1836 16.3975ZM27.9531 15.832L28.4727 15.532L28.2566 15.1577L27.8331 15.2442L27.9531 15.832ZM30 19.377L30.4487 19.7752L30.736 19.4516L30.5196 19.0769L30 19.377ZM28.127 21.4873L27.6782 21.089L27.5037 21.2857L27.53 21.5472L28.127 21.4873ZM28.1641 22.2119L28.7641 22.2119V22.2119H28.1641ZM28.127 22.9307L27.5299 22.8711L27.5039 23.1324L27.6781 23.3288L28.127 22.9307ZM30 25.042L30.5196 25.342L30.7359 24.9674L30.4488 24.6438L30 25.042ZM27.9531 28.5869L27.8329 29.1747L28.2565 29.2614L28.4727 28.8869L27.9531 28.5869ZM25.1885 28.0215L25.3087 27.4337L25.0507 27.3809L24.8372 27.5351L25.1885 28.0215ZM23.9385 28.7441L23.692 28.1971L23.4523 28.3051L23.3692 28.5545L23.9385 28.7441ZM23.0469 31.4209V32.0209H23.4794L23.6161 31.6105L23.0469 31.4209ZM18.9541 31.4209L18.3849 31.6107L18.5217 32.0209H18.9541V31.4209ZM18.0615 28.7441L18.6307 28.5543L18.5476 28.3051L18.308 28.1971L18.0615 28.7441ZM16.8115 28.0215L17.1628 27.5351L16.9493 27.3809L16.6913 27.4337L16.8115 28.0215ZM14.0469 28.5869L13.5273 28.8869L13.7435 29.2614L14.1671 29.1747L14.0469 28.5869ZM12 25.042L11.551 24.644L11.2642 24.9676L11.4804 25.342L12 25.042ZM13.8721 22.9297L14.3211 23.3276L14.4951 23.1313L14.4691 22.8703L13.8721 22.9297ZM13.8369 22.2119H13.2369V22.2119L13.8369 22.2119ZM13.873 21.4883L14.4701 21.5481L14.4963 21.2867L14.3219 21.0901L13.873 21.4883ZM12 19.377L11.4804 19.0769L11.2641 19.4515L11.5512 19.7751L12 19.377ZM14.0469 15.832L14.1669 15.2442L13.7434 15.1577L13.5273 15.532L14.0469 15.832ZM16.8154 16.3975L16.6954 16.9853L16.953 17.038L17.1664 16.8841L16.8154 16.3975ZM18.0605 15.6787L18.3071 16.2257L18.5466 16.1178L18.6297 15.8686L18.0605 15.6787ZM18.9541 13V12.4H18.5217L18.3849 12.8101L18.9541 13ZM23.0469 13L23.6161 12.8103L23.4794 12.4H23.0469V13ZM21.2109 19.6973L21.211 19.0973H21.2109V19.6973ZM18.6992 22.21H18.0992V22.2101L18.6992 22.21ZM21.2109 24.7217V25.3217H21.211L21.2109 24.7217ZM23.7227 22.21L24.3227 22.2101V22.21H23.7227ZM23.9395 15.6787L23.693 16.2257C24.0963 16.4075 24.4778 16.6284 24.8328 16.8842L25.1836 16.3975L25.5344 15.9107C25.1143 15.6079 24.663 15.3466 24.1859 15.1317L23.9395 15.6787ZM25.1836 16.3975L25.3036 16.9853L28.0731 16.4199L27.9531 15.832L27.8331 15.2442L25.0636 15.8096L25.1836 16.3975ZM27.9531 15.832L27.4335 16.1321L29.4804 19.677L30 19.377L30.5196 19.0769L28.4727 15.532L27.9531 15.832ZM30 19.377L29.5513 18.9787L27.6782 21.089L28.127 21.4873L28.5757 21.8856L30.4487 19.7752L30 19.377ZM28.127 21.4873L27.53 21.5472C27.552 21.7671 27.5641 21.989 27.5641 22.2119H28.1641H28.7641C28.7641 21.9459 28.7497 21.6839 28.724 21.4274L28.127 21.4873ZM28.1641 22.2119L27.5641 22.2119C27.5641 22.4323 27.5518 22.652 27.5299 22.8711L28.127 22.9307L28.724 22.9902C28.7493 22.7365 28.764 22.4768 28.7641 22.2119L28.1641 22.2119ZM28.127 22.9307L27.6781 23.3288L29.5512 25.4402L30 25.042L30.4488 24.6438L28.5758 22.5325L28.127 22.9307ZM30 25.042L29.4804 24.742L27.4335 28.2869L27.9531 28.5869L28.4727 28.8869L30.5196 25.342L30 25.042ZM27.9531 28.5869L28.0733 27.9991L25.3087 27.4337L25.1885 28.0215L25.0683 28.6093L27.8329 29.1747L27.9531 28.5869ZM25.1885 28.0215L24.8372 27.5351C24.4808 27.7924 24.0975 28.0144 23.692 28.1971L23.9385 28.7441L24.1849 29.2912C24.6643 29.0753 25.1178 28.8126 25.5397 28.5079L25.1885 28.0215ZM23.9385 28.7441L23.3692 28.5545L22.4776 31.2313L23.0469 31.4209L23.6161 31.6105L24.5077 28.9338L23.9385 28.7441ZM23.0469 31.4209V30.8209H18.9541V31.4209V32.0209H23.0469V31.4209ZM18.9541 31.4209L19.5233 31.2311L18.6307 28.5543L18.0615 28.7441L17.4923 28.9339L18.3849 31.6107L18.9541 31.4209ZM18.0615 28.7441L18.308 28.1971C17.9025 28.0144 17.5191 27.7924 17.1628 27.5351L16.8115 28.0215L16.4602 28.5079C16.8822 28.8127 17.3358 29.0752 17.815 29.2912L18.0615 28.7441ZM16.8115 28.0215L16.6913 27.4337L13.9267 27.9991L14.0469 28.5869L14.1671 29.1747L16.9317 28.6093L16.8115 28.0215ZM14.0469 28.5869L14.5665 28.2869L12.5196 24.742L12 25.042L11.4804 25.342L13.5273 28.8869L14.0469 28.5869ZM12 25.042L12.449 25.44L14.3211 23.3276L13.8721 22.9297L13.423 22.5317L11.551 24.644L12 25.042ZM13.8721 22.9297L14.4691 22.8703C14.4476 22.6545 14.4369 22.4349 14.4369 22.2119L13.8369 22.2119L13.2369 22.2119C13.2369 22.4734 13.2495 22.7327 13.275 22.9891L13.8721 22.9297ZM13.8369 22.2119H14.4369C14.4369 21.9879 14.4482 21.7662 14.4701 21.5481L13.873 21.4883L13.276 21.4284C13.2502 21.686 13.2369 21.9477 13.2369 22.2119H13.8369ZM13.873 21.4883L14.3219 21.0901L12.4488 18.9788L12 19.377L11.5512 19.7751L13.4242 21.8865L13.873 21.4883ZM12 19.377L12.5196 19.677L14.5665 16.1321L14.0469 15.832L13.5273 15.532L11.4804 19.0769L12 19.377ZM14.0469 15.832L13.9268 16.4199L16.6954 16.9853L16.8154 16.3975L16.9355 15.8096L14.1669 15.2442L14.0469 15.832ZM16.8154 16.3975L17.1664 16.8841C17.521 16.6284 17.903 16.4078 18.3071 16.2257L18.0605 15.6787L17.814 15.1317C17.3373 15.3466 16.8852 15.6074 16.4645 15.9108L16.8154 16.3975ZM18.0605 15.6787L18.6297 15.8686L19.5233 13.1899L18.9541 13L18.3849 12.8101L17.4914 15.4888L18.0605 15.6787ZM18.9541 13V13.6H23.0469V13V12.4H18.9541V13ZM23.0469 13L22.4776 13.1897L23.3702 15.8684L23.9395 15.6787L24.5087 15.489L23.6161 12.8103L23.0469 13ZM21.2109 19.6973V19.0973C19.492 19.0973 18.0992 20.4916 18.0992 22.21H18.6992H19.2992C19.2992 21.1537 20.1553 20.2973 21.2109 20.2973V19.6973ZM18.6992 22.21L18.0992 22.2101C18.0995 23.9283 19.4923 25.3217 21.2109 25.3217V24.7217V24.1217C20.1553 24.1217 19.2994 23.2658 19.2992 22.2099L18.6992 22.21ZM21.2109 24.7217L21.211 25.3217C22.9294 25.3215 24.3223 23.9283 24.3227 22.2101L23.7227 22.21L23.1227 22.2099C23.1225 23.2656 22.2665 24.1216 21.2109 24.1217L21.2109 24.7217ZM23.7227 22.21H24.3227C24.3227 20.4916 22.9297 19.0974 21.211 19.0973L21.2109 19.6973L21.2109 20.2973C22.2665 20.2974 23.1227 21.1539 23.1227 22.21H23.7227Z" fill="#DFE3F6"/>
</svg>
