<svg width="30" height="30" viewBox="0 0 30 30" fill="none" xmlns="http://www.w3.org/2000/svg">
<path d="M13.172 10.4581V10.4591L13.1749 10.4611L20.5382 14.7081C20.5892 14.7375 20.6312 14.7795 20.6602 14.8292C20.6893 14.8791 20.7042 14.9361 20.7042 14.9933C20.7042 15.0504 20.6893 15.1065 20.6602 15.1564C20.6312 15.2062 20.5892 15.248 20.5382 15.2775L13.1749 19.5255L13.172 19.5275C13.04 19.6085 12.8866 19.6516 12.7306 19.6515H12.0333C11.9425 19.6515 11.8555 19.6161 11.7921 19.5538C11.7288 19.4916 11.6944 19.4073 11.6944 19.3204V10.6652C11.6945 10.5786 11.729 10.4949 11.7921 10.4327C11.8555 10.3704 11.9425 10.3351 12.0333 10.3351H12.7306C12.8866 10.335 13.04 10.3771 13.172 10.4581Z" fill="white" stroke="#02908B" stroke-width="0.3"/>
<path d="M8.88281 4.91309C11.123 3.55645 13.7533 2.95647 16.373 3.20508C18.9929 3.45373 21.4583 4.53734 23.3926 6.29004L23.4971 6.38477L23.5977 6.28516L25.4941 4.42285L25.4951 4.4209C25.5257 4.39021 25.5629 4.36643 25.6035 4.34961C25.6442 4.33278 25.6882 4.3233 25.7324 4.32324H25.7334C25.7784 4.32297 25.8228 4.33202 25.8643 4.34863C25.9059 4.36532 25.9439 4.39001 25.9756 4.4209C26.0071 4.45173 26.0319 4.48831 26.0488 4.52832C26.0658 4.56838 26.0752 4.61107 26.0752 4.6543V9.88379C26.0751 9.92275 26.0592 9.96088 26.0303 9.98926C26.0012 10.0177 25.9611 10.0342 25.9189 10.0342H20.5967C20.5516 10.0341 20.5073 10.0248 20.4658 10.0078C20.4244 9.99087 20.3868 9.96653 20.3555 9.93555C20.324 9.90444 20.2989 9.86738 20.2822 9.82715C20.2656 9.78709 20.2575 9.74427 20.2578 9.70117V9.7002C20.2579 9.65779 20.2664 9.6154 20.2832 9.57617C20.3 9.53695 20.3242 9.50075 20.3555 9.4707L20.3574 9.46973L21.9521 7.90332L22.0664 7.79102L21.9463 7.68457C20.1523 6.08246 17.8309 5.17051 15.4082 5.11621C12.9858 5.06198 10.624 5.86804 8.75781 7.3877C7.12069 8.69463 5.95112 10.4818 5.41895 12.4883C4.88698 14.4941 5.02054 16.6141 5.7998 18.54V18.541C6.55912 20.4813 7.92144 22.1369 9.69238 23.2725C11.4632 24.4079 13.5533 24.9664 15.665 24.8682C17.7765 24.7699 19.8032 24.0202 21.457 22.7256C23.111 21.4307 24.3085 19.6555 24.8779 17.6533V17.6514C24.8877 17.6151 24.9122 17.5835 24.9463 17.5635C24.9804 17.5436 25.0216 17.5368 25.0605 17.5459L26.7285 17.9521H26.7295C26.7501 17.9572 26.7693 17.9663 26.7861 17.9785C26.803 17.9908 26.8175 18.0061 26.8281 18.0234C26.8387 18.0408 26.8457 18.0603 26.8486 18.0801C26.8515 18.0999 26.8498 18.1202 26.8447 18.1396C26.1479 20.6309 24.6414 22.8307 22.5537 24.4033C20.4655 25.9764 17.9103 26.8356 15.2783 26.8496C12.6464 26.8636 10.082 26.0321 7.97656 24.4814C5.87111 22.9308 4.34035 20.7462 3.61621 18.2617C2.89214 15.7773 3.01439 13.1284 3.96484 10.7188C4.91547 8.3089 6.64263 6.26977 8.88281 4.91309Z" fill="white" stroke="#02908B" stroke-width="0.3"/>
</svg>
