<svg width="20" height="20" viewBox="0 0 20 20" fill="none" xmlns="http://www.w3.org/2000/svg">
<path d="M12.6123 4.37891C13.005 4.55574 13.3762 4.77124 13.7217 5.02051L16.1807 4.51758L18 7.66895L16.3359 9.54492C16.3571 9.75613 16.3691 9.97072 16.3691 10.1875C16.3691 10.4038 16.357 10.6174 16.3359 10.8281L18 12.7051L16.1807 15.8564L13.7207 15.3535C13.3758 15.6023 13.0051 15.8166 12.6133 15.9932L11.8203 18.375H8.18164L7.38672 15.9932C6.99477 15.8164 6.62422 15.6015 6.2793 15.3525L3.81934 15.8564L2 12.7051L3.66504 10.8262C3.6441 10.6161 3.63283 10.4031 3.63281 10.1875C3.63281 9.97173 3.64408 9.7581 3.66504 9.54785L2 7.66895L3.81934 4.51855L6.27832 5.02051C6.62364 4.77128 6.99525 4.55675 7.3877 4.37988L8.18164 2H11.8203L12.6123 4.37891ZM10.1875 7.9541C8.95448 7.95413 7.95534 8.95356 7.95508 10.1865C7.95508 11.4197 8.95432 12.4199 10.1875 12.4199C11.4207 12.4199 12.4209 11.4197 12.4209 10.1865C12.4206 8.95354 11.4205 7.9541 10.1875 7.9541Z" fill="white"/>
</svg>
