<svg width="28" height="28" viewBox="0 0 28 28" fill="none" xmlns="http://www.w3.org/2000/svg">
<path d="M14 27.9999C11.2311 28 8.52432 27.1789 6.22203 25.6405C3.91974 24.1022 2.12532 21.9157 1.06569 19.3575C0.00606476 16.7994 -0.271181 13.9845 0.269014 11.2687C0.809209 8.55299 2.14258 6.05843 4.10052 4.1005C6.72603 1.47499 10.287 -2.76642e-08 14 0C17.713 2.76642e-08 21.274 1.47499 23.8995 4.1005C26.525 6.72601 28 10.287 28 14C28 17.713 26.525 21.274 23.8995 23.8995C22.6025 25.2036 21.0597 26.2375 19.3605 26.9413C17.6612 27.6451 15.8393 28.005 14 27.9999ZM14 1.86669C7.30972 1.86669 1.86671 7.3097 1.86671 14C1.86671 20.6903 7.30972 26.1333 14 26.1333C20.6903 26.1333 26.1333 20.6903 26.1333 14C26.1333 7.3097 20.6903 1.86669 14 1.86669Z" fill="#04C2C3"/>
<path d="M12.4444 17.9667C12.6507 17.9667 12.8486 17.8868 12.9944 17.7446C13.1403 17.6024 13.2222 17.4095 13.2222 17.2084V12.6584C13.2222 12.4573 13.1403 12.2644 12.9944 12.1222C12.8486 11.9799 12.6507 11.9 12.4444 11.9C12.2382 11.9 12.0403 11.9799 11.8945 12.1222C11.7486 12.2644 11.6667 12.4573 11.6667 12.6584V17.2084C11.6667 17.4095 11.7486 17.6024 11.8945 17.7446C12.0403 17.8868 12.2382 17.9667 12.4444 17.9667ZM20.2222 8.86671H17.1111V8.10837C17.1111 7.50501 16.8653 6.92635 16.4277 6.49971C15.9901 6.07306 15.3966 5.83337 14.7778 5.83337H13.2222C12.6034 5.83337 12.0099 6.07306 11.5723 6.49971C11.1347 6.92635 10.8889 7.50501 10.8889 8.10837V8.86671H7.77778C7.5715 8.86671 7.37367 8.9466 7.22781 9.08882C7.08194 9.23103 7 9.42392 7 9.62504C7 9.82616 7.08194 10.019 7.22781 10.1613C7.37367 10.3035 7.5715 10.3834 7.77778 10.3834H8.55556V18.725C8.55556 19.3284 8.80139 19.9071 9.23897 20.3337C9.67656 20.7604 10.2701 21 10.8889 21H17.1111C17.7299 21 18.3234 20.7604 18.761 20.3337C19.1986 19.9071 19.4444 19.3284 19.4444 18.725V10.3834H20.2222C20.4285 10.3834 20.6263 10.3035 20.7722 10.1613C20.9181 10.019 21 9.82616 21 9.62504C21 9.42392 20.9181 9.23103 20.7722 9.08882C20.6263 8.9466 20.4285 8.86671 20.2222 8.86671ZM12.4444 8.10837C12.4444 7.90725 12.5264 7.71437 12.6723 7.57215C12.8181 7.42994 13.0159 7.35004 13.2222 7.35004H14.7778C14.9841 7.35004 15.1819 7.42994 15.3277 7.57215C15.4736 7.71437 15.5556 7.90725 15.5556 8.10837V8.86671H12.4444V8.10837ZM17.8889 18.725C17.8889 18.9262 17.8069 19.119 17.6611 19.2613C17.5152 19.4035 17.3174 19.4834 17.1111 19.4834H10.8889C10.6826 19.4834 10.4848 19.4035 10.3389 19.2613C10.1931 19.119 10.1111 18.9262 10.1111 18.725V10.3834H17.8889V18.725ZM15.5556 17.9667C15.7618 17.9667 15.9597 17.8868 16.1055 17.7446C16.2514 17.6024 16.3333 17.4095 16.3333 17.2084V12.6584C16.3333 12.4573 16.2514 12.2644 16.1055 12.1222C15.9597 11.9799 15.7618 11.9 15.5556 11.9C15.3493 11.9 15.1514 11.9799 15.0056 12.1222C14.8597 12.2644 14.7778 12.4573 14.7778 12.6584V17.2084C14.7778 17.4095 14.8597 17.6024 15.0056 17.7446C15.1514 17.8868 15.3493 17.9667 15.5556 17.9667Z" fill="#04C2C3"/>
</svg>
