<svg width="32" height="32" viewBox="0 0 32 32" fill="none" xmlns="http://www.w3.org/2000/svg">
<path d="M9.2793 12.9075L16.6581 1.28021L23.6153 12.9075L25.4073 30.7202L16.6581 26.1394L7.4873 30.7202L9.2793 12.9075Z" fill="#FF1616"/>
<path fill-rule="evenodd" clip-rule="evenodd" d="M16.6748 0.00011089C17.119 0.00594661 17.5283 0.241622 17.7564 0.622782L24.7136 12.2501C24.8101 12.4115 24.8699 12.5921 24.8887 12.7792L26.6807 30.5919C26.7279 31.0603 26.514 31.5168 26.1239 31.7805C25.7339 32.0441 25.2306 32.0724 24.8134 31.854L16.6443 27.5768L8.05915 31.8651C7.64187 32.0735 7.14424 32.0385 6.76031 31.7736C6.37637 31.5087 6.16691 31.056 6.2136 30.5919L8.0056 12.7792C8.02556 12.5808 8.09159 12.3898 8.19843 12.2215L15.5772 0.594149C15.8152 0.219113 16.2307 -0.00572483 16.6748 0.00011089ZM10.5224 13.3372L8.99326 28.5369L16.086 24.9941C16.4538 24.8103 16.8875 24.8145 17.2517 25.0052L23.8957 28.4838L22.3702 13.3195L16.6259 3.71936L10.5224 13.3372Z" fill="black"/>
<path d="M8.09078 24.8335L23.676 13.0162L25.2003 30.7205L16.4511 26.1396L7.28027 30.7205L8.09078 24.8335Z" fill="#FF5A6D"/>
<path fill-rule="evenodd" clip-rule="evenodd" d="M16.4677 0.000171925C16.9118 0.00600765 17.3212 0.241683 17.5492 0.622843L24.5064 12.2502C24.603 12.4115 24.6628 12.5922 24.6816 12.7793L26.4736 30.5919C26.5207 31.0604 26.3069 31.5169 25.9168 31.7805C25.5267 32.0442 25.0234 32.0724 24.6063 31.854L16.4371 27.5769L7.85199 31.8652C7.43472 32.0736 6.93709 32.0385 6.55315 31.7737C6.16922 31.5088 5.95976 31.056 6.00645 30.5919L7.79845 12.7793C7.8184 12.5809 7.88443 12.3899 7.99127 12.2215L15.3701 0.59421C15.6081 0.219174 16.0235 -0.0056638 16.4677 0.000171925ZM10.3152 13.3372L8.7861 28.537L15.8789 24.9941C16.2467 24.8104 16.6803 24.8145 17.0446 25.0052L23.6886 28.4839L22.163 13.3196L16.4188 3.71942L10.3152 13.3372Z" fill="black"/>
</svg>
