<svg width="70" height="53" viewBox="0 0 70 53" fill="none" xmlns="http://www.w3.org/2000/svg">
<path d="M67.6098 5.93141H58.1632V2.39573C58.1632 1.07332 57.0922 0 55.7727 0H2.39054C1.07099 0 0 1.07682 0 2.39573V38.7349C0 40.0573 1.07099 41.1306 2.39054 41.1306H5.91856V50.5798C5.91856 51.9127 7.00004 53 8.33356 53H61.6664C62.9965 53 64.0814 51.9162 64.0814 50.5798V47.0651H67.6095C68.929 47.0651 70 45.9918 70 44.6693V8.3266C70 7.0077 68.9294 5.93141 67.6098 5.93141ZM5.91811 14.2831V38.7172L2.41455 38.7347L2.39005 2.41713L55.748 2.39258V5.92826L14.2308 5.93176C12.9112 5.93176 11.8402 7.00509 11.8402 8.3275V11.8632H8.33316C6.99964 11.8667 5.91811 12.9501 5.91811 14.2831ZM61.6666 50.58H8.33374V14.2831H61.6666V50.58ZM64.0816 44.6451V14.2836C64.0816 12.9507 63.0001 11.8634 61.6666 11.8634L14.2447 11.8669L14.2272 8.3522L67.5852 8.32765L67.6096 44.6453L64.0816 44.6451ZM11.9557 48.1598H58.047C58.712 48.1598 59.2546 47.6196 59.2546 46.9496L59.2511 17.9135C59.2511 17.247 58.7121 16.7033 58.0435 16.7033L11.9548 16.7068C11.2898 16.7068 10.7473 17.247 10.7473 17.917V46.9531C10.7473 47.6196 11.2871 48.1598 11.9557 48.1598ZM13.1632 45.743V44.4557L30.2814 32.4771L36.9069 37.1177L32.0383 40.5201C31.4923 40.9024 31.3593 41.6566 31.7373 42.2038C31.9718 42.5405 32.3463 42.7194 32.7279 42.7194C32.9659 42.7194 33.2074 42.6492 33.4174 42.5019L45.6568 33.9504L56.8389 41.7583V45.743L13.1632 45.743ZM56.8398 19.1233V38.8082L46.3467 31.4807C45.9302 31.1896 45.3807 31.1896 44.9677 31.4807L39.0177 35.6407L30.9746 30.0075C30.5581 29.7164 30.0086 29.7164 29.5921 30.0075L13.1629 41.5058V19.1235L56.8398 19.1233ZM43.7394 29.4291C46.0389 29.4291 47.9113 27.5525 47.9113 25.248C47.9113 22.9435 46.0389 21.067 43.7394 21.067C41.4399 21.067 39.5674 22.9435 39.5674 25.248C39.5709 27.556 41.4399 29.4291 43.7394 29.4291ZM43.7394 23.4872C44.7088 23.4872 45.4963 24.2764 45.4963 25.2479C45.4963 26.2195 44.7088 27.0087 43.7394 27.0087C42.7699 27.0087 41.9824 26.2195 41.9824 25.2479C41.9824 24.2799 42.7734 23.4872 43.7394 23.4872Z" fill="#2C3D4D"/>
</svg>
