<svg width="32" height="32" viewBox="0 0 32 32" fill="none" xmlns="http://www.w3.org/2000/svg">
<path d="M8.2167 9.40356L15.945 1.34082L23.2316 9.40356V19.3796L25.1084 27.4659L15.945 30.6596L6.33984 27.4659L8.2167 19.3796V9.40356Z" fill="#DC4DD6"/>
<path fill-rule="evenodd" clip-rule="evenodd" d="M15.9656 0.000144482C16.3378 0.00560508 16.691 0.165569 16.9406 0.441737L24.2272 8.50448C24.4499 8.7509 24.5732 9.07121 24.5732 9.40335V19.2258L26.4153 27.1626C26.5702 27.8297 26.1973 28.5062 25.5506 28.7316L16.3872 31.9253C16.1077 32.0227 15.8038 32.0249 15.523 31.9315L5.91785 28.7378C5.261 28.5194 4.87843 27.8368 5.03493 27.1626L6.87708 19.2258V9.40335C6.87708 9.05763 7.01064 8.72527 7.24987 8.47568L14.9781 0.412945C15.2357 0.144219 15.5934 -0.00531611 15.9656 0.000144482ZM9.55831 9.94209V19.3793C9.55831 19.4814 9.54666 19.5831 9.52359 19.6824L7.9229 26.5789L15.9358 29.2432L23.5313 26.596L21.9267 19.6824C21.9036 19.5831 21.892 19.4814 21.892 19.3793V9.91938L15.9171 3.30811L9.55831 9.94209Z" fill="black"/>
</svg>
