<svg width="32" height="32" viewBox="0 0 32 32" fill="none" xmlns="http://www.w3.org/2000/svg">
<path d="M7.31836 16.4458L16.1704 1.28723L24.6819 16.4458L21.788 30.713L16.1704 28.1388L10.2123 30.713L7.31836 16.4458Z" fill="#1B22CB"/>
<path fill-rule="evenodd" clip-rule="evenodd" d="M16.1812 4.51036e-05C16.6587 0.00393888 17.0966 0.259582 17.3261 0.66835L25.8377 15.8269C25.9864 16.0918 26.035 16.3994 25.9749 16.6957L23.081 30.9629C23.0022 31.3514 22.7447 31.6828 22.3828 31.8615C22.0209 32.0402 21.5949 32.0463 21.2278 31.8781L16.1541 29.5531L10.7456 31.8899C10.3794 32.0481 9.95948 32.0352 9.6042 31.8549C9.24892 31.6746 8.99683 31.3464 8.91904 30.9629L6.02512 16.6957C5.96354 16.3921 6.01606 16.077 6.17307 15.8081L15.0251 0.649584C15.2615 0.244616 15.7038 -0.00384868 16.1812 4.51036e-05ZM8.70684 16.6663L11.1852 28.885L15.6368 26.9617C15.9859 26.8109 16.3847 26.8152 16.7303 26.9735L20.8222 28.8486L23.2956 16.6543L16.1477 3.9243L8.70684 16.6663Z" fill="black"/>
</svg>
