<svg width="32" height="32" viewBox="0 0 32 32" fill="none" xmlns="http://www.w3.org/2000/svg">
<path d="M13.5982 7.46103L13.5982 12.5401L5.55168 17.2107C5.44455 17.2729 5.35552 17.3629 5.29361 17.4713C5.23169 17.5798 5.19909 17.703 5.1991 17.8284L5.1991 20.7392C5.1991 21.2116 5.64398 21.5524 6.09106 21.4227L13.5982 19.2438L13.5982 23.8149L11.0784 25.7347C10.9022 25.8689 10.7985 26.08 10.7985 26.3035L10.7985 28.0806C10.7985 28.5432 11.2263 28.8828 11.6681 28.7703L16.3979 27.37L21.1276 28.7703C21.5694 28.8828 21.9972 28.5432 21.9972 28.0806L21.9972 26.3035C21.9972 26.0795 21.8936 25.8689 21.7173 25.7347L19.1976 23.8149L19.1976 19.2438L26.7042 21.4227C27.1513 21.5524 27.5966 21.2116 27.5966 20.7392L27.5966 17.8284C27.5966 17.5733 27.4619 17.3378 27.244 17.2111L19.1976 12.5401L19.1976 7.46103C19.1976 5.89008 17.9443 3.19481 16.3979 3.19481C14.8515 3.19481 13.5982 5.89008 13.5982 7.46103Z" fill="#2798EB"/>
<path fill-rule="evenodd" clip-rule="evenodd" d="M13.5987 23.8197L13.5987 19.2486L6.09161 21.4275C5.64454 21.5573 5.19965 21.2164 5.19965 20.744L5.19965 17.8332C5.19964 17.7078 5.23224 17.5847 5.29416 17.4762C5.35608 17.3677 5.4451 17.2778 5.55223 17.2155L13.5987 12.5449L13.5987 7.46587C13.5987 5.89492 14.852 3.19965 16.3984 3.19965C17.9448 3.19965 19.1981 5.89492 19.1981 7.46587L19.1981 12.5449L27.2446 17.2159C27.4624 17.3426 27.5972 17.5781 27.5972 17.8332L27.5972 20.744C27.5972 21.2164 27.1519 21.5573 26.7048 21.4275L19.1981 19.2486L19.1981 23.8197L21.7178 25.7395C21.7738 25.7821 21.8224 25.8324 21.8628 25.8884C21.8941 25.9319 21.9205 25.9789 21.9414 26.0284C21.9781 26.1157 21.9978 26.2108 21.9978 26.3083L21.9978 28.0855C21.9978 28.5481 21.57 28.8876 21.1281 28.7752L16.3984 27.3749L11.6687 28.7752C11.2269 28.8876 10.799 28.5481 10.799 28.0855L10.799 26.3083C10.799 26.2109 10.8187 26.1159 10.8555 26.0285C10.8764 25.979 10.9027 25.932 10.9341 25.8884C10.9744 25.8324 11.0231 25.7821 11.079 25.7395L13.5987 23.8197ZM8.26039 24.1297C7.83191 24.7706 7.59938 25.529 7.59938 26.3083L7.59938 28.0855C7.59938 30.5668 9.92745 32.5199 12.4578 31.876L12.5177 31.8607L16.3984 30.7118L20.2791 31.8607L20.3391 31.876C22.8694 32.5199 25.1974 30.5668 25.1974 28.0855L25.1974 26.3083C25.1974 25.5283 24.9648 24.7703 24.5366 24.1299L25.8129 24.5003C28.3703 25.2426 30.7968 23.2812 30.7968 20.744L30.7968 17.8332C30.7968 16.4529 30.0684 15.1565 28.8528 14.4498L22.3978 10.7026L22.3978 7.46587C22.3978 6.00136 21.8714 4.38438 21.1433 3.13378C20.7636 2.4816 20.2364 1.76648 19.5283 1.18041C18.8181 0.592555 17.7522 -1.06399e-06 16.3984 -1.00482e-06C15.0447 -9.45644e-07 13.9788 0.592555 13.2685 1.18041C12.5604 1.76648 12.0332 2.4816 11.6535 3.13378C10.9254 4.38438 10.3991 6.00136 10.3991 7.46587L10.3991 10.7025L3.9441 14.4493C3.34555 14.7973 2.85438 15.2961 2.51533 15.89C2.1765 16.4837 1.99999 17.1538 2 17.8332C2 17.8332 2 17.8333 2 17.8332L2 20.744C2 23.2789 4.42391 25.2432 6.98348 24.5003C6.98347 24.5003 6.98349 24.5003 6.98348 24.5003L8.26039 24.1297Z" fill="black"/>
</svg>
