<svg width="28" height="28" viewBox="0 0 28 28" fill="none" xmlns="http://www.w3.org/2000/svg">
<path d="M14 28C11.2311 28 8.52432 27.1789 6.22203 25.6405C3.91974 24.1022 2.12532 21.9157 1.06569 19.3575C0.00606476 16.7994 -0.271181 13.9845 0.269014 11.2687C0.809209 8.55299 2.14258 6.05843 4.10052 4.1005C6.72603 1.47499 10.287 -2.76642e-08 14 0C17.713 2.76642e-08 21.274 1.47499 23.8995 4.1005C26.525 6.72601 28 10.287 28 14C28 17.713 26.525 21.274 23.8995 23.8995C22.6025 25.2036 21.0597 26.2375 19.3605 26.9413C17.6612 27.6451 15.8393 28.005 14 28ZM14 1.86669C7.30972 1.86669 1.86671 7.3097 1.86671 14C1.86671 20.6903 7.30972 26.1333 14 26.1333C20.6903 26.1333 26.1333 20.6903 26.1333 14C26.1333 7.3097 20.6903 1.86669 14 1.86669Z" fill="#04C2C3"/>
<path d="M14 6.96763L10.0625 9.94286L13.9567 12.7692L17.9375 9.87112L14 6.96763ZM13.9554 11.3493L11.9906 9.92391L14.0079 8.39975L15.995 9.8657L13.9554 11.3493ZM21.7004 5.57883C20.3898 4.99401 18.9795 4.68388 17.5516 4.6665C14.021 4.6665 13.9764 6.00116 10.4484 6.00116C9.03902 5.99264 7.63946 5.75885 6.29956 5.30811L3.5 22.3662C5.07432 23.0481 6.77143 23.3762 8.47831 23.3287C13.2886 23.3287 14.7114 21.1629 19.5217 21.1629C21.2878 21.1212 23.0243 21.6354 24.5 22.637L21.7004 5.57883ZM13.9514 16.4713L16.4623 18.4597L14 20.6066L11.522 18.4435L13.9514 16.4713ZM10.5783 17.6219L8.11344 15.471L10.5192 13.7533L12.9605 15.6862L10.5783 17.6219ZM14.9345 15.6727L17.3836 13.6829L19.8866 15.471L17.4086 17.6327L14.9345 15.6727ZM16.4334 20.122L17.4453 19.2381L18.3916 18.4124L21.875 15.3708L18.3785 12.8748L17.3364 12.1303L13.9423 14.8876L10.556 12.2074L9.51125 12.9533L6.125 15.3722L9.60706 18.411L10.5521 19.234L12.8227 21.217C11.4261 21.7192 9.95737 21.975 8.47831 21.9737C7.2944 21.9815 6.11541 21.8161 4.97656 21.4823L7.35219 7.00283C8.36952 7.23119 9.40724 7.34914 10.4484 7.35476C11.8155 7.38228 13.1742 7.12826 14.4449 6.60757C15.4303 6.19349 16.4879 5.9935 17.5516 6.02011C18.5664 6.03428 19.5724 6.21664 20.531 6.5602L22.7885 20.3169C21.7309 19.9773 20.6294 19.8057 19.5217 19.8079C18.4846 19.8036 17.4497 19.9088 16.4334 20.122Z" fill="#04C2C3"/>
</svg>
