<svg width="26" height="26" viewBox="0 0 26 26" fill="none" xmlns="http://www.w3.org/2000/svg">
<path d="M25 24.6436C25 24.9972 24.8595 25.3364 24.6095 25.5864C24.3594 25.8365 24.0203 25.9769 23.6667 25.9769H2.33333C1.97971 25.9769 1.64057 25.8365 1.39052 25.5864C1.14048 25.3364 1 24.9972 1 24.6436V10.6303C0.999859 10.4271 1.04616 10.2265 1.13535 10.044C1.22455 9.86143 1.35429 9.70168 1.51467 9.57692L12.1813 1.28093C12.4154 1.09885 12.7035 1 13 1C13.2965 1 13.5846 1.09885 13.8187 1.28093L24.4853 9.57692C24.6457 9.70168 24.7754 9.86143 24.8646 10.044C24.9538 10.2265 25.0001 10.4271 25 10.6303V24.6436Z" fill="#FF7A00"/>
<path d="M16.5 19.331C15.555 19.331 14.96 19.625 14.435 19.891C13.98 20.122 13.609 20.311 13 20.311C12.37 20.311 12.02 20.136 11.565 19.891C11.04 19.625 10.466 19.331 9.5 19.331C8.534 19.331 7.96 19.625 7.435 19.891C6.98 20.122 6.616 20.311 6 20.311V21.676C6.945 21.676 7.54 21.382 8.065 21.116C8.52 20.885 8.884 20.696 9.5 20.696C10.116 20.696 10.48 20.871 10.935 21.116C11.46 21.382 12.034 21.676 13 21.676C13.966 21.676 14.54 21.382 15.065 21.116C15.52 20.885 15.891 20.696 16.5 20.696C17.13 20.696 17.48 20.871 17.935 21.116C18.46 21.382 19.041 21.676 20 21.676V20.311C19.37 20.311 19.02 20.136 18.565 19.891C18.04 19.625 17.445 19.331 16.5 19.331ZM16.5 16.216C15.555 16.216 14.96 16.517 14.435 16.776C13.98 17 13.609 17.196 13 17.196C12.37 17.196 12.02 17.021 11.565 16.776C11.04 16.51 10.466 16.216 9.5 16.216C8.534 16.216 7.96 16.517 7.435 16.776C6.98 17 6.616 17.196 6 17.196V18.561C6.945 18.561 7.54 18.26 8.065 18.001C8.52 17.756 8.87 17.581 9.5 17.581C10.13 17.581 10.48 17.756 10.935 18.001C11.46 18.267 12.034 18.561 13 18.561C13.966 18.561 14.54 18.26 15.065 18.001C15.52 17.756 15.87 17.581 16.5 17.581C17.13 17.581 17.48 17.756 17.935 18.001C18.46 18.267 19.041 18.561 20 18.561V17.196C19.37 17.196 19.02 17.021 18.565 16.776C18.04 16.51 17.445 16.216 16.5 16.216ZM18.565 10.56C18.04 10.294 17.459 10 16.5 10C15.541 10 14.96 10.294 14.435 10.56C13.98 10.784 13.609 10.98 13 10.98C12.37 10.98 12.02 10.805 11.565 10.56C11.04 10.301 10.466 10 9.5 10C8.534 10 7.96 10.294 7.435 10.56C6.98 10.791 6.616 10.98 6 10.98V12.331C6.945 12.331 7.54 12.03 8.065 11.771C8.52 11.54 8.884 11.351 9.5 11.351C10.116 11.351 10.48 11.526 10.935 11.771C11.46 12.037 12.034 12.331 13 12.331C13.966 12.331 14.54 12.03 15.065 11.771C15.52 11.547 15.891 11.351 16.5 11.351C17.13 11.351 17.48 11.526 17.935 11.771C18.46 12.037 19.041 12.331 20 12.331V10.966C19.37 10.966 19.02 10.791 18.565 10.56ZM16.5 13.101C15.555 13.101 14.96 13.402 14.435 13.661C13.98 13.906 13.63 14.081 13 14.081C12.37 14.081 12.02 13.906 11.565 13.661C11.04 13.395 10.466 13.101 9.5 13.101C8.534 13.101 7.96 13.402 7.435 13.661C6.98 13.906 6.63 14.081 6 14.081V15.446C6.945 15.446 7.54 15.145 8.065 14.886C8.52 14.662 8.891 14.466 9.5 14.466C10.109 14.466 10.48 14.641 10.935 14.886C11.46 15.152 12.034 15.446 13 15.446C13.966 15.446 14.54 15.145 15.065 14.886C15.52 14.662 15.891 14.466 16.5 14.466C17.13 14.466 17.48 14.641 17.935 14.886C18.46 15.152 19.041 15.446 20 15.446V14.081C19.37 14.081 19.02 13.906 18.565 13.661C18.04 13.395 17.445 13.101 16.5 13.101Z" fill="white"/>
</svg>
