<svg width="30" height="31" viewBox="0 0 30 31" fill="none" xmlns="http://www.w3.org/2000/svg">
<path d="M13.467 23.9927L13.1146 21.2668C12.8589 21.1845 12.5915 21.0677 12.3124 20.9164C12.0332 20.7651 11.7906 20.6052 11.5845 20.4365L9.04237 21.4885L7 17.9833L9.22122 16.329C9.19701 16.1983 9.18112 16.0682 9.17356 15.9387C9.16616 15.8091 9.16245 15.6664 9.16245 15.5106C9.16245 15.3929 9.16808 15.264 9.17934 15.1239C9.19076 14.9837 9.20711 14.8217 9.2284 14.6378L7 12.9978L9.04237 9.52858L11.6072 10.5902C11.8177 10.4186 12.0509 10.2598 12.3066 10.1137C12.5622 9.96774 12.8286 9.84469 13.1058 9.74455L13.467 6.99268H17.533L17.8854 9.72788C18.1726 9.83198 18.4305 9.95245 18.6591 10.0893C18.8879 10.2259 19.1168 10.3929 19.3458 10.5902L21.9576 9.52858L24 12.9978L21.6872 14.702C21.7174 14.8488 21.7347 14.9814 21.7392 15.0997C21.7437 15.2179 21.7459 15.3512 21.7459 15.4996C21.7459 15.6422 21.7429 15.7756 21.7369 15.8998C21.731 16.024 21.7121 16.1665 21.68 16.3272L23.9565 17.9833L21.9141 21.4885L19.3458 20.4094C19.1341 20.585 18.9139 20.7398 18.6855 20.8739C18.457 21.0079 18.1903 21.1357 17.8854 21.2575L17.533 23.9927H13.467ZM14.5781 22.7151H16.3736L16.719 20.2575C17.1774 20.1358 17.5928 19.9678 17.965 19.7535C18.3373 19.5392 18.7012 19.2559 19.0566 18.9035L21.3676 19.8756L22.2674 18.3437L20.241 16.8489C20.3105 16.6123 20.3598 16.3841 20.3891 16.1642C20.4186 15.9441 20.4333 15.7226 20.4333 15.4996C20.4333 15.2681 20.4205 15.0491 20.3949 14.8426C20.3695 14.6359 20.3182 14.4126 20.241 14.1726L22.2853 12.6439L21.4042 11.11L19.0407 12.096C18.7605 11.7939 18.4042 11.5176 17.9717 11.267C17.5392 11.0165 17.118 10.8415 16.7081 10.742L16.4173 8.27021H14.5866L14.2919 10.7264C13.8043 10.8439 13.3761 11.0051 13.0075 11.21C12.6387 11.4148 12.2641 11.7026 11.8839 12.0732L9.59582 11.11L8.69183 12.6439L10.6833 14.1022C10.6062 14.3311 10.5522 14.5598 10.5213 14.7883C10.4905 15.0167 10.4751 15.2535 10.4751 15.4985C10.4751 15.7272 10.4886 15.952 10.5155 16.1727C10.5425 16.3933 10.5917 16.6249 10.6629 16.8674L8.69183 18.3415L9.59582 19.8756L11.868 18.9168C12.2363 19.2802 12.613 19.5694 12.998 19.7843C13.383 19.999 13.8107 20.1635 14.281 20.2776L14.5781 22.7151ZM15.4673 18.1492C16.2103 18.1492 16.8426 17.8915 17.3643 17.376C17.8862 16.8607 18.1471 16.2357 18.1471 15.501C18.1471 14.7664 17.8859 14.1417 17.3636 13.6269C16.8415 13.1121 16.2083 12.8546 15.464 12.8546C14.714 12.8546 14.0794 13.1124 13.56 13.6278C13.0406 14.1432 12.781 14.7682 12.781 15.5028C12.781 16.2375 13.0406 16.8622 13.56 17.3769C14.0794 17.8918 14.7151 18.1492 15.4673 18.1492Z" fill="white"/>
</svg>
